#N canvas 610 231 1567 936 10;
#X floatatom 348 40 5 0 0 0 - - - 0;
#X obj 297 39 tgl 15 0 empty empty empty 17 7 0 10 #fcfcfc #000000 #000000 0 1;
#X obj 199 1323 dac~;
#X obj 175 624 mtof;
#X obj 152 240 bng 15 250 50 0 empty empty empty 17 7 0 10 #fcfcfc #000000 #000000;
#X obj 28 21 tgl 15 0 empty empty empty 17 7 0 10 #fcfcfc #000000 #000000 0 1;
#X msg 28 46 \; pd dsp \$1;
#X obj 925 311 bng 15 250 50 0 empty empty empty 17 7 0 10 #fcfcfc #000000 #000000;
#X obj 973 961 dac~;
#X obj 925 365 f;
#X obj 968 367 + 1;
#X obj 927 433 select 0 1 2 3;
#X obj 926 401 mod 4;
#X floatatom 1019 228 5 0 0 0 - - - 0;
#N canvas 186 80 299 281 randomTrigger 0;
#X obj 53 142 <= 1;
#X obj 54 58 random 1000;
#X obj 54 81 / 1000;
#X floatatom 172 99 5 0 1 0 - - - 0;
#X floatatom 53 106 5 0 0 0 - - - 0;
#X floatatom 53 188 5 0 0 0 - - - 0;
#X obj 42 228 select 1;
#X obj 43 19 inlet;
#X obj 177 41 inlet;
#X obj 42 261 outlet;
#X connect 0 0 5 0;
#X connect 1 0 2 0;
#X connect 2 0 4 0;
#X connect 3 0 0 1;
#X connect 4 0 0 0;
#X connect 5 0 6 0;
#X connect 6 0 9 0;
#X connect 7 0 1 0;
#X connect 8 0 3 0;
#X restore 926 260 pd randomTrigger;
#X floatatom 246 177 5 0 0 0 - - - 0;
#N canvas 186 80 299 281 randomTrigger 0;
#X obj 53 142 <= 1;
#X obj 54 58 random 1000;
#X obj 54 81 / 1000;
#X floatatom 172 99 5 0 1 0 - - - 0;
#X floatatom 53 106 5 0 0 0 - - - 0;
#X floatatom 53 188 5 0 0 0 - - - 0;
#X obj 42 228 select 1;
#X obj 43 19 inlet;
#X obj 177 41 inlet;
#X obj 42 261 outlet;
#X connect 0 0 5 0;
#X connect 1 0 2 0;
#X connect 2 0 4 0;
#X connect 3 0 0 1;
#X connect 4 0 0 0;
#X connect 5 0 6 0;
#X connect 6 0 9 0;
#X connect 7 0 1 0;
#X connect 8 0 3 0;
#X restore 153 208 pd randomTrigger;
#X obj 1475 148 bng 15 250 50 0 empty empty empty 17 7 0 10 #fcfcfc #000000 #000000;
#N canvas 770 49 864 973 genStinger 0;
#X obj 86 370 random 5;
#X obj 86 404 select 0 1 2 3 4;
#X msg 81 453 0;
#X msg 203 453 7;
#X obj 157 507 + 0;
#X floatatom 322 466 5 0 0 0 - - - 0;
#X obj 322 413 loadbang;
#X obj 83 27 bng 15 250 50 0 empty empty empty 17 7 0 10 #fcfcfc #000000 #000000;
#X floatatom 145 643 5 0 0 0 - - - 0;
#X obj 166 856 *~;
#X obj 144 612 mtof;
#X obj 128 970 outlet~;
#X obj 83 1 inlet;
#X msg 120 453 3;
#X msg 162 453 5;
#X msg 249 454 10;
#X obj 157 161 t b f;
#X obj 155 197 del;
#X obj 244 232 t b f;
#X obj 242 268 del;
#X obj 244 165 + 100;
#X obj 362 254 t b f;
#X obj 360 290 del;
#X obj 365 186 + 100;
#X floatatom 532 751 5 0 0 0 - - - 0;
#X floatatom 513 722 5 0 0 0 - - - 0;
#X floatatom 496 697 5 0 0 0 - - - 0;
#X floatatom 461 650 5 0 0 0 - - - 0;
#X floatatom 479 675 5 0 0 0 - - - 0;
#X text 499 648 peak level;
#X text 520 670 attack duration (ms);
#X text 534 692 decay duration (ms);
#X text 554 718 sustain level (% of peak);
#X text 566 748 release duration (ms);
#N canvas 251 52 707 458 envelope_adsr 0;
#X obj 209 53 moses;
#X obj 112 56 inlet;
#X obj 112 92 sel 0;
#X msg 111 130 stop;
#X obj 209 93 t b b;
#X obj 258 125 t b;
#X obj 174 209 f \$1;
#X obj 174 245 pack 0 \$2;
#X msg 125 245 0;
#X obj 337 145 inlet;
#X obj 377 145 inlet;
#X obj 421 145 inlet;
#X obj 461 145 inlet;
#X obj 314 239 del \$2;
#X obj 314 265 f \$4;
#X obj 390 268 * \$1;
#X obj 389 299 pack 0 \$3;
#X obj 472 301 pack 0 \$5;
#X obj 518 269 inlet;
#X obj 354 358 line~;
#X obj 354 386 outlet~;
#X obj 313 299 * 0.5;
#X connect 0 0 4 0;
#X connect 0 1 5 0;
#X connect 1 0 2 0;
#X connect 2 0 3 0;
#X connect 2 0 17 0;
#X connect 2 1 0 0;
#X connect 3 0 13 0;
#X connect 4 0 5 0;
#X connect 4 1 8 0;
#X connect 5 0 6 0;
#X connect 5 0 13 0;
#X connect 6 0 7 0;
#X connect 7 0 19 0;
#X connect 8 0 19 0;
#X connect 9 0 15 1;
#X connect 9 0 6 1;
#X connect 10 0 13 1;
#X connect 10 0 7 1;
#X connect 11 0 16 1;
#X connect 12 0 14 1;
#X connect 13 0 14 0;
#X connect 14 0 21 0;
#X connect 15 0 16 0;
#X connect 16 0 19 0;
#X connect 17 0 19 0;
#X connect 18 0 17 1;
#X connect 19 0 20 0;
#X connect 21 0 15 0;
#X restore 438 789 pd envelope_adsr;
#X msg 541 604 1;
#X obj 548 561 loadbang;
#X obj 412 688 tgl 15 0 empty empty empty 17 7 0 10 #fcfcfc #000000 #000000 0 1;
#X obj 419 570 bng 15 250 50 0 empty empty empty 17 7 0 10 #fcfcfc #000000 #000000;
#X msg 390 646 1;
#X msg 422 646 0;
#X msg 662 605 500;
#X msg 578 603 50;
#X msg 619 603 1;
#N canvas 270 86 1178 553 chorus 0;
#X obj 23 259 delwrite~ \$0-delay 1000;
#X obj 221 106 osc~ 0.05;
#X obj 221 131 *~ 10;
#X obj 376 130 *~ 10;
#X obj 221 156 +~ 11;
#X obj 376 155 +~ 21;
#X obj 376 105 osc~ 0.08;
#X obj 511 135 *~ 10;
#X obj 511 110 osc~ 0.13;
#X obj 511 160 +~ 13;
#X obj 694 142 *~ 10;
#X obj 694 167 +~ 55;
#X obj 694 117 osc~ 0.03;
#X obj 839 168 +~ 87;
#X obj 839 118 osc~ 0.015;
#X obj 985 114 osc~ 0.12;
#X obj 985 164 +~ 67;
#X obj 985 139 *~ 5;
#X obj 839 143 *~ 15;
#X obj 221 184 vd~ \$0-delay;
#X obj 376 183 vd~ \$0-delay;
#X obj 511 188 vd~ \$0-delay;
#X obj 694 195 vd~ \$0-delay;
#X obj 839 196 vd~ \$0-delay;
#X obj 985 192 vd~ \$0-delay;
#X obj 61 145 nbx 5 14 -1e+37 1e+37 0 0 empty empty empty 0 -8 0 10 #fcfcfc #000000 #000000 0 256;
#X obj 22 92 inlet~;
#X obj 532 418 outlet~;
#X obj 630 416 outlet~;
#X obj 271 269 *~ 0.05;
#X obj 214 270 *~ 0.95;
#X obj 1032 261 *~ 0.95;
#X obj 975 262 *~ 0.05;
#X obj 884 262 *~ 0.85;
#X obj 368 266 *~ 0.85;
#X obj 498 267 *~ 0.7;
#X obj 744 263 *~ 0.7;
#X obj 827 263 *~ 0.15;
#X obj 687 264 *~ 0.3;
#X obj 555 266 *~ 0.3;
#X obj 425 265 *~ 0.15;
#X obj 222 221 /~ 6;
#X obj 375 224 /~ 6;
#X obj 512 221 /~ 6;
#X obj 696 226 /~ 6;
#X obj 841 224 /~ 6;
#X obj 988 225 /~ 6;
#X obj 23 172 *~ 1;
#X connect 1 0 2 0;
#X connect 2 0 4 0;
#X connect 3 0 5 0;
#X connect 4 0 19 0;
#X connect 5 0 20 0;
#X connect 6 0 3 0;
#X connect 7 0 9 0;
#X connect 8 0 7 0;
#X connect 9 0 21 0;
#X connect 10 0 11 0;
#X connect 11 0 22 0;
#X connect 12 0 10 0;
#X connect 13 0 23 0;
#X connect 14 0 18 0;
#X connect 15 0 17 0;
#X connect 16 0 24 0;
#X connect 17 0 16 0;
#X connect 18 0 13 0;
#X connect 19 0 41 0;
#X connect 20 0 42 0;
#X connect 21 0 43 0;
#X connect 22 0 44 0;
#X connect 23 0 45 0;
#X connect 24 0 46 0;
#X connect 25 0 47 1;
#X connect 26 0 47 0;
#X connect 29 0 28 0;
#X connect 30 0 27 0;
#X connect 31 0 28 0;
#X connect 32 0 27 0;
#X connect 33 0 28 0;
#X connect 34 0 27 0;
#X connect 35 0 27 0;
#X connect 36 0 28 0;
#X connect 37 0 27 0;
#X connect 38 0 27 0;
#X connect 39 0 28 0;
#X connect 40 0 28 0;
#X connect 41 0 30 0;
#X connect 41 0 29 0;
#X connect 42 0 34 0;
#X connect 42 0 40 0;
#X connect 43 0 35 0;
#X connect 43 0 39 0;
#X connect 44 0 36 0;
#X connect 44 0 38 0;
#X connect 45 0 33 0;
#X connect 45 0 37 0;
#X connect 46 0 31 0;
#X connect 46 0 32 0;
#X connect 47 0 0 0;
#X restore 161 926 pd chorus;
#N canvas 1313 419 479 474 distortion 0;
#X obj 147 32 inlet~;
#X obj 159 351 outlet~;
#N canvas 0 23 713 460 tanh 0;
#X obj 241 65 inlet~;
#X text 493 89 __;
#X text 575 89 __;
#X text 527 89 __;
#X text 626 89 __;
#X text 493 106 1 +;
#X text 529 106 3 +;
#X text 577 106 5 +;
#X text 627 106 7 +;
#X text 443 32 As a continued fraction;
#X obj 240 148 *~;
#X obj 165 265 /~;
#X obj 165 350 /~;
#X obj 165 288 /~;
#X obj 165 321 /~;
#X text 427 78 tanh(z) = z z^2 4z^2 9z^2 ...;
#X obj 292 175 *~ 4;
#X obj 291 206 +~ 3;
#X obj 335 174 *~ 9;
#X obj 334 205 +~ 5;
#X obj 375 175 *~ 16;
#X obj 374 205 +~ 7;
#X obj 240 206 +~ 1;
#X obj 165 401 outlet~;
#X obj 165 372 *~ 576;
#X text 276 114 1/pi;
#X obj 241 89 *~ 0.30831;
#X connect 0 0 26 0;
#X connect 10 0 16 0;
#X connect 10 0 18 0;
#X connect 10 0 20 0;
#X connect 10 0 22 0;
#X connect 11 0 13 0;
#X connect 12 0 24 0;
#X connect 13 0 14 0;
#X connect 14 0 12 0;
#X connect 16 0 17 0;
#X connect 17 0 13 1;
#X connect 18 0 19 0;
#X connect 19 0 14 1;
#X connect 20 0 21 0;
#X connect 21 0 12 1;
#X connect 22 0 11 1;
#X connect 24 0 23 0;
#X connect 26 0 10 1;
#X connect 26 0 10 0;
#X connect 26 0 11 0;
#X restore 238 187 pd tanh afarnell;
#X obj 233 142 *~ 4.44;
#X obj 244 243 *~ 0.35;
#X obj 121 229 *~ 0.65;
#X connect 0 0 3 0;
#X connect 0 0 5 0;
#X connect 2 0 4 0;
#X connect 3 0 2 0;
#X connect 4 0 1 0;
#X connect 5 0 1 0;
#X restore 159 887 pd distortion;
#X obj 206 968 outlet~;
#X obj 194 760 *~ 0.5;
#X obj 184 690 * 3;
#X msg 322 440 95;
#X obj 243 200 + 25;
#X obj 363 220 + 25;
#X obj 162 127 + 200;
#X obj 145 724 osc~;
#X obj 195 726 osc~;
#X obj 422 613 del 250;
#X obj 162 91 random 100;
#X obj 255 119 random 50;
#X obj 376 140 random 50;
#X connect 0 0 1 0;
#X connect 1 0 2 0;
#X connect 1 1 13 0;
#X connect 1 2 14 0;
#X connect 1 3 3 0;
#X connect 1 4 15 0;
#X connect 2 0 4 0;
#X connect 3 0 4 0;
#X connect 4 0 10 0;
#X connect 4 0 38 0;
#X connect 5 0 4 1;
#X connect 6 0 49 0;
#X connect 7 0 0 0;
#X connect 7 0 56 0;
#X connect 8 0 48 0;
#X connect 8 0 53 0;
#X connect 9 0 45 0;
#X connect 10 0 8 0;
#X connect 12 0 7 0;
#X connect 13 0 4 0;
#X connect 14 0 4 0;
#X connect 15 0 4 0;
#X connect 16 0 17 0;
#X connect 16 0 57 0;
#X connect 16 1 17 1;
#X connect 16 1 20 1;
#X connect 17 0 0 0;
#X connect 18 0 19 0;
#X connect 18 0 58 0;
#X connect 18 1 19 1;
#X connect 18 1 23 1;
#X connect 19 0 0 0;
#X connect 20 0 50 0;
#X connect 21 0 22 0;
#X connect 21 1 22 1;
#X connect 22 0 0 0;
#X connect 23 0 51 0;
#X connect 24 0 34 5;
#X connect 25 0 34 4;
#X connect 26 0 34 3;
#X connect 27 0 34 1;
#X connect 28 0 34 2;
#X connect 34 0 9 1;
#X connect 35 0 27 0;
#X connect 36 0 35 0;
#X connect 36 0 42 0;
#X connect 36 0 43 0;
#X connect 36 0 41 0;
#X connect 37 0 34 0;
#X connect 38 0 39 0;
#X connect 38 0 55 0;
#X connect 39 0 37 0;
#X connect 40 0 37 0;
#X connect 41 0 24 0;
#X connect 42 0 28 0;
#X connect 42 0 26 0;
#X connect 43 0 25 0;
#X connect 44 0 11 0;
#X connect 44 1 46 0;
#X connect 45 0 44 0;
#X connect 47 0 9 0;
#X connect 48 0 54 0;
#X connect 49 0 5 0;
#X connect 50 0 18 0;
#X connect 51 0 21 0;
#X connect 52 0 16 0;
#X connect 53 0 9 0;
#X connect 54 0 47 0;
#X connect 55 0 40 0;
#X connect 56 0 52 0;
#X connect 57 0 20 0;
#X connect 58 0 23 0;
#X restore 1476 197 pd genStinger;
#N canvas 910 88 1118 828 genPentatonic 0;
#X obj 75 77 random 5;
#X obj 75 111 select 0 1 2 3 4;
#X msg 70 160 0;
#X msg 192 160 7;
#X obj 145 253 + 0;
#X floatatom 311 173 5 0 0 0 - - - 0;
#X obj 311 120 loadbang;
#X msg 311 147 59;
#X obj 83 27 bng 15 250 50 0 empty empty empty 17 7 0 10 #fcfcfc #000000 #000000;
#X floatatom 139 334 5 0 0 0 - - - 0;
#X obj 137 684 *~;
#X obj 138 303 mtof;
#X obj 138 718 outlet~;
#X obj 83 1 inlet;
#X msg 109 160 3;
#X msg 150 160 5;
#X msg 239 161 10;
#X floatatom 526 489 5 0 0 0 - - - 0;
#X floatatom 507 460 5 0 0 0 - - - 0;
#X floatatom 490 435 5 0 0 0 - - - 0;
#X floatatom 455 388 5 0 0 0 - - - 0;
#X floatatom 473 413 5 0 0 0 - - - 0;
#X text 493 386 peak level;
#X text 514 408 attack duration (ms);
#X text 528 430 decay duration (ms);
#X text 548 456 sustain level (% of peak);
#X text 560 486 release duration (ms);
#N canvas 251 52 707 458 envelope_adsr 0;
#X obj 209 53 moses;
#X obj 112 56 inlet;
#X obj 112 92 sel 0;
#X msg 111 130 stop;
#X obj 209 93 t b b;
#X obj 258 125 t b;
#X obj 174 209 f \$1;
#X obj 174 245 pack 0 \$2;
#X msg 125 245 0;
#X obj 337 145 inlet;
#X obj 377 145 inlet;
#X obj 421 145 inlet;
#X obj 461 145 inlet;
#X obj 314 239 del \$2;
#X obj 314 265 f \$4;
#X obj 390 268 * \$1;
#X obj 389 299 pack 0 \$3;
#X obj 472 301 pack 0 \$5;
#X obj 518 269 inlet;
#X obj 354 358 line~;
#X obj 354 386 outlet~;
#X obj 313 299 * 0.5;
#X connect 0 0 4 0;
#X connect 0 1 5 0;
#X connect 1 0 2 0;
#X connect 2 0 3 0;
#X connect 2 0 17 0;
#X connect 2 1 0 0;
#X connect 3 0 13 0;
#X connect 4 0 5 0;
#X connect 4 1 8 0;
#X connect 5 0 6 0;
#X connect 5 0 13 0;
#X connect 6 0 7 0;
#X connect 7 0 19 0;
#X connect 8 0 19 0;
#X connect 9 0 15 1;
#X connect 9 0 6 1;
#X connect 10 0 13 1;
#X connect 10 0 7 1;
#X connect 11 0 16 1;
#X connect 12 0 14 1;
#X connect 13 0 14 0;
#X connect 14 0 21 0;
#X connect 15 0 16 0;
#X connect 16 0 19 0;
#X connect 17 0 19 0;
#X connect 18 0 17 1;
#X connect 19 0 20 0;
#X connect 21 0 15 0;
#X restore 432 527 pd envelope_adsr;
#X msg 535 342 1;
#X obj 542 299 loadbang;
#X obj 406 426 tgl 15 0 empty empty empty 17 7 0 10 #fcfcfc #000000 #000000 0 1;
#X obj 413 308 bng 15 250 50 0 empty empty empty 17 7 0 10 #fcfcfc #000000 #000000;
#X msg 384 384 1;
#X msg 416 384 0;
#X msg 695 344 1800;
#X msg 572 341 50;
#X msg 605 344 100;
#X obj 184 456 * 1.5;
#X msg 651 342 0.25;
#X obj 236 456 * 3;
#X obj 416 351 del 50;
#X obj 139 486 phasor~;
#X obj 188 486 phasor~;
#X obj 245 486 phasor~;
#X connect 0 0 1 0;
#X connect 1 0 2 0;
#X connect 1 1 14 0;
#X connect 1 2 15 0;
#X connect 1 3 3 0;
#X connect 1 4 16 0;
#X connect 2 0 4 0;
#X connect 3 0 4 0;
#X connect 4 0 11 0;
#X connect 5 0 4 1;
#X connect 6 0 7 0;
#X connect 7 0 5 0;
#X connect 8 0 0 0;
#X connect 8 0 31 0;
#X connect 9 0 37 0;
#X connect 9 0 39 0;
#X connect 9 0 41 0;
#X connect 10 0 12 0;
#X connect 11 0 9 0;
#X connect 13 0 8 0;
#X connect 14 0 4 0;
#X connect 15 0 4 0;
#X connect 16 0 4 0;
#X connect 17 0 27 5;
#X connect 18 0 27 4;
#X connect 19 0 27 3;
#X connect 20 0 27 1;
#X connect 21 0 27 2;
#X connect 27 0 10 1;
#X connect 28 0 20 0;
#X connect 29 0 28 0;
#X connect 29 0 35 0;
#X connect 29 0 38 0;
#X connect 29 0 34 0;
#X connect 29 0 36 0;
#X connect 30 0 27 0;
#X connect 31 0 32 0;
#X connect 31 0 40 0;
#X connect 32 0 30 0;
#X connect 33 0 30 0;
#X connect 34 0 17 0;
#X connect 35 0 21 0;
#X connect 36 0 19 0;
#X connect 37 0 42 0;
#X connect 38 0 18 0;
#X connect 39 0 43 0;
#X connect 40 0 33 0;
#X connect 41 0 10 0;
#X connect 42 0 10 0;
#X connect 43 0 10 0;
#X restore 774 537 pd genPentatonic;
#N canvas 260 136 744 892 genPentatonic 0;
#X obj 75 77 random 5;
#X obj 75 111 select 0 1 2 3 4;
#X msg 70 160 0;
#X obj 145 253 + 0;
#X floatatom 311 173 5 0 0 0 - - - 0;
#X obj 311 120 loadbang;
#X msg 311 147 59;
#X obj 83 27 bng 15 250 50 0 empty empty empty 17 7 0 10 #fcfcfc #000000 #000000;
#X floatatom 139 334 5 0 0 0 - - - 0;
#X obj 123 775 *~;
#X obj 138 303 mtof;
#X obj 126 799 outlet~;
#X obj 83 1 inlet;
#X msg 109 160 3;
#X msg 150 160 5;
#X msg 192 160 7;
#X msg 238 161 10;
#X floatatom 370 573 5 0 0 0 - - - 0;
#X floatatom 351 544 5 0 0 0 - - - 0;
#X floatatom 334 519 5 0 0 0 - - - 0;
#X floatatom 299 472 5 0 0 0 - - - 0;
#X floatatom 317 497 5 0 0 0 - - - 0;
#X text 337 470 peak level;
#X text 358 492 attack duration (ms);
#X text 372 514 decay duration (ms);
#X text 392 540 sustain level (% of peak);
#X text 404 570 release duration (ms);
#N canvas 251 52 707 458 envelope_adsr 0;
#X obj 209 53 moses;
#X obj 112 56 inlet;
#X obj 112 92 sel 0;
#X msg 111 130 stop;
#X obj 209 93 t b b;
#X obj 258 125 t b;
#X obj 174 209 f \$1;
#X obj 174 245 pack 0 \$2;
#X msg 125 245 0;
#X obj 337 145 inlet;
#X obj 377 145 inlet;
#X obj 421 145 inlet;
#X obj 461 145 inlet;
#X obj 314 239 del \$2;
#X obj 314 265 f \$4;
#X obj 390 268 * \$1;
#X obj 389 299 pack 0 \$3;
#X obj 472 301 pack 0 \$5;
#X obj 518 269 inlet;
#X obj 354 358 line~;
#X obj 354 386 outlet~;
#X obj 313 299 * 0.5;
#X connect 0 0 4 0;
#X connect 0 1 5 0;
#X connect 1 0 2 0;
#X connect 2 0 3 0;
#X connect 2 0 17 0;
#X connect 2 1 0 0;
#X connect 3 0 13 0;
#X connect 4 0 5 0;
#X connect 4 1 8 0;
#X connect 5 0 6 0;
#X connect 5 0 13 0;
#X connect 6 0 7 0;
#X connect 7 0 19 0;
#X connect 8 0 19 0;
#X connect 9 0 15 1;
#X connect 9 0 6 1;
#X connect 10 0 13 1;
#X connect 10 0 7 1;
#X connect 11 0 16 1;
#X connect 12 0 14 1;
#X connect 13 0 14 0;
#X connect 14 0 21 0;
#X connect 15 0 16 0;
#X connect 16 0 19 0;
#X connect 17 0 19 0;
#X connect 18 0 17 1;
#X connect 19 0 20 0;
#X connect 21 0 15 0;
#X restore 276 611 pd envelope_adsr;
#X msg 379 426 1;
#X obj 386 383 loadbang;
#X obj 250 510 tgl 15 0 empty empty empty 17 7 0 10 #fcfcfc #000000 #000000 0 1;
#X obj 257 392 bng 15 250 50 0 empty empty empty 17 7 0 10 #fcfcfc #000000 #000000;
#X msg 228 468 1;
#X msg 260 468 0;
#X msg 567 426 1800;
#X msg 416 425 50;
#X msg 460 424 100;
#X msg 524 424 0.25;
#X obj 260 435 del 50;
#X obj 139 383 phasor~;
#X connect 0 0 1 0;
#X connect 1 0 2 0;
#X connect 1 1 13 0;
#X connect 1 2 14 0;
#X connect 1 3 15 0;
#X connect 1 4 16 0;
#X connect 2 0 3 0;
#X connect 3 0 10 0;
#X connect 4 0 3 1;
#X connect 5 0 6 0;
#X connect 6 0 4 0;
#X connect 7 0 0 0;
#X connect 7 0 31 0;
#X connect 8 0 39 0;
#X connect 9 0 11 0;
#X connect 10 0 8 0;
#X connect 12 0 7 0;
#X connect 13 0 3 0;
#X connect 14 0 3 0;
#X connect 15 0 3 0;
#X connect 16 0 3 0;
#X connect 17 0 27 5;
#X connect 18 0 27 4;
#X connect 19 0 27 3;
#X connect 20 0 27 1;
#X connect 21 0 27 2;
#X connect 27 0 9 1;
#X connect 28 0 20 0;
#X connect 29 0 28 0;
#X connect 29 0 35 0;
#X connect 29 0 37 0;
#X connect 29 0 34 0;
#X connect 29 0 36 0;
#X connect 30 0 27 0;
#X connect 31 0 32 0;
#X connect 31 0 38 0;
#X connect 32 0 30 0;
#X connect 33 0 30 0;
#X connect 34 0 17 0;
#X connect 35 0 21 0;
#X connect 36 0 19 0;
#X connect 37 0 18 0;
#X connect 38 0 33 0;
#X connect 39 0 9 0;
#X restore 888 535 pd genPentatonic;
#N canvas 552 109 723 849 genPentatonic 0;
#X obj 75 77 random 5;
#X obj 75 111 select 0 1 2 3 4;
#X msg 70 160 0;
#X msg 192 160 7;
#X obj 145 253 + 0;
#X floatatom 311 173 5 0 0 0 - - - 0;
#X obj 311 120 loadbang;
#X msg 311 147 59;
#X obj 83 27 bng 15 250 50 0 empty empty empty 17 7 0 10 #fcfcfc #000000 #000000;
#X floatatom 139 334 5 0 0 0 - - - 0;
#X obj 134 721 *~;
#X obj 138 303 mtof;
#X obj 135 755 outlet~;
#X obj 83 1 inlet;
#X msg 109 160 3;
#X msg 151 159 5;
#X msg 238 161 10;
#X floatatom 450 577 5 0 0 0 - - - 0;
#X floatatom 431 548 5 0 0 0 - - - 0;
#X floatatom 414 523 5 0 0 0 - - - 0;
#X floatatom 379 476 5 0 0 0 - - - 0;
#X floatatom 397 501 5 0 0 0 - - - 0;
#X text 417 474 peak level;
#X text 438 496 attack duration (ms);
#X text 452 518 decay duration (ms);
#X text 472 544 sustain level (% of peak);
#X text 484 574 release duration (ms);
#N canvas 251 52 707 458 envelope_adsr 0;
#X obj 209 53 moses;
#X obj 112 56 inlet;
#X obj 112 92 sel 0;
#X msg 111 130 stop;
#X obj 209 93 t b b;
#X obj 258 125 t b;
#X obj 174 209 f \$1;
#X obj 174 245 pack 0 \$2;
#X msg 125 245 0;
#X obj 337 145 inlet;
#X obj 377 145 inlet;
#X obj 421 145 inlet;
#X obj 461 145 inlet;
#X obj 314 239 del \$2;
#X obj 314 265 f \$4;
#X obj 390 268 * \$1;
#X obj 389 299 pack 0 \$3;
#X obj 472 301 pack 0 \$5;
#X obj 518 269 inlet;
#X obj 354 358 line~;
#X obj 354 386 outlet~;
#X obj 313 299 * 0.5;
#X connect 0 0 4 0;
#X connect 0 1 5 0;
#X connect 1 0 2 0;
#X connect 2 0 3 0;
#X connect 2 0 17 0;
#X connect 2 1 0 0;
#X connect 3 0 13 0;
#X connect 4 0 5 0;
#X connect 4 1 8 0;
#X connect 5 0 6 0;
#X connect 5 0 13 0;
#X connect 6 0 7 0;
#X connect 7 0 19 0;
#X connect 8 0 19 0;
#X connect 9 0 15 1;
#X connect 9 0 6 1;
#X connect 10 0 13 1;
#X connect 10 0 7 1;
#X connect 11 0 16 1;
#X connect 12 0 14 1;
#X connect 13 0 14 0;
#X connect 14 0 21 0;
#X connect 15 0 16 0;
#X connect 16 0 19 0;
#X connect 17 0 19 0;
#X connect 18 0 17 1;
#X connect 19 0 20 0;
#X connect 21 0 15 0;
#X restore 356 615 pd envelope_adsr;
#X msg 459 430 1;
#X obj 466 387 loadbang;
#X obj 330 514 tgl 15 0 empty empty empty 17 7 0 10 #fcfcfc #000000 #000000 0 1;
#X obj 337 396 bng 15 250 50 0 empty empty empty 17 7 0 10 #fcfcfc #000000 #000000;
#X msg 308 472 1;
#X msg 340 472 0;
#X msg 664 434 1800;
#X msg 496 429 50;
#X msg 540 433 100;
#X obj 179 456 * 1.5;
#X obj 231 456 * 3;
#X msg 621 432 0.25;
#X obj 340 439 del 50;
#X obj 127 488 phasor~;
#X obj 177 488 phasor~;
#X obj 229 487 phasor~;
#X connect 0 0 1 0;
#X connect 1 0 2 0;
#X connect 1 1 14 0;
#X connect 1 2 15 0;
#X connect 1 3 3 0;
#X connect 1 4 16 0;
#X connect 2 0 4 0;
#X connect 3 0 4 0;
#X connect 4 0 11 0;
#X connect 5 0 4 1;
#X connect 6 0 7 0;
#X connect 7 0 5 0;
#X connect 8 0 0 0;
#X connect 8 0 31 0;
#X connect 9 0 37 0;
#X connect 9 0 38 0;
#X connect 9 0 41 0;
#X connect 10 0 12 0;
#X connect 11 0 9 0;
#X connect 13 0 8 0;
#X connect 14 0 4 0;
#X connect 15 0 4 0;
#X connect 16 0 4 0;
#X connect 17 0 27 5;
#X connect 18 0 27 4;
#X connect 19 0 27 3;
#X connect 20 0 27 1;
#X connect 21 0 27 2;
#X connect 27 0 10 1;
#X connect 28 0 20 0;
#X connect 29 0 28 0;
#X connect 29 0 35 0;
#X connect 29 0 39 0;
#X connect 29 0 34 0;
#X connect 29 0 36 0;
#X connect 30 0 27 0;
#X connect 31 0 32 0;
#X connect 31 0 40 0;
#X connect 32 0 30 0;
#X connect 33 0 30 0;
#X connect 34 0 17 0;
#X connect 35 0 21 0;
#X connect 36 0 19 0;
#X connect 37 0 42 0;
#X connect 38 0 43 0;
#X connect 39 0 18 0;
#X connect 40 0 33 0;
#X connect 41 0 10 0;
#X connect 42 0 10 0;
#X connect 43 0 10 0;
#X restore 1012 534 pd genPentatonic;
#N canvas 391 306 805 543 genPentatonic 0;
#X obj 75 77 random 5;
#X obj 75 111 select 0 1 2 3 4;
#X msg 70 160 0;
#X msg 192 160 7;
#X obj 145 253 + 0;
#X floatatom 311 173 5 0 0 0 - - - 0;
#X obj 311 120 loadbang;
#X msg 311 147 59;
#X obj 83 27 bng 15 250 50 0 empty empty empty 17 7 0 10 #fcfcfc #000000 #000000;
#X floatatom 139 334 5 0 0 0 - - - 0;
#X obj 137 734 *~;
#X obj 138 303 mtof;
#X obj 138 768 outlet~;
#X obj 83 1 inlet;
#X msg 109 160 3;
#X msg 151 160 5;
#X msg 238 161 10;
#X floatatom 392 552 5 0 0 0 - - - 0;
#X floatatom 373 523 5 0 0 0 - - - 0;
#X floatatom 356 498 5 0 0 0 - - - 0;
#X floatatom 321 451 5 0 0 0 - - - 0;
#X floatatom 339 476 5 0 0 0 - - - 0;
#X text 359 449 peak level;
#X text 380 471 attack duration (ms);
#X text 394 493 decay duration (ms);
#X text 414 519 sustain level (% of peak);
#X text 426 549 release duration (ms);
#N canvas 251 52 707 458 envelope_adsr 0;
#X obj 209 53 moses;
#X obj 112 56 inlet;
#X obj 112 92 sel 0;
#X msg 111 130 stop;
#X obj 209 93 t b b;
#X obj 258 125 t b;
#X obj 174 209 f \$1;
#X obj 174 245 pack 0 \$2;
#X msg 125 245 0;
#X obj 337 145 inlet;
#X obj 377 145 inlet;
#X obj 421 145 inlet;
#X obj 461 145 inlet;
#X obj 314 239 del \$2;
#X obj 314 265 f \$4;
#X obj 390 268 * \$1;
#X obj 389 299 pack 0 \$3;
#X obj 472 301 pack 0 \$5;
#X obj 518 269 inlet;
#X obj 354 358 line~;
#X obj 354 386 outlet~;
#X obj 313 299 * 0.5;
#X connect 0 0 4 0;
#X connect 0 1 5 0;
#X connect 1 0 2 0;
#X connect 2 0 3 0;
#X connect 2 0 17 0;
#X connect 2 1 0 0;
#X connect 3 0 13 0;
#X connect 4 0 5 0;
#X connect 4 1 8 0;
#X connect 5 0 6 0;
#X connect 5 0 13 0;
#X connect 6 0 7 0;
#X connect 7 0 19 0;
#X connect 8 0 19 0;
#X connect 9 0 15 1;
#X connect 9 0 6 1;
#X connect 10 0 13 1;
#X connect 10 0 7 1;
#X connect 11 0 16 1;
#X connect 12 0 14 1;
#X connect 13 0 14 0;
#X connect 14 0 21 0;
#X connect 15 0 16 0;
#X connect 16 0 19 0;
#X connect 17 0 19 0;
#X connect 18 0 17 1;
#X connect 19 0 20 0;
#X connect 21 0 15 0;
#X restore 298 590 pd envelope_adsr;
#X msg 401 405 1;
#X obj 408 362 loadbang;
#X obj 272 489 tgl 15 0 empty empty empty 17 7 0 10 #fcfcfc #000000 #000000 0 1;
#X obj 279 371 bng 15 250 50 0 empty empty empty 17 7 0 10 #fcfcfc #000000 #000000;
#X msg 250 447 1;
#X msg 282 447 0;
#X msg 568 406 1800;
#X msg 438 404 50;
#X msg 481 406 100;
#X msg 525 404 0.25;
#X obj 282 414 del 50;
#X obj 134 484 phasor~;
#X connect 0 0 1 0;
#X connect 1 0 2 0;
#X connect 1 1 14 0;
#X connect 1 2 15 0;
#X connect 1 3 3 0;
#X connect 1 4 16 0;
#X connect 2 0 4 0;
#X connect 3 0 4 0;
#X connect 4 0 11 0;
#X connect 5 0 4 1;
#X connect 6 0 7 0;
#X connect 7 0 5 0;
#X connect 8 0 0 0;
#X connect 8 0 31 0;
#X connect 9 0 39 0;
#X connect 10 0 12 0;
#X connect 11 0 9 0;
#X connect 13 0 8 0;
#X connect 14 0 4 0;
#X connect 15 0 4 0;
#X connect 16 0 4 0;
#X connect 17 0 27 5;
#X connect 18 0 27 4;
#X connect 19 0 27 3;
#X connect 20 0 27 1;
#X connect 21 0 27 2;
#X connect 27 0 10 1;
#X connect 28 0 20 0;
#X connect 29 0 28 0;
#X connect 29 0 35 0;
#X connect 29 0 37 0;
#X connect 29 0 34 0;
#X connect 29 0 36 0;
#X connect 30 0 27 0;
#X connect 31 0 32 0;
#X connect 31 0 38 0;
#X connect 32 0 30 0;
#X connect 33 0 30 0;
#X connect 34 0 17 0;
#X connect 35 0 21 0;
#X connect 36 0 19 0;
#X connect 37 0 18 0;
#X connect 38 0 33 0;
#X connect 39 0 10 0;
#X restore 1134 535 pd genPentatonic;
#N canvas 429 689 450 395 seq1 0;
#X obj 63 28 inlet;
#X obj 108 314 outlet;
#X obj 113 278 + 0;
#X obj 77 64 f;
#X obj 120 66 + 1;
#X obj 98 131 select 0 1 2 3;
#X floatatom 260 216 5 0 0 0 - - - 0;
#X obj 260 163 loadbang;
#X obj 97 99 mod 4;
#X msg 71 184 0;
#X msg 260 190 35;
#X msg 110 184 -5;
#X msg 151 184 0;
#X msg 194 184 3;
#X connect 0 0 3 0;
#X connect 2 0 1 0;
#X connect 3 0 4 0;
#X connect 3 0 8 0;
#X connect 4 0 3 1;
#X connect 5 0 9 0;
#X connect 5 1 11 0;
#X connect 5 2 12 0;
#X connect 5 3 13 0;
#X connect 6 0 2 1;
#X connect 7 0 10 0;
#X connect 8 0 5 0;
#X connect 9 0 2 0;
#X connect 10 0 6 0;
#X connect 11 0 2 0;
#X connect 12 0 2 0;
#X connect 13 0 2 0;
#X restore 99 552 pd seq1;
#N canvas 0 23 450 395 seq2 0;
#X obj 63 28 inlet;
#X obj 102 356 outlet;
#X obj 123 287 + 0;
#X obj 87 73 f;
#X obj 130 75 + 1;
#X obj 108 140 select 0 1 2 3;
#X floatatom 270 225 5 0 0 0 - - - 0;
#X obj 270 172 loadbang;
#X obj 107 108 mod 4;
#X msg 270 199 35;
#X msg 81 193 -2;
#X msg 120 193 0;
#X msg 161 193 3;
#X msg 204 193 5;
#X connect 0 0 3 0;
#X connect 2 0 1 0;
#X connect 3 0 4 0;
#X connect 3 0 8 0;
#X connect 4 0 3 1;
#X connect 5 0 10 0;
#X connect 5 1 11 0;
#X connect 5 2 12 0;
#X connect 5 3 13 0;
#X connect 6 0 2 1;
#X connect 7 0 9 0;
#X connect 8 0 5 0;
#X connect 9 0 6 0;
#X connect 10 0 2 0;
#X connect 11 0 2 0;
#X connect 12 0 2 0;
#X connect 13 0 2 0;
#X restore 177 551 pd seq2;
#N canvas 0 23 450 395 seq3 0;
#X obj 63 28 inlet;
#X obj 102 356 outlet;
#X obj 103 288 + 0;
#X obj 67 74 f;
#X obj 110 76 + 1;
#X floatatom 304 225 5 0 0 0 - - - 0;
#X obj 304 172 loadbang;
#X msg 304 199 35;
#X msg 61 194 8;
#X msg 100 194 7;
#X msg 141 194 5;
#X msg 184 194 7;
#X obj 88 141 select 0 1 2 3 4;
#X msg 229 195 0;
#X obj 87 109 mod 5;
#X connect 0 0 3 0;
#X connect 2 0 1 0;
#X connect 3 0 4 0;
#X connect 3 0 14 0;
#X connect 4 0 3 1;
#X connect 5 0 2 1;
#X connect 6 0 7 0;
#X connect 7 0 5 0;
#X connect 8 0 2 0;
#X connect 9 0 2 0;
#X connect 10 0 2 0;
#X connect 11 0 2 0;
#X connect 12 0 8 0;
#X connect 12 1 9 0;
#X connect 12 2 10 0;
#X connect 12 3 11 0;
#X connect 12 4 13 0;
#X connect 13 0 2 0;
#X connect 14 0 12 0;
#X restore 251 551 pd seq3;
#X floatatom 147 404 5 0 0 0 - - - 0;
#X obj 147 436 select 1 2 3;
#X msg 197 302 1;
#X msg 233 301 2;
#X msg 270 301 3;
#X obj 147 375 + 1;
#X floatatom 192 346 5 0 0 0 - - - 0;
#X msg 148 343 0;
#X text 312 553 Different Sequences to cycle through;
#X text 265 208 Probability based trigger;
#X text 242 347 Route the trigger through 1 of 3 sequence options;
#N canvas 698 217 617 673 orhestration1 0;
#X obj 144 21 inlet;
#X obj 101 609 outlet~;
#X obj 138 168 phasor~;
#X floatatom 144 114 5 0 0 0 - - - 0;
#X obj 79 163 osc~;
#X obj 82 135 * 1.5;
#X obj 146 75 t b f;
#X obj 142 506 *~;
#X text 190 22 Frequency input;
#X text 154 611 audio output;
#X floatatom 374 383 5 0 0 0 - - - 0;
#X floatatom 355 354 5 0 0 0 - - - 0;
#X floatatom 338 329 5 0 0 0 - - - 0;
#X floatatom 303 282 5 0 0 0 - - - 0;
#X floatatom 321 307 5 0 0 0 - - - 0;
#X text 341 280 peak level;
#X text 362 302 attack duration (ms);
#X text 376 324 decay duration (ms);
#X text 396 350 sustain level (% of peak);
#X text 408 380 release duration (ms);
#N canvas 251 52 707 458 envelope_adsr 0;
#X obj 209 53 moses;
#X obj 112 56 inlet;
#X obj 112 92 sel 0;
#X msg 111 130 stop;
#X obj 209 93 t b b;
#X obj 258 125 t b;
#X obj 174 209 f \$1;
#X obj 174 245 pack 0 \$2;
#X msg 125 245 0;
#X obj 337 145 inlet;
#X obj 377 145 inlet;
#X obj 421 145 inlet;
#X obj 461 145 inlet;
#X obj 314 239 del \$2;
#X obj 314 265 f \$4;
#X obj 390 268 * \$1;
#X obj 389 299 pack 0 \$3;
#X obj 472 301 pack 0 \$5;
#X obj 518 269 inlet;
#X obj 354 358 line~;
#X obj 354 386 outlet~;
#X obj 313 299 * 0.5;
#X connect 0 0 4 0;
#X connect 0 1 5 0;
#X connect 1 0 2 0;
#X connect 2 0 3 0;
#X connect 2 0 17 0;
#X connect 2 1 0 0;
#X connect 3 0 13 0;
#X connect 4 0 5 0;
#X connect 4 1 8 0;
#X connect 5 0 6 0;
#X connect 5 0 13 0;
#X connect 6 0 7 0;
#X connect 7 0 19 0;
#X connect 8 0 19 0;
#X connect 9 0 15 1;
#X connect 9 0 6 1;
#X connect 10 0 13 1;
#X connect 10 0 7 1;
#X connect 11 0 16 1;
#X connect 12 0 14 1;
#X connect 13 0 14 0;
#X connect 14 0 21 0;
#X connect 15 0 16 0;
#X connect 16 0 19 0;
#X connect 17 0 19 0;
#X connect 18 0 17 1;
#X connect 19 0 20 0;
#X connect 21 0 15 0;
#X restore 280 421 pd envelope_adsr;
#X msg 383 236 1;
#X obj 390 193 loadbang;
#X obj 254 320 tgl 15 0 empty empty empty 17 7 0 10 #fcfcfc #000000 #000000 0 1;
#X obj 261 202 bng 15 250 50 0 empty empty empty 17 7 0 10 #fcfcfc #000000 #000000;
#X msg 232 278 1;
#X msg 264 278 0;
#X msg 500 236 1;
#X msg 543 238 700;
#X msg 453 238 1;
#N canvas 1026 414 479 474 distortion 0;
#X obj 147 32 inlet~;
#X obj 159 351 outlet~;
#N canvas 0 23 713 460 tanh 0;
#X obj 241 65 inlet~;
#X text 493 89 __;
#X text 575 89 __;
#X text 527 89 __;
#X text 626 89 __;
#X text 493 106 1 +;
#X text 529 106 3 +;
#X text 577 106 5 +;
#X text 627 106 7 +;
#X text 443 32 As a continued fraction;
#X obj 240 148 *~;
#X obj 165 265 /~;
#X obj 165 350 /~;
#X obj 165 288 /~;
#X obj 165 321 /~;
#X text 427 78 tanh(z) = z z^2 4z^2 9z^2 ...;
#X obj 292 175 *~ 4;
#X obj 291 206 +~ 3;
#X obj 335 174 *~ 9;
#X obj 334 205 +~ 5;
#X obj 375 175 *~ 16;
#X obj 374 205 +~ 7;
#X obj 240 206 +~ 1;
#X obj 165 401 outlet~;
#X obj 165 372 *~ 576;
#X text 276 114 1/pi;
#X obj 241 89 *~ 0.30831;
#X connect 0 0 26 0;
#X connect 10 0 16 0;
#X connect 10 0 18 0;
#X connect 10 0 20 0;
#X connect 10 0 22 0;
#X connect 11 0 13 0;
#X connect 12 0 24 0;
#X connect 13 0 14 0;
#X connect 14 0 12 0;
#X connect 16 0 17 0;
#X connect 17 0 13 1;
#X connect 18 0 19 0;
#X connect 19 0 14 1;
#X connect 20 0 21 0;
#X connect 21 0 12 1;
#X connect 22 0 11 1;
#X connect 24 0 23 0;
#X connect 26 0 10 1;
#X connect 26 0 10 0;
#X connect 26 0 11 0;
#X restore 238 187 pd tanh afarnell;
#X obj 232 142 *~ 4.5;
#X obj 122 229 *~ 0.75;
#X obj 244 243 *~ 0.25;
#X connect 0 0 3 0;
#X connect 0 0 4 0;
#X connect 2 0 5 0;
#X connect 3 0 2 0;
#X connect 4 0 1 0;
#X connect 5 0 1 0;
#X restore 124 549 pd distortion;
#X msg 420 236 100;
#X obj 264 245 del 100;
#X obj 140 208 *~ 2;
#X obj 140 234 -~ 1;
#X obj 141 143 * 1;
#X connect 0 0 6 0;
#X connect 2 0 33 0;
#X connect 3 0 5 0;
#X connect 3 0 35 0;
#X connect 4 0 7 0;
#X connect 5 0 4 0;
#X connect 6 0 24 0;
#X connect 6 1 3 0;
#X connect 7 0 30 0;
#X connect 10 0 20 5;
#X connect 11 0 20 4;
#X connect 12 0 20 3;
#X connect 13 0 20 1;
#X connect 14 0 20 2;
#X connect 20 0 7 1;
#X connect 21 0 13 0;
#X connect 22 0 21 0;
#X connect 22 0 31 0;
#X connect 22 0 27 0;
#X connect 22 0 28 0;
#X connect 22 0 29 0;
#X connect 23 0 20 0;
#X connect 24 0 25 0;
#X connect 24 0 32 0;
#X connect 25 0 23 0;
#X connect 26 0 23 0;
#X connect 27 0 11 0;
#X connect 28 0 10 0;
#X connect 29 0 12 0;
#X connect 30 0 1 0;
#X connect 31 0 14 0;
#X connect 32 0 26 0;
#X connect 33 0 34 0;
#X connect 34 0 7 0;
#X connect 35 0 2 0;
#X restore 63 950 pd orhestration1;
#X obj 169 778 pack \$1 \$2;
#X floatatom 64 928 5 0 0 0 - - - 0;
#X floatatom 201 925 5 0 0 0 - - - 0;
#X msg 260 675 2;
#X msg 291 675 3;
#X floatatom 219 720 5 0 0 0 - - - 0;
#X obj 172 674 t b f;
#X obj 168 810 route 0 1 2 3;
#X msg 224 676 1;
#N canvas 631 69 571 808 orhestration2 0;
#X obj 144 21 inlet;
#X obj 154 783 outlet~;
#X floatatom 144 153 5 0 0 0 - - - 0;
#X obj 84 231 osc~;
#X obj 146 114 t b f;
#X obj 157 650 *~;
#X text 190 22 Frequency input;
#X obj 143 235 osc~;
#X obj 21 237 osc~;
#X obj 87 203 * 2;
#X obj 148 76 * 2;
#X obj 23 264 *~ 0.5;
#X floatatom 380 413 5 0 0 0 - - - 0;
#X floatatom 361 384 5 0 0 0 - - - 0;
#X floatatom 344 359 5 0 0 0 - - - 0;
#X floatatom 309 312 5 0 0 0 - - - 0;
#X floatatom 327 337 5 0 0 0 - - - 0;
#X text 347 310 peak level;
#X text 368 332 attack duration (ms);
#X text 382 354 decay duration (ms);
#X text 402 380 sustain level (% of peak);
#X text 414 410 release duration (ms);
#N canvas 251 52 707 458 envelope_adsr 0;
#X obj 209 53 moses;
#X obj 112 56 inlet;
#X obj 112 92 sel 0;
#X msg 111 130 stop;
#X obj 209 93 t b b;
#X obj 258 125 t b;
#X obj 174 209 f \$1;
#X obj 174 245 pack 0 \$2;
#X msg 125 245 0;
#X obj 337 145 inlet;
#X obj 377 145 inlet;
#X obj 421 145 inlet;
#X obj 461 145 inlet;
#X obj 314 239 del \$2;
#X obj 314 265 f \$4;
#X obj 390 268 * \$1;
#X obj 389 299 pack 0 \$3;
#X obj 472 301 pack 0 \$5;
#X obj 518 269 inlet;
#X obj 354 358 line~;
#X obj 354 386 outlet~;
#X obj 313 299 * 0.5;
#X connect 0 0 4 0;
#X connect 0 1 5 0;
#X connect 1 0 2 0;
#X connect 2 0 3 0;
#X connect 2 0 17 0;
#X connect 2 1 0 0;
#X connect 3 0 13 0;
#X connect 4 0 5 0;
#X connect 4 1 8 0;
#X connect 5 0 6 0;
#X connect 5 0 13 0;
#X connect 6 0 7 0;
#X connect 7 0 19 0;
#X connect 8 0 19 0;
#X connect 9 0 15 1;
#X connect 9 0 6 1;
#X connect 10 0 13 1;
#X connect 10 0 7 1;
#X connect 11 0 16 1;
#X connect 12 0 14 1;
#X connect 13 0 14 0;
#X connect 14 0 21 0;
#X connect 15 0 16 0;
#X connect 16 0 19 0;
#X connect 17 0 19 0;
#X connect 18 0 17 1;
#X connect 19 0 20 0;
#X connect 21 0 15 0;
#X restore 286 451 pd envelope_adsr;
#X msg 389 266 1;
#X obj 396 223 loadbang;
#X obj 260 350 tgl 15 0 empty empty empty 17 7 0 10 #fcfcfc #000000 #000000 0 1;
#X obj 267 232 bng 15 250 50 0 empty empty empty 17 7 0 10 #fcfcfc #000000 #000000;
#X msg 238 308 1;
#X msg 270 308 0;
#X msg 459 268 1;
#X msg 506 266 1;
#X msg 549 268 700;
#N canvas 270 86 1178 553 chorus 0;
#X obj 221 106 osc~ 0.05;
#X obj 221 131 *~ 10;
#X obj 376 130 *~ 10;
#X obj 221 156 +~ 11;
#X obj 376 155 +~ 21;
#X obj 376 105 osc~ 0.08;
#X obj 511 135 *~ 10;
#X obj 511 110 osc~ 0.13;
#X obj 511 160 +~ 13;
#X obj 694 142 *~ 10;
#X obj 694 167 +~ 55;
#X obj 694 117 osc~ 0.03;
#X obj 839 168 +~ 87;
#X obj 839 118 osc~ 0.015;
#X obj 985 114 osc~ 0.12;
#X obj 985 164 +~ 67;
#X obj 985 139 *~ 5;
#X obj 839 143 *~ 15;
#X obj 61 145 nbx 5 14 -1e+37 1e+37 0 0 empty empty empty 0 -8 0 10 #fcfcfc #000000 #000000 0 256;
#X obj 22 92 inlet~;
#X obj 532 418 outlet~;
#X obj 630 416 outlet~;
#X obj 271 269 *~ 0.05;
#X obj 214 270 *~ 0.95;
#X obj 1032 261 *~ 0.95;
#X obj 975 262 *~ 0.05;
#X obj 884 262 *~ 0.85;
#X obj 368 266 *~ 0.85;
#X obj 498 267 *~ 0.7;
#X obj 744 263 *~ 0.7;
#X obj 827 263 *~ 0.15;
#X obj 687 264 *~ 0.3;
#X obj 555 266 *~ 0.3;
#X obj 425 265 *~ 0.15;
#X obj 222 221 /~ 6;
#X obj 375 224 /~ 6;
#X obj 512 221 /~ 6;
#X obj 696 226 /~ 6;
#X obj 841 224 /~ 6;
#X obj 988 225 /~ 6;
#X obj 23 172 *~ 1;
#X obj 23 259 delwrite~ delay2 1000;
#X obj 221 184 vd~ delay2;
#X obj 376 183 vd~ delay2;
#X obj 511 188 vd~ delay2;
#X obj 694 195 vd~ delay2;
#X obj 839 196 vd~ delay2;
#X obj 985 192 vd~ delay2;
#X connect 0 0 1 0;
#X connect 1 0 3 0;
#X connect 2 0 4 0;
#X connect 3 0 42 0;
#X connect 4 0 43 0;
#X connect 5 0 2 0;
#X connect 6 0 8 0;
#X connect 7 0 6 0;
#X connect 8 0 44 0;
#X connect 9 0 10 0;
#X connect 10 0 45 0;
#X connect 11 0 9 0;
#X connect 12 0 46 0;
#X connect 13 0 17 0;
#X connect 14 0 16 0;
#X connect 15 0 47 0;
#X connect 16 0 15 0;
#X connect 17 0 12 0;
#X connect 18 0 40 1;
#X connect 19 0 40 0;
#X connect 22 0 21 0;
#X connect 23 0 20 0;
#X connect 24 0 21 0;
#X connect 25 0 20 0;
#X connect 26 0 21 0;
#X connect 27 0 20 0;
#X connect 28 0 20 0;
#X connect 29 0 21 0;
#X connect 30 0 20 0;
#X connect 31 0 20 0;
#X connect 32 0 21 0;
#X connect 33 0 21 0;
#X connect 34 0 23 0;
#X connect 34 0 22 0;
#X connect 35 0 27 0;
#X connect 35 0 33 0;
#X connect 36 0 28 0;
#X connect 36 0 32 0;
#X connect 37 0 29 0;
#X connect 37 0 31 0;
#X connect 38 0 26 0;
#X connect 38 0 30 0;
#X connect 39 0 24 0;
#X connect 39 0 25 0;
#X connect 40 0 41 0;
#X connect 42 0 34 0;
#X connect 43 0 35 0;
#X connect 44 0 36 0;
#X connect 45 0 37 0;
#X connect 46 0 38 0;
#X connect 47 0 39 0;
#X restore 155 711 pd chorus;
#N canvas 70 339 447 447 xpand 0;
#X obj 77 49 inlet~;
#X obj 178 50 inlet~;
#X obj 131 110 +~;
#X obj 126 149 /~ 2;
#X obj 78 182 -~;
#X obj 173 182 -~;
#X obj 74 231 *~ 0;
#X obj 174 226 *~ 0;
#X obj 171 338 outlet~;
#X obj 71 337 outlet~;
#X floatatom 284 114 5 0 0 0 - - - 0;
#X obj 285 64 loadbang;
#X msg 288 90 2;
#X connect 0 0 2 0;
#X connect 0 0 4 0;
#X connect 1 0 2 1;
#X connect 1 0 5 1;
#X connect 2 0 3 0;
#X connect 3 0 4 1;
#X connect 3 0 5 0;
#X connect 3 0 8 0;
#X connect 3 0 9 0;
#X connect 4 0 6 0;
#X connect 5 0 7 0;
#X connect 6 0 9 0;
#X connect 7 0 8 0;
#X connect 10 0 7 1;
#X connect 10 0 6 1;
#X connect 11 0 12 0;
#X connect 12 0 10 0;
#X restore 169 753 pd xpand;
#X obj 236 781 outlet~;
#X obj 270 275 del 10;
#X msg 426 266 25;
#X obj 25 201 * 4;
#N canvas 1026 414 479 474 distortion 0;
#X obj 147 32 inlet~;
#X obj 159 351 outlet~;
#N canvas 0 23 713 460 tanh 0;
#X obj 241 65 inlet~;
#X text 493 89 __;
#X text 575 89 __;
#X text 527 89 __;
#X text 626 89 __;
#X text 493 106 1 +;
#X text 529 106 3 +;
#X text 577 106 5 +;
#X text 627 106 7 +;
#X text 443 32 As a continued fraction;
#X obj 240 148 *~;
#X obj 165 265 /~;
#X obj 165 350 /~;
#X obj 165 288 /~;
#X obj 165 321 /~;
#X text 427 78 tanh(z) = z z^2 4z^2 9z^2 ...;
#X obj 292 175 *~ 4;
#X obj 291 206 +~ 3;
#X obj 335 174 *~ 9;
#X obj 334 205 +~ 5;
#X obj 375 175 *~ 16;
#X obj 374 205 +~ 7;
#X obj 240 206 +~ 1;
#X obj 165 401 outlet~;
#X obj 165 372 *~ 576;
#X text 276 114 1/pi;
#X obj 241 89 *~ 0.30831;
#X connect 0 0 26 0;
#X connect 10 0 16 0;
#X connect 10 0 18 0;
#X connect 10 0 20 0;
#X connect 10 0 22 0;
#X connect 11 0 13 0;
#X connect 12 0 24 0;
#X connect 13 0 14 0;
#X connect 14 0 12 0;
#X connect 16 0 17 0;
#X connect 17 0 13 1;
#X connect 18 0 19 0;
#X connect 19 0 14 1;
#X connect 20 0 21 0;
#X connect 21 0 12 1;
#X connect 22 0 11 1;
#X connect 24 0 23 0;
#X connect 26 0 10 1;
#X connect 26 0 10 0;
#X connect 26 0 11 0;
#X restore 238 187 pd tanh afarnell;
#X obj 245 243 *~ 0.25;
#X obj 121 229 *~ 0.75;
#X obj 233 142 *~ 5;
#X connect 0 0 4 0;
#X connect 0 0 5 0;
#X connect 2 0 3 0;
#X connect 3 0 1 0;
#X connect 4 0 1 0;
#X connect 5 0 2 0;
#X restore 158 677 pd distortion;
#X connect 0 0 10 0;
#X connect 2 0 7 0;
#X connect 2 0 9 0;
#X connect 2 0 37 0;
#X connect 3 0 5 0;
#X connect 4 0 26 0;
#X connect 4 1 2 0;
#X connect 5 0 38 0;
#X connect 7 0 5 0;
#X connect 8 0 11 0;
#X connect 9 0 3 0;
#X connect 10 0 4 0;
#X connect 11 0 5 0;
#X connect 12 0 22 5;
#X connect 13 0 22 4;
#X connect 14 0 22 3;
#X connect 15 0 22 1;
#X connect 16 0 22 2;
#X connect 22 0 5 1;
#X connect 23 0 15 0;
#X connect 24 0 23 0;
#X connect 24 0 36 0;
#X connect 24 0 30 0;
#X connect 24 0 31 0;
#X connect 24 0 29 0;
#X connect 25 0 22 0;
#X connect 26 0 27 0;
#X connect 26 0 35 0;
#X connect 27 0 25 0;
#X connect 28 0 25 0;
#X connect 29 0 14 0;
#X connect 30 0 13 0;
#X connect 31 0 12 0;
#X connect 32 0 33 0;
#X connect 32 1 33 1;
#X connect 33 0 1 0;
#X connect 33 1 34 0;
#X connect 35 0 28 0;
#X connect 36 0 16 0;
#X connect 37 0 8 0;
#X connect 38 0 32 0;
#X restore 201 948 pd orhestration2;
#X floatatom 380 925 5 0 0 0 - - - 0;
#N canvas 776 114 623 892 orhestration3 0;
#X obj 144 21 inlet;
#X obj 118 852 outlet~;
#X floatatom 144 153 5 0 0 0 - - - 0;
#X obj 146 114 t b f;
#X obj 126 728 *~;
#X text 190 22 Frequency input;
#X text 176 848 audio output;
#X obj 144 232 phasor~;
#X obj 84 231 phasor~;
#X obj 87 202 * 1.5;
#X obj 36 234 osc~;
#X obj 37 202 * 0.5;
#X obj 148 76 * 2;
#X obj 83 326 *~ 0.5;
#X floatatom 354 489 5 0 0 0 - - - 0;
#X floatatom 335 460 5 0 0 0 - - - 0;
#X floatatom 318 435 5 0 0 0 - - - 0;
#X floatatom 283 388 5 0 0 0 - - - 0;
#X floatatom 301 413 5 0 0 0 - - - 0;
#X text 321 386 peak level;
#X text 342 408 attack duration (ms);
#X text 356 430 decay duration (ms);
#X text 376 456 sustain level (% of peak);
#X text 388 486 release duration (ms);
#N canvas 251 52 707 458 envelope_adsr 0;
#X obj 209 53 moses;
#X obj 112 56 inlet;
#X obj 112 92 sel 0;
#X msg 111 130 stop;
#X obj 209 93 t b b;
#X obj 258 125 t b;
#X obj 174 209 f \$1;
#X obj 174 245 pack 0 \$2;
#X msg 125 245 0;
#X obj 337 145 inlet;
#X obj 377 145 inlet;
#X obj 421 145 inlet;
#X obj 461 145 inlet;
#X obj 314 239 del \$2;
#X obj 314 265 f \$4;
#X obj 390 268 * \$1;
#X obj 389 299 pack 0 \$3;
#X obj 472 301 pack 0 \$5;
#X obj 518 269 inlet;
#X obj 354 358 line~;
#X obj 354 386 outlet~;
#X obj 313 299 * 0.5;
#X connect 0 0 4 0;
#X connect 0 1 5 0;
#X connect 1 0 2 0;
#X connect 2 0 3 0;
#X connect 2 0 17 0;
#X connect 2 1 0 0;
#X connect 3 0 13 0;
#X connect 4 0 5 0;
#X connect 4 1 8 0;
#X connect 5 0 6 0;
#X connect 5 0 13 0;
#X connect 6 0 7 0;
#X connect 7 0 19 0;
#X connect 8 0 19 0;
#X connect 9 0 15 1;
#X connect 9 0 6 1;
#X connect 10 0 13 1;
#X connect 10 0 7 1;
#X connect 11 0 16 1;
#X connect 12 0 14 1;
#X connect 13 0 14 0;
#X connect 14 0 21 0;
#X connect 15 0 16 0;
#X connect 16 0 19 0;
#X connect 17 0 19 0;
#X connect 18 0 17 1;
#X connect 19 0 20 0;
#X connect 21 0 15 0;
#X restore 260 527 pd envelope_adsr;
#X msg 363 342 1;
#X obj 370 299 loadbang;
#X obj 234 426 tgl 15 0 empty empty empty 17 7 0 10 #fcfcfc #000000 #000000 0 1;
#X obj 241 308 bng 15 250 50 0 empty empty empty 17 7 0 10 #fcfcfc #000000 #000000;
#X msg 212 384 1;
#X msg 244 384 0;
#X msg 433 344 1;
#X msg 480 342 1;
#N canvas 124 135 364 640 flanger 0;
#X obj 75 208 +~ 1;
#X obj 75 235 *~ 0.5;
#X obj 74 417 vd~ \$0-delay1, f 16;
#X text 73 100 Low Frequency Oscillator;
#X text 203 263 Depth (ms);
#X obj 74 513 *~ 1;
#X text 87 546 y[n] = x[n] + ax[n-t];
#X text 163 487 Feedback (0-1);
#X obj 75 181 osc~ 1;
#X text 117 513 ax[n-t];
#X text 131 156 Rate (Hz);
#X obj 45 545 +~, f 4;
#X obj 75 294 *~ 1, f 9;
#X obj 74 377 +~ 0.001, f 11;
#X obj 51 18 inlet~;
#X obj 46 606 outlet~;
#X obj 79 63 delwrite~ \$0-delay1 5000;
#X obj 145 232 loadbang;
#X msg 138 261 0.818;
#X obj 147 314 loadbang;
#X msg 140 343 0.818;
#X obj 106 454 loadbang;
#X msg 99 483 0.897;
#X obj 84 126 loadbang;
#X msg 77 155 0.236;
#X connect 0 0 1 0;
#X connect 1 0 12 0;
#X connect 2 0 5 0;
#X connect 5 0 11 1;
#X connect 8 0 0 0;
#X connect 11 0 15 0;
#X connect 12 0 13 0;
#X connect 13 0 2 0;
#X connect 14 0 11 0;
#X connect 14 0 16 0;
#X connect 17 0 18 0;
#X connect 18 0 12 1;
#X connect 19 0 20 0;
#X connect 20 0 13 1;
#X connect 21 0 22 0;
#X connect 22 0 5 1;
#X connect 23 0 24 0;
#X connect 24 0 8 0;
#X restore 121 807 pd flanger;
#N canvas 1026 414 479 474 distortion 0;
#X obj 147 32 inlet~;
#X obj 159 351 outlet~;
#N canvas 0 23 713 460 tanh 0;
#X obj 241 65 inlet~;
#X text 493 89 __;
#X text 575 89 __;
#X text 527 89 __;
#X text 626 89 __;
#X text 493 106 1 +;
#X text 529 106 3 +;
#X text 577 106 5 +;
#X text 627 106 7 +;
#X text 443 32 As a continued fraction;
#X obj 240 148 *~;
#X obj 165 265 /~;
#X obj 165 350 /~;
#X obj 165 288 /~;
#X obj 165 321 /~;
#X text 427 78 tanh(z) = z z^2 4z^2 9z^2 ...;
#X obj 292 175 *~ 4;
#X obj 291 206 +~ 3;
#X obj 335 174 *~ 9;
#X obj 334 205 +~ 5;
#X obj 375 175 *~ 16;
#X obj 374 205 +~ 7;
#X obj 240 206 +~ 1;
#X obj 165 401 outlet~;
#X obj 165 372 *~ 576;
#X text 276 114 1/pi;
#X obj 241 89 *~ 0.30831;
#X connect 0 0 26 0;
#X connect 10 0 16 0;
#X connect 10 0 18 0;
#X connect 10 0 20 0;
#X connect 10 0 22 0;
#X connect 11 0 13 0;
#X connect 12 0 24 0;
#X connect 13 0 14 0;
#X connect 14 0 12 0;
#X connect 16 0 17 0;
#X connect 17 0 13 1;
#X connect 18 0 19 0;
#X connect 19 0 14 1;
#X connect 20 0 21 0;
#X connect 21 0 12 1;
#X connect 22 0 11 1;
#X connect 24 0 23 0;
#X connect 26 0 10 1;
#X connect 26 0 10 0;
#X connect 26 0 11 0;
#X restore 238 187 pd tanh afarnell;
#X obj 244 243 *~ 0.1;
#X obj 121 229 *~ 0.9;
#X obj 233 142 *~ 10.44;
#X connect 0 0 4 0;
#X connect 0 0 5 0;
#X connect 2 0 3 0;
#X connect 3 0 1 0;
#X connect 4 0 1 0;
#X connect 5 0 2 0;
#X restore 125 758 pd distortion;
#X obj 83 259 *~ 2;
#X obj 83 286 -~ 1;
#X obj 142 261 *~ 2;
#X obj 142 288 -~ 1;
#X msg 400 342 100;
#X msg 523 344 800;
#X obj 244 351 del 100;
#X connect 0 0 12 0;
#X connect 2 0 7 0;
#X connect 2 0 9 0;
#X connect 2 0 11 0;
#X connect 3 0 28 0;
#X connect 3 1 2 0;
#X connect 4 0 34 0;
#X connect 7 0 37 0;
#X connect 8 0 35 0;
#X connect 9 0 8 0;
#X connect 10 0 4 0;
#X connect 11 0 10 0;
#X connect 12 0 3 0;
#X connect 13 0 4 0;
#X connect 14 0 24 5;
#X connect 15 0 24 4;
#X connect 16 0 24 3;
#X connect 17 0 24 1;
#X connect 18 0 24 2;
#X connect 24 0 4 1;
#X connect 25 0 17 0;
#X connect 26 0 25 0;
#X connect 26 0 39 0;
#X connect 26 0 32 0;
#X connect 26 0 40 0;
#X connect 26 0 31 0;
#X connect 27 0 24 0;
#X connect 28 0 29 0;
#X connect 28 0 41 0;
#X connect 29 0 27 0;
#X connect 30 0 27 0;
#X connect 31 0 16 0;
#X connect 32 0 15 0;
#X connect 33 0 1 0;
#X connect 34 0 33 0;
#X connect 35 0 36 0;
#X connect 36 0 13 0;
#X connect 37 0 38 0;
#X connect 38 0 4 0;
#X connect 39 0 18 0;
#X connect 40 0 14 0;
#X connect 41 0 30 0;
#X restore 379 951 pd orhestration3;
#X text 263 721 Route to 1 of 3 different orchestrations;
#X text 491 955 Dffferent orchestrations to select from;
#X obj 262 127 loadbang;
#X obj 51 1076 *~;
#X floatatom 110 1038 5 0 0 0 - - - 0;
#X obj 84 1075 *~;
#X obj 364 1091 *~;
#X floatatom 428 1053 5 0 0 0 - - - 0;
#X obj 397 1090 *~;
#X obj 205 1096 *~;
#X floatatom 281 1063 5 0 0 0 - - - 0;
#X obj 239 1099 *~;
#X obj 961 927 *~;
#X obj 997 927 *~;
#X obj 430 1003 loadbang;
#X obj 284 1014 loadbang;
#X obj 113 986 loadbang;
#X obj 168 748 + 1;
#X msg 169 716 0;
#X obj 1475 111 r stinger @hv_event;
#X obj 297 7 r startstop @hv_event;
#X obj 314 153 r probBass @hv_param 0 0.75 0.2;
#X obj 313 302 r selectSeq @hv_param 1 3 1;
#X obj 334 675 r selectOrch @hv_param 1 3 1;
#X obj 1518 687 dac~;
#X obj 1506 653 *~;
#X floatatom 1563 612 5 0 0 0 - - - 0;
#X obj 1542 653 *~;
#X obj 1575 555 loadbang;
#N canvas 909 442 646 481 stereoReverb 0;
#X obj 122 375 outlet~;
#X obj 189 375 outlet~;
#X obj 125 30 inlet~;
#X obj 211 32 inlet~;
#X obj 143 237 rev3~ 100 90 3000 20;
#X text 377 176 crossover frequency \, Hz.;
#X obj 165 203 *~ -1;
#X text 305 112 output level (dB);
#X text 335 136 liveness \, feedback percentage (0-100), f 18;
#X text 392 203 High Frequency damping \, percentage (0-100), f 23;
#X obj 346 78 loadbang;
#X msg 337 174 5000;
#X msg 292 150 25;
#X msg 357 209 0;
#X msg 256 125 110;
#X connect 2 0 4 0;
#X connect 3 0 6 0;
#X connect 4 0 0 0;
#X connect 4 1 1 0;
#X connect 6 0 4 1;
#X connect 10 0 14 0;
#X connect 10 0 11 0;
#X connect 10 0 12 0;
#X connect 10 0 13 0;
#X connect 11 0 4 4;
#X connect 12 0 4 3;
#X connect 13 0 4 5;
#X connect 14 0 4 2;
#X restore 180 1284 pd stereoReverb;
#X msg 1573 579 0.6;
#X msg 428 1027 0.1;
#X msg 282 1038 0.75;
#X msg 111 1010 0.25;
#X obj 957 812 rev3~ 100 90 3000 20;
#X text 1191 751 crossover frequency \, Hz.;
#X obj 979 778 *~ -1;
#X text 1119 687 output level (dB);
#X text 1149 711 liveness \, feedback percentage (0-100), f 18;
#X text 1206 778 High Frequency damping \, percentage (0-100), f 23;
#X obj 1160 653 loadbang;
#X msg 1151 749 1000;
#X msg 1171 784 85;
#X obj 1500 501 rev3~ 100 90 3000 20;
#X text 1734 440 crossover frequency \, Hz.;
#X obj 1522 467 *~ -1;
#X text 1662 376 output level (dB);
#X text 1692 400 liveness \, feedback percentage (0-100), f 18;
#X text 1749 467 High Frequency damping \, percentage (0-100), f 23;
#X obj 1703 342 loadbang;
#X msg 1649 414 75;
#X msg 1714 473 85;
#X msg 1694 438 5000;
#X msg 1613 388 100;
#X msg 1070 699 100;
#X msg 253 151 0.35;
#X msg 1106 725 60;
#X obj 1019 186 loadbang;
#X msg 1019 207 0.5;
#X obj 1105 820 vsl 16 136 0 100 0 0 empty empty empty 0 -9 0 10 #feffc6 #000000 #000000 0 1;
#X floatatom 1171 899 5 0 0 0 - - - 0;
#X obj 1174 853 loadbang;
#X msg 1172 877 0.2;
#X obj 297 69 metro 250;
#N canvas 1327 335 450 300 Automatic 0;
#X restore 486 37 pd Automatic Bass;
#X connect 0 0 113 1;
#X connect 1 0 113 0;
#X connect 3 0 44 0;
#X connect 4 0 33 0;
#X connect 5 0 6 0;
#X connect 7 0 9 0;
#X connect 9 0 10 0;
#X connect 9 0 12 0;
#X connect 10 0 9 1;
#X connect 11 0 19 0;
#X connect 11 1 20 0;
#X connect 11 2 21 0;
#X connect 11 3 22 0;
#X connect 12 0 11 0;
#X connect 13 0 14 1;
#X connect 14 0 7 0;
#X connect 15 0 16 1;
#X connect 16 0 4 0;
#X connect 17 0 18 0;
#X connect 18 0 93 0;
#X connect 18 1 95 0;
#X connect 19 0 84 0;
#X connect 20 0 84 0;
#X connect 20 0 86 0;
#X connect 21 0 86 0;
#X connect 22 0 84 0;
#X connect 22 0 86 0;
#X connect 23 0 3 0;
#X connect 24 0 3 0;
#X connect 25 0 3 0;
#X connect 26 0 27 0;
#X connect 27 0 23 0;
#X connect 27 1 24 0;
#X connect 27 2 25 0;
#X connect 28 0 32 0;
#X connect 29 0 32 0;
#X connect 30 0 32 0;
#X connect 31 0 26 0;
#X connect 32 0 31 1;
#X connect 33 0 31 0;
#X connect 37 0 53 0;
#X connect 37 0 55 0;
#X connect 38 0 45 0;
#X connect 39 0 37 0;
#X connect 40 0 47 0;
#X connect 41 0 43 0;
#X connect 42 0 43 0;
#X connect 43 0 67 1;
#X connect 44 0 68 0;
#X connect 44 1 38 1;
#X connect 45 1 39 0;
#X connect 45 2 40 0;
#X connect 45 3 48 0;
#X connect 46 0 43 0;
#X connect 47 0 59 0;
#X connect 47 1 61 0;
#X connect 48 0 49 0;
#X connect 49 0 56 0;
#X connect 49 0 58 0;
#X connect 52 0 105 0;
#X connect 53 0 79 0;
#X connect 54 0 55 1;
#X connect 54 0 53 1;
#X connect 55 0 79 1;
#X connect 56 0 79 0;
#X connect 57 0 58 1;
#X connect 57 0 56 1;
#X connect 58 0 79 1;
#X connect 59 0 79 0;
#X connect 60 0 61 1;
#X connect 60 0 59 1;
#X connect 61 0 79 1;
#X connect 62 0 8 0;
#X connect 63 0 8 1;
#X connect 64 0 81 0;
#X connect 65 0 82 0;
#X connect 66 0 83 0;
#X connect 67 0 38 0;
#X connect 68 0 67 0;
#X connect 69 0 17 0;
#X connect 70 0 1 0;
#X connect 71 0 15 0;
#X connect 72 0 32 0;
#X connect 73 0 43 0;
#X connect 75 0 74 0;
#X connect 76 0 77 1;
#X connect 76 0 75 1;
#X connect 77 0 74 1;
#X connect 78 0 80 0;
#X connect 79 0 2 0;
#X connect 79 1 2 1;
#X connect 80 0 76 0;
#X connect 81 0 57 0;
#X connect 82 0 60 0;
#X connect 83 0 54 0;
#X connect 84 0 62 0;
#X connect 84 1 63 0;
#X connect 86 0 84 1;
#X connect 90 0 104 0;
#X connect 90 0 91 0;
#X connect 90 0 106 0;
#X connect 90 0 92 0;
#X connect 91 0 84 4;
#X connect 92 0 84 5;
#X connect 93 0 75 0;
#X connect 93 1 77 0;
#X connect 95 0 93 1;
#X connect 99 0 103 0;
#X connect 99 0 102 0;
#X connect 99 0 100 0;
#X connect 99 0 101 0;
#X connect 100 0 93 3;
#X connect 101 0 93 5;
#X connect 102 0 93 4;
#X connect 103 0 93 2;
#X connect 104 0 84 2;
#X connect 105 0 15 0;
#X connect 106 0 84 3;
#X connect 107 0 108 0;
#X connect 108 0 13 0;
#X connect 109 0 63 1;
#X connect 109 0 62 1;
#X connect 111 0 112 0;
#X connect 112 0 110 0;
#X connect 112 0 109 0;
#X connect 113 0 16 0;
#X connect 113 0 14 0;
