#N canvas 356 336 925 829 12;
#X obj 47 36 tgl 15 0 empty empty empty 17 7 0 10 #fcfcfc #000000 #000000 0 1;
#X msg 47 61 \; pd dsp \$1;
#N canvas 926 0 1147 1030 enemydamaged 1;
#X obj 571 457 *~ 0.1;
#X obj 571 546 dac~;
#X obj 1076 339 - 0.5;
#X obj 1076 359 * 2;
#X obj 571 501 *~;
#X obj 1076 319 max 0.5;
#X obj 1076 381 sqrt;
#X obj 785 140 bng 15 250 50 0 empty empty roar 0 -6 1 8 #fcfcfc #000000 #000000;
#X obj 571 522 *~ 8;
#X obj 321 129 hsl 128 12 0.2 0.8 0 1 \$0-risefall2 empty risefall 40 6 1 8 #fcfcfc #000000 #000000 4233 1;
#X obj 321 103 hsl 128 12 100 3000 0 1 \$0-dur2 empty duration 30 6 1 8 #fcfcfc #000000 #000000 1752 1;
#X obj 785 273 articulate;
#X obj 322 163 hsl 128 12 5 700 0 1 \$0-frange2 empty F0-range 40 6 1 8 #fcfcfc #000000 #000000 5391 1;
#X obj 571 340 *;
#X obj 571 386 +;
#X obj 322 200 hsl 128 12 5 300 0 1 \$0-base2 empty F0-base 40 6 1 8 #fcfcfc #000000 #000000 1937 1;
#X obj 670 338 *;
#X obj 322 222 hsl 128 12 0.2 5 0 1 \$0-cordr2 empty cord-ripple 40 6 1 8 #fcfcfc #000000 #000000 10054 1;
#X obj 322 291 hsl 128 12 10 500 0 1 \$0-tractb2 empty tract-base 20 6 1 8 #fcfcfc #000000 #000000 8683 1;
#X obj 756 340 *;
#X obj 322 315 hsl 128 12 10 500 0 1 \$0-tractbm2 empty tract-baserise 20 6 1 8 #fcfcfc #000000 #000000 3629 1;
#X obj 756 381 +;
#X obj 862 339 *;
#X obj 862 377 +;
#X obj 322 340 hsl 128 12 10 100 0 1 \$0-traclm2 empty tract-lengthmod 20 6 1 8 #fcfcfc #000000 #000000 7056 1;
#X obj 322 362 hsl 128 12 10 200 0 1 \$0-tractl2 empty tract-length 20 6 1 8 #fcfcfc #000000 #000000 2339 1;
#X obj 322 385 hsl 128 12 2 40 0 1 \$0-tracrm2 empty tract-resmod 20 6 1 8 #fcfcfc #000000 #000000 5347 1;
#X obj 960 339 *;
#X obj 960 379 +;
#X obj 322 413 hsl 128 12 5 60 0 1 \$0-tractres2 empty tract-res 20 6 1 8 #fcfcfc #000000 #000000 11545 1;
#X obj 322 245 hsl 128 12 1 100 0 1 \$0-cordw2 empty cord-width 40 6 1 8 #fcfcfc #000000 #000000 4362 1;
#N canvas 781 270 247 385 cord 0;
#X obj 54 85 cos~;
#X obj 54 43 -~ 0.5;
#X obj 54 108 +~ 1;
#X obj 105 131 cos~;
#X obj 54 159 *~;
#X obj 105 109 *~;
#X obj 54 21 phasor~ 100;
#X obj 54 131 *~ 0.5;
#X obj 121 65 sig~;
#X obj 121 86 lop~ 10;
#X obj 3 275 /~;
#X obj 54 227 *~;
#X obj 54 248 +~ 1;
#X obj 3 249 sig~ 1;
#X obj 3 391 outlet~;
#X obj 3 366 hip~ 1;
#X obj 54 201 *~;
#X obj 70 179 inlet cord width;
#X obj 121 41 inlet cord ripple;
#X obj 54 0 inlet cord freq;
#X obj 49 278 noise~;
#X obj 33 304 *~;
#X obj 3 332 *~;
#X obj 33 332 *~;
#X obj 97 278 sig~ 1;
#X obj 97 302 -~;
#X obj 113 233 inlet noisiness;
#X obj 113 254 sig~;
#X connect 0 0 2 0;
#X connect 1 0 5 0;
#X connect 1 0 0 0;
#X connect 2 0 7 0;
#X connect 3 0 4 1;
#X connect 4 0 16 0;
#X connect 5 0 3 0;
#X connect 6 0 1 0;
#X connect 7 0 4 0;
#X connect 8 0 9 0;
#X connect 9 0 5 1;
#X connect 10 0 21 0;
#X connect 10 0 22 0;
#X connect 11 0 12 0;
#X connect 12 0 10 1;
#X connect 13 0 10 0;
#X connect 15 0 14 0;
#X connect 16 0 11 0;
#X connect 16 0 11 1;
#X connect 17 0 16 1;
#X connect 18 0 8 0;
#X connect 19 0 6 0;
#X connect 20 0 21 1;
#X connect 21 0 23 0;
#X connect 22 0 15 0;
#X connect 23 0 15 0;
#X connect 24 0 25 0;
#X connect 25 0 22 1;
#X connect 26 0 27 0;
#X connect 27 0 23 1;
#X connect 27 0 25 1;
#X restore 571 434 pd cord model;
#X obj 322 270 hsl 128 12 0 1 0 1 \$0-cordnz2 empty cord-noise 40 6 1 8 #fcfcfc #000000 #000000 5080 1;
#N canvas 0 0 462 479 tract 0;
#X obj 136 100 +;
#X obj 3 420 bp~ 1 1;
#X obj 409 354 inlet;
#X text 410 331 res;
#X obj 60 419 bp~ 1 1;
#X obj 166 144 +;
#X obj 119 418 bp~ 1 1;
#X obj 176 417 bp~ 1 1;
#X obj 196 188 +;
#X obj 235 417 bp~ 1 1;
#X obj 292 416 bp~ 1 1;
#X obj 351 415 bp~ 1 1;
#X obj 408 414 bp~ 1 1;
#X obj 226 229 +;
#X obj 256 270 +;
#X obj 286 312 +;
#X obj 316 355 +;
#X obj 189 460 outlet~;
#X obj 182 61 * 1.414;
#X obj 212 100 * 1.414;
#X obj 242 139 * 1.414;
#X obj 272 178 * 1.414;
#X obj 302 218 * 1.414;
#X obj 332 259 * 1.414;
#X obj 152 42 t f f;
#X obj 182 80 t f f;
#X obj 212 120 t f f;
#X obj 242 158 t f f;
#X obj 272 198 t f f;
#X obj 302 238 t f f;
#X obj 136 122 t f f;
#X obj 166 164 t f f;
#X obj 196 208 t f f;
#X obj 226 249 t f f;
#X obj 256 291 t f f;
#X obj 286 332 t f f;
#X obj 106 78 t f f;
#X obj 152 22 inlet separation;
#X obj 106 1 inlet base;
#X obj 3 20 inlet~ audio;
#X connect 0 0 30 0;
#X connect 1 0 17 0;
#X connect 2 0 12 2;
#X connect 2 0 11 2;
#X connect 2 0 10 2;
#X connect 2 0 9 2;
#X connect 2 0 7 2;
#X connect 2 0 6 2;
#X connect 2 0 4 2;
#X connect 2 0 1 2;
#X connect 4 0 17 0;
#X connect 5 0 31 0;
#X connect 6 0 17 0;
#X connect 7 0 17 0;
#X connect 8 0 32 0;
#X connect 9 0 17 0;
#X connect 10 0 17 0;
#X connect 11 0 17 0;
#X connect 12 0 17 0;
#X connect 13 0 33 0;
#X connect 14 0 34 0;
#X connect 15 0 35 0;
#X connect 16 0 12 1;
#X connect 18 0 25 0;
#X connect 19 0 26 0;
#X connect 20 0 27 0;
#X connect 21 0 28 0;
#X connect 22 0 29 0;
#X connect 23 0 16 1;
#X connect 24 0 0 1;
#X connect 24 1 18 0;
#X connect 25 0 5 1;
#X connect 25 1 19 0;
#X connect 26 0 8 1;
#X connect 26 1 20 0;
#X connect 27 0 13 1;
#X connect 27 1 21 0;
#X connect 28 0 14 1;
#X connect 28 1 22 0;
#X connect 29 0 15 1;
#X connect 29 1 23 0;
#X connect 30 0 4 1;
#X connect 30 1 5 0;
#X connect 31 0 6 1;
#X connect 31 1 8 0;
#X connect 32 0 7 1;
#X connect 32 1 13 0;
#X connect 33 0 9 1;
#X connect 33 1 14 0;
#X connect 34 0 10 1;
#X connect 34 1 15 0;
#X connect 35 0 11 1;
#X connect 35 1 16 0;
#X connect 36 0 1 1;
#X connect 36 1 0 0;
#X connect 37 0 24 0;
#X connect 38 0 36 0;
#X connect 39 0 1 0;
#X connect 39 0 4 0;
#X connect 39 0 6 0;
#X connect 39 0 7 0;
#X connect 39 0 9 0;
#X connect 39 0 10 0;
#X connect 39 0 11 0;
#X connect 39 0 12 0;
#X restore 571 479 pd tract comb filter;
#X obj 77 65 loadbang;
#X msg 275 251 0.4;
#X msg 274 110 0.4;
#X msg 274 144 300;
#X msg 275 181 50;
#X msg 275 203 4;
#X msg 275 226 35;
#X msg 275 273 345;
#X msg 275 296 150;
#X msg 276 321 60;
#X msg 276 343 45;
#X msg 276 366 18;
#X msg 276 394 55;
#X msg 275 84 500;
#X obj 77 123 tgl 19 0 empty empty empty 0 -10 0 12 #fcfcfc #000000 #000000 0 1;
#X floatatom 511 362 5 0 0 0 - - - 0;
#X floatatom 713 254 5 0 0 0 - - - 0;
#X obj 817 232 r \$0-dur2;
#X obj 850 252 r \$0-risefall2;
#X obj 587 317 r \$0-frange2;
#X obj 587 362 r \$0-base2;
#X obj 599 384 r \$0-cordw2;
#X obj 628 404 r \$0-cordnz2;
#X obj 772 360 r \$0-tracb2;
#X obj 772 318 r \$0-tractbm2;
#X obj 686 318 r \$0-cordr2;
#X obj 878 318 r \$0-tractlm2;
#X obj 878 357 r \$0-tractl2;
#X obj 976 359 r \$0-tractres2;
#X obj 976 319 r \$0-tractrm2;
#X connect 0 0 33 0;
#X connect 2 0 3 0;
#X connect 3 0 6 0;
#X connect 4 0 8 0;
#X connect 5 0 2 0;
#X connect 6 0 4 1;
#X connect 7 0 11 0;
#X connect 8 0 1 0;
#X connect 8 0 1 1;
#X connect 11 0 5 0;
#X connect 11 0 13 0;
#X connect 11 0 16 0;
#X connect 11 0 19 0;
#X connect 11 0 22 0;
#X connect 11 0 27 0;
#X connect 13 0 14 0;
#X connect 14 0 31 0;
#X connect 16 0 31 3;
#X connect 19 0 21 0;
#X connect 21 0 33 1;
#X connect 22 0 23 0;
#X connect 23 0 33 2;
#X connect 27 0 28 0;
#X connect 28 0 33 3;
#X connect 31 0 0 0;
#X connect 33 0 4 0;
#X connect 34 0 47 0;
#X connect 34 0 36 0;
#X connect 34 0 37 0;
#X connect 34 0 38 0;
#X connect 34 0 39 0;
#X connect 34 0 35 0;
#X connect 34 0 40 0;
#X connect 34 0 41 0;
#X connect 34 0 42 0;
#X connect 34 0 43 0;
#X connect 34 0 44 0;
#X connect 34 0 45 0;
#X connect 34 0 46 0;
#X connect 34 0 48 0;
#X connect 35 0 32 0;
#X connect 36 0 9 0;
#X connect 37 0 12 0;
#X connect 38 0 15 0;
#X connect 39 0 17 0;
#X connect 40 0 30 0;
#X connect 41 0 18 0;
#X connect 42 0 20 0;
#X connect 43 0 24 0;
#X connect 44 0 25 0;
#X connect 45 0 26 0;
#X connect 46 0 29 0;
#X connect 47 0 10 0;
#X connect 51 0 11 1;
#X connect 51 0 50 0;
#X connect 52 0 11 2;
#X connect 53 0 13 1;
#X connect 53 0 49 0;
#X connect 54 0 14 1;
#X connect 55 0 31 1;
#X connect 56 0 31 2;
#X connect 57 0 21 1;
#X connect 58 0 19 1;
#X connect 59 0 16 1;
#X connect 60 0 22 1;
#X connect 61 0 23 1;
#X connect 62 0 28 1;
#X connect 63 0 27 1;
#X restore 334 273 pd enemydamaged;
#N canvas 681 64 1089 1030 enemydied 0;
#X obj 571 457 *~ 0.1;
#X obj 571 546 dac~;
#X obj 1076 339 - 0.5;
#X obj 1076 359 * 2;
#X obj 571 501 *~;
#X obj 1076 319 max 0.5;
#X obj 1076 381 sqrt;
#X obj 785 140 bng 15 250 50 0 empty empty roar 0 -6 1 8 #fcfcfc #000000 #000000;
#X obj 571 522 *~ 8;
#X obj 330 115 hsl 128 12 0.2 0.8 0 1 \$0-risefall empty risefall 40 6 1 8 #fcfcfc #000000 #000000 10583 1;
#X obj 329 88 hsl 128 12 100 3000 0 1 \$0-dur empty duration 30 6 1 8 #fcfcfc #000000 #000000 12700 1;
#X obj 785 273 articulate;
#X obj 817 232 r \$0-dur;
#X obj 850 252 r \$0-risefall;
#X obj 330 148 hsl 128 12 5 700 0 1 \$0-frange empty F0-range 40 6 1 8 #fcfcfc #000000 #000000 7583 1;
#X obj 587 317 r \$0-frange;
#X obj 571 340 *;
#X obj 571 386 +;
#X obj 587 362 r \$0-base;
#X obj 329 185 hsl 128 12 5 300 0 1 \$0-base empty F0-base 40 6 1 8 #fcfcfc #000000 #000000 6673 1;
#X obj 686 318 r \$0-cordr;
#X obj 670 338 *;
#X obj 338 209 hsl 128 12 0.2 5 0 1 \$0-cordr empty cord-ripple 40 6 1 8 #fcfcfc #000000 #000000 10054 1;
#X obj 321 277 hsl 128 12 10 500 0 1 \$0-tractb empty tract-base 20 6 1 8 #fcfcfc #000000 #000000 10108 1;
#X obj 756 340 *;
#X obj 324 301 hsl 128 12 10 500 0 1 \$0-tractbm empty tract-baserise 20 6 1 8 #fcfcfc #000000 #000000 10108 1;
#X obj 756 381 +;
#X obj 878 357 r \$0-tractl;
#X obj 772 360 r \$0-tracb;
#X obj 772 318 r \$0-tractbm;
#X obj 878 318 r \$0-tractlm;
#X obj 862 339 *;
#X obj 862 377 +;
#X obj 322 326 hsl 128 12 10 100 0 1 \$0-traclm empty tract-lengthmod 20 6 1 8 #fcfcfc #000000 #000000 10583 1;
#X obj 320 347 hsl 128 12 10 200 0 1 \$0-tractl empty tract-length 20 6 1 8 #fcfcfc #000000 #000000 11029 1;
#X obj 320 371 hsl 128 12 2 40 0 1 \$0-tracrm empty tract-resmod 20 6 1 8 #fcfcfc #000000 #000000 9358 1;
#X obj 976 319 r \$0-tractrm;
#X obj 960 339 *;
#X obj 976 359 r \$0-tractres;
#X obj 960 379 +;
#X obj 318 398 hsl 128 12 5 60 0 1 \$0-tractres empty tract-res 20 6 1 8 #fcfcfc #000000 #000000 11545 1;
#X obj 599 384 r \$0-cordw;
#X obj 332 231 hsl 128 12 1 100 0 1 \$0-cordw empty cord-width 40 6 1 8 #fcfcfc #000000 #000000 10776 1;
#N canvas 781 270 247 409 cord 0;
#X obj 54 85 cos~;
#X obj 54 43 -~ 0.5;
#X obj 54 108 +~ 1;
#X obj 105 131 cos~;
#X obj 54 159 *~;
#X obj 105 109 *~;
#X obj 54 21 phasor~ 100;
#X obj 54 131 *~ 0.5;
#X obj 121 65 sig~;
#X obj 121 86 lop~ 10;
#X obj 3 275 /~;
#X obj 54 227 *~;
#X obj 54 248 +~ 1;
#X obj 3 249 sig~ 1;
#X obj 3 391 outlet~;
#X obj 3 366 hip~ 1;
#X obj 54 201 *~;
#X obj 70 179 inlet cord width;
#X obj 121 41 inlet cord ripple;
#X obj 54 0 inlet cord freq;
#X obj 49 278 noise~;
#X obj 33 304 *~;
#X obj 3 332 *~;
#X obj 33 332 *~;
#X obj 97 278 sig~ 1;
#X obj 97 302 -~;
#X obj 113 233 inlet noisiness;
#X obj 113 254 sig~;
#X connect 0 0 2 0;
#X connect 1 0 5 0;
#X connect 1 0 0 0;
#X connect 2 0 7 0;
#X connect 3 0 4 1;
#X connect 4 0 16 0;
#X connect 5 0 3 0;
#X connect 6 0 1 0;
#X connect 7 0 4 0;
#X connect 8 0 9 0;
#X connect 9 0 5 1;
#X connect 10 0 21 0;
#X connect 10 0 22 0;
#X connect 11 0 12 0;
#X connect 12 0 10 1;
#X connect 13 0 10 0;
#X connect 15 0 14 0;
#X connect 16 0 11 0;
#X connect 16 0 11 1;
#X connect 17 0 16 1;
#X connect 18 0 8 0;
#X connect 19 0 6 0;
#X connect 20 0 21 1;
#X connect 21 0 23 0;
#X connect 22 0 15 0;
#X connect 23 0 15 0;
#X connect 24 0 25 0;
#X connect 25 0 22 1;
#X connect 26 0 27 0;
#X connect 27 0 23 1;
#X connect 27 0 25 1;
#X restore 571 434 pd cord model;
#X obj 628 404 r \$0-cordnz;
#X obj 331 252 hsl 128 12 0 1 0 1 \$0-cordnz empty cord-noise 40 6 1 8 #fcfcfc #000000 #000000 10160 1;
#N canvas 0 0 462 479 tract 0;
#X obj 136 100 +;
#X obj 3 420 bp~ 1 1;
#X obj 409 354 inlet;
#X text 410 331 res;
#X obj 60 419 bp~ 1 1;
#X obj 166 144 +;
#X obj 119 418 bp~ 1 1;
#X obj 176 417 bp~ 1 1;
#X obj 196 188 +;
#X obj 235 417 bp~ 1 1;
#X obj 292 416 bp~ 1 1;
#X obj 351 415 bp~ 1 1;
#X obj 408 414 bp~ 1 1;
#X obj 226 229 +;
#X obj 256 270 +;
#X obj 286 312 +;
#X obj 316 355 +;
#X obj 189 460 outlet~;
#X obj 182 61 * 1.414;
#X obj 212 100 * 1.414;
#X obj 242 139 * 1.414;
#X obj 272 178 * 1.414;
#X obj 302 218 * 1.414;
#X obj 332 259 * 1.414;
#X obj 152 42 t f f;
#X obj 182 80 t f f;
#X obj 212 120 t f f;
#X obj 242 158 t f f;
#X obj 272 198 t f f;
#X obj 302 238 t f f;
#X obj 136 122 t f f;
#X obj 166 164 t f f;
#X obj 196 208 t f f;
#X obj 226 249 t f f;
#X obj 256 291 t f f;
#X obj 286 332 t f f;
#X obj 106 78 t f f;
#X obj 152 22 inlet separation;
#X obj 106 1 inlet base;
#X obj 3 20 inlet~ audio;
#X connect 0 0 30 0;
#X connect 1 0 17 0;
#X connect 2 0 12 2;
#X connect 2 0 11 2;
#X connect 2 0 10 2;
#X connect 2 0 9 2;
#X connect 2 0 7 2;
#X connect 2 0 6 2;
#X connect 2 0 4 2;
#X connect 2 0 1 2;
#X connect 4 0 17 0;
#X connect 5 0 31 0;
#X connect 6 0 17 0;
#X connect 7 0 17 0;
#X connect 8 0 32 0;
#X connect 9 0 17 0;
#X connect 10 0 17 0;
#X connect 11 0 17 0;
#X connect 12 0 17 0;
#X connect 13 0 33 0;
#X connect 14 0 34 0;
#X connect 15 0 35 0;
#X connect 16 0 12 1;
#X connect 18 0 25 0;
#X connect 19 0 26 0;
#X connect 20 0 27 0;
#X connect 21 0 28 0;
#X connect 22 0 29 0;
#X connect 23 0 16 1;
#X connect 24 0 0 1;
#X connect 24 1 18 0;
#X connect 25 0 5 1;
#X connect 25 1 19 0;
#X connect 26 0 8 1;
#X connect 26 1 20 0;
#X connect 27 0 13 1;
#X connect 27 1 21 0;
#X connect 28 0 14 1;
#X connect 28 1 22 0;
#X connect 29 0 15 1;
#X connect 29 1 23 0;
#X connect 30 0 4 1;
#X connect 30 1 5 0;
#X connect 31 0 6 1;
#X connect 31 1 8 0;
#X connect 32 0 7 1;
#X connect 32 1 13 0;
#X connect 33 0 9 1;
#X connect 33 1 14 0;
#X connect 34 0 10 1;
#X connect 34 1 15 0;
#X connect 35 0 11 1;
#X connect 35 1 16 0;
#X connect 36 0 1 1;
#X connect 36 1 0 0;
#X connect 37 0 24 0;
#X connect 38 0 36 0;
#X connect 39 0 1 0;
#X connect 39 0 4 0;
#X connect 39 0 6 0;
#X connect 39 0 7 0;
#X connect 39 0 9 0;
#X connect 39 0 10 0;
#X connect 39 0 11 0;
#X connect 39 0 12 0;
#X restore 571 479 pd tract comb filter;
#X obj 14 65 loadbang;
#X msg 273 204 4;
#X msg 274 395 55;
#X msg 272 111 0.7;
#X msg 272 145 420;
#X msg 273 182 160;
#X msg 273 227 85;
#X msg 273 252 0.8;
#X msg 273 274 400;
#X msg 273 297 400;
#X msg 274 322 85;
#X msg 274 344 175;
#X msg 274 367 30;
#X msg 273 85 3000;
#X obj 14 129 tgl 19 0 empty empty empty 0 -10 0 12 #fcfcfc #000000 #000000 0 1;
#X floatatom 499 362 5 0 0 0 - - - 0;
#X floatatom 690 262 5 0 0 0 - - - 0;
#X connect 0 0 46 0;
#X connect 2 0 3 0;
#X connect 3 0 6 0;
#X connect 4 0 8 0;
#X connect 5 0 2 0;
#X connect 6 0 4 1;
#X connect 7 0 11 0;
#X connect 8 0 1 0;
#X connect 8 0 1 1;
#X connect 11 0 5 0;
#X connect 11 0 16 0;
#X connect 11 0 21 0;
#X connect 11 0 24 0;
#X connect 11 0 31 0;
#X connect 11 0 37 0;
#X connect 12 0 11 1;
#X connect 12 0 63 0;
#X connect 13 0 11 2;
#X connect 15 0 16 1;
#X connect 15 0 62 0;
#X connect 16 0 17 0;
#X connect 17 0 43 0;
#X connect 18 0 17 1;
#X connect 20 0 21 1;
#X connect 21 0 43 3;
#X connect 24 0 26 0;
#X connect 26 0 46 1;
#X connect 27 0 32 1;
#X connect 28 0 26 1;
#X connect 29 0 24 1;
#X connect 30 0 31 1;
#X connect 31 0 32 0;
#X connect 32 0 46 2;
#X connect 36 0 37 1;
#X connect 37 0 39 0;
#X connect 38 0 39 1;
#X connect 39 0 46 3;
#X connect 41 0 43 1;
#X connect 43 0 0 0;
#X connect 44 0 43 2;
#X connect 46 0 4 0;
#X connect 47 0 50 0;
#X connect 47 0 51 0;
#X connect 47 0 52 0;
#X connect 47 0 48 0;
#X connect 47 0 53 0;
#X connect 47 0 55 0;
#X connect 47 0 56 0;
#X connect 47 0 57 0;
#X connect 47 0 58 0;
#X connect 47 0 59 0;
#X connect 47 0 49 0;
#X connect 47 0 54 0;
#X connect 47 0 60 0;
#X connect 47 0 61 0;
#X connect 48 0 22 0;
#X connect 49 0 40 0;
#X connect 50 0 9 0;
#X connect 51 0 14 0;
#X connect 52 0 19 0;
#X connect 53 0 42 0;
#X connect 54 0 45 0;
#X connect 55 0 23 0;
#X connect 56 0 25 0;
#X connect 57 0 33 0;
#X connect 58 0 34 0;
#X connect 59 0 35 0;
#X connect 60 0 10 0;
#X restore 334 312 pd enemydied;
#N canvas 706 0 1233 1030 playerdied 1;
#X obj 571 457 *~ 0.1;
#X obj 571 546 dac~;
#X obj 1076 339 - 0.5;
#X obj 1076 359 * 2;
#X obj 571 501 *~;
#X obj 1076 319 max 0.5;
#X obj 1076 381 sqrt;
#X obj 785 140 bng 15 250 50 0 empty empty roar 0 -6 1 8 #fcfcfc #000000 #000000;
#X obj 571 522 *~ 8;
#X obj 330 115 hsl 128 12 0.2 0.8 0 1 \$0-risefall1 empty risefall 40 6 1 8 #fcfcfc #000000 #000000 0 1;
#X obj 329 88 hsl 128 12 100 3000 0 1 \$0-dur1 empty duration 30 6 1 8 #fcfcfc #000000 #000000 12700 1;
#X obj 785 273 articulate;
#X obj 330 148 hsl 128 12 5 700 0 1 \$0-frange1 empty F0-range 40 6 1 8 #fcfcfc #000000 #000000 1736 1;
#X obj 571 340 *;
#X obj 571 386 +;
#X obj 329 185 hsl 128 12 5 300 0 1 \$0-base1 empty F0-base 40 6 1 8 #fcfcfc #000000 #000000 1076 1;
#X obj 670 338 *;
#X obj 338 209 hsl 128 12 0.2 5 0 1 \$0-cordr1 empty cord-ripple 40 6 1 8 #fcfcfc #000000 #000000 4762 1;
#X obj 321 277 hsl 128 12 10 500 0 1 \$0-tractb1 empty tract-base 20 6 1 8 #fcfcfc #000000 #000000 2333 1;
#X obj 756 340 *;
#X obj 324 301 hsl 128 12 10 500 0 1 \$0-tractbm1 empty tract-baserise 20 6 1 8 #fcfcfc #000000 #000000 6220 1;
#X obj 756 381 +;
#X obj 862 339 *;
#X obj 862 377 +;
#X obj 322 326 hsl 128 12 10 100 0 1 \$0-traclm1 empty tract-lengthmod 20 6 1 8 #fcfcfc #000000 #000000 2117 1;
#X obj 320 347 hsl 128 12 10 200 0 1 \$0-tractl1 empty tract-length 20 6 1 8 #fcfcfc #000000 #000000 2674 1;
#X obj 320 371 hsl 128 12 2 40 0 1 \$0-tracrm1 empty tract-resmod 20 6 1 8 #fcfcfc #000000 #000000 9358 1;
#X obj 960 339 *;
#X obj 960 379 +;
#X obj 318 398 hsl 128 12 5 60 0 1 \$0-tractres1 empty tract-res 20 6 1 8 #fcfcfc #000000 #000000 11545 1;
#X obj 332 231 hsl 128 12 1 100 0 1 \$0-cordw1 empty cord-width 40 6 1 8 #fcfcfc #000000 #000000 3720 1;
#N canvas 781 270 434 409 cord 0;
#X obj 54 85 cos~;
#X obj 54 43 -~ 0.5;
#X obj 54 108 +~ 1;
#X obj 105 131 cos~;
#X obj 54 159 *~;
#X obj 105 109 *~;
#X obj 54 21 phasor~ 100;
#X obj 54 131 *~ 0.5;
#X obj 121 65 sig~;
#X obj 121 86 lop~ 10;
#X obj 3 275 /~;
#X obj 54 227 *~;
#X obj 54 248 +~ 1;
#X obj 3 249 sig~ 1;
#X obj 3 391 outlet~;
#X obj 3 366 hip~ 1;
#X obj 54 201 *~;
#X obj 70 179 inlet cord width;
#X obj 121 41 inlet cord ripple;
#X obj 54 0 inlet cord freq;
#X obj 49 278 noise~;
#X obj 33 304 *~;
#X obj 3 332 *~;
#X obj 33 332 *~;
#X obj 97 278 sig~ 1;
#X obj 97 302 -~;
#X obj 113 233 inlet noisiness;
#X obj 113 254 sig~;
#X connect 0 0 2 0;
#X connect 1 0 5 0;
#X connect 1 0 0 0;
#X connect 2 0 7 0;
#X connect 3 0 4 1;
#X connect 4 0 16 0;
#X connect 5 0 3 0;
#X connect 6 0 1 0;
#X connect 7 0 4 0;
#X connect 8 0 9 0;
#X connect 9 0 5 1;
#X connect 10 0 21 0;
#X connect 10 0 22 0;
#X connect 11 0 12 0;
#X connect 12 0 10 1;
#X connect 13 0 10 0;
#X connect 15 0 14 0;
#X connect 16 0 11 0;
#X connect 16 0 11 1;
#X connect 17 0 16 1;
#X connect 18 0 8 0;
#X connect 19 0 6 0;
#X connect 20 0 21 1;
#X connect 21 0 23 0;
#X connect 22 0 15 0;
#X connect 23 0 15 0;
#X connect 24 0 25 0;
#X connect 25 0 22 1;
#X connect 26 0 27 0;
#X connect 27 0 23 1;
#X connect 27 0 25 1;
#X restore 571 434 pd cord model;
#X obj 331 252 hsl 128 12 0 1 0 1 \$0-cordnz1 empty cord-noise 40 6 1 8 #fcfcfc #000000 #000000 2540 1;
#N canvas 346 219 1429 931 tract 0;
#X obj 136 100 +;
#X obj 3 420 bp~ 1 1;
#X obj 409 354 inlet;
#X text 410 331 res;
#X obj 60 419 bp~ 1 1;
#X obj 166 144 +;
#X obj 119 418 bp~ 1 1;
#X obj 176 417 bp~ 1 1;
#X obj 196 188 +;
#X obj 235 417 bp~ 1 1;
#X obj 292 416 bp~ 1 1;
#X obj 351 415 bp~ 1 1;
#X obj 408 414 bp~ 1 1;
#X obj 226 229 +;
#X obj 256 270 +;
#X obj 286 312 +;
#X obj 316 355 +;
#X obj 189 460 outlet~;
#X obj 182 61 * 1.414;
#X obj 212 100 * 1.414;
#X obj 242 139 * 1.414;
#X obj 272 178 * 1.414;
#X obj 302 218 * 1.414;
#X obj 332 259 * 1.414;
#X obj 152 42 t f f;
#X obj 182 80 t f f;
#X obj 212 120 t f f;
#X obj 242 158 t f f;
#X obj 272 198 t f f;
#X obj 302 238 t f f;
#X obj 136 122 t f f;
#X obj 166 164 t f f;
#X obj 196 208 t f f;
#X obj 226 249 t f f;
#X obj 256 291 t f f;
#X obj 286 332 t f f;
#X obj 106 78 t f f;
#X obj 152 22 inlet separation;
#X obj 106 1 inlet base;
#X obj 3 20 inlet~ audio;
#X connect 0 0 30 0;
#X connect 1 0 17 0;
#X connect 2 0 12 2;
#X connect 2 0 11 2;
#X connect 2 0 10 2;
#X connect 2 0 9 2;
#X connect 2 0 7 2;
#X connect 2 0 6 2;
#X connect 2 0 4 2;
#X connect 2 0 1 2;
#X connect 4 0 17 0;
#X connect 5 0 31 0;
#X connect 6 0 17 0;
#X connect 7 0 17 0;
#X connect 8 0 32 0;
#X connect 9 0 17 0;
#X connect 10 0 17 0;
#X connect 11 0 17 0;
#X connect 12 0 17 0;
#X connect 13 0 33 0;
#X connect 14 0 34 0;
#X connect 15 0 35 0;
#X connect 16 0 12 1;
#X connect 18 0 25 0;
#X connect 19 0 26 0;
#X connect 20 0 27 0;
#X connect 21 0 28 0;
#X connect 22 0 29 0;
#X connect 23 0 16 1;
#X connect 24 0 0 1;
#X connect 24 1 18 0;
#X connect 25 0 5 1;
#X connect 25 1 19 0;
#X connect 26 0 8 1;
#X connect 26 1 20 0;
#X connect 27 0 13 1;
#X connect 27 1 21 0;
#X connect 28 0 14 1;
#X connect 28 1 22 0;
#X connect 29 0 15 1;
#X connect 29 1 23 0;
#X connect 30 0 4 1;
#X connect 30 1 5 0;
#X connect 31 0 6 1;
#X connect 31 1 8 0;
#X connect 32 0 7 1;
#X connect 32 1 13 0;
#X connect 33 0 9 1;
#X connect 33 1 14 0;
#X connect 34 0 10 1;
#X connect 34 1 15 0;
#X connect 35 0 11 1;
#X connect 35 1 16 0;
#X connect 36 0 1 1;
#X connect 36 1 0 0;
#X connect 37 0 24 0;
#X connect 38 0 36 0;
#X connect 39 0 1 0;
#X connect 39 0 4 0;
#X connect 39 0 6 0;
#X connect 39 0 7 0;
#X connect 39 0 9 0;
#X connect 39 0 10 0;
#X connect 39 0 11 0;
#X connect 39 0 12 0;
#X restore 571 479 pd tract comb filter;
#X obj 14 65 loadbang;
#X msg 274 395 55;
#X msg 274 367 30;
#X msg 273 82 3000;
#X msg 272 111 0.1;
#X msg 272 145 100;
#X msg 273 182 30;
#X msg 273 204 2;
#X msg 273 227 30;
#X msg 273 252 0.2;
#X msg 273 274 100;
#X msg 273 297 250;
#X msg 274 322 25;
#X msg 274 344 50;
#X obj 14 122 tgl 19 0 empty empty empty 0 -10 0 12 #fcfcfc #000000 #000000 0 1;
#X floatatom 498 402 5 0 0 0 - - - 0;
#X floatatom 694 258 5 0 0 0 - - - 0;
#X obj 817 232 r \$0-dur1;
#X obj 587 317 r \$0-frange1;
#X obj 686 318 r \$0-cordr1;
#X obj 772 318 r \$0-tractbm1;
#X obj 878 316 r \$0-tractlm1;
#X obj 976 319 r \$0-tractrm1;
#X obj 976 359 r \$0-tractres1;
#X obj 878 357 r \$0-tractl1;
#X obj 772 360 r \$0-tracb1;
#X obj 587 362 r \$0-base1;
#X obj 599 384 r \$0-cordw1;
#X obj 628 404 r \$0-cordnz1;
#X obj 850 252 r \$0-risefall1;
#X connect 0 0 33 0;
#X connect 2 0 3 0;
#X connect 3 0 6 0;
#X connect 4 0 8 0;
#X connect 5 0 2 0;
#X connect 6 0 4 1;
#X connect 7 0 11 0;
#X connect 8 0 1 0;
#X connect 8 0 1 1;
#X connect 11 0 5 0;
#X connect 11 0 13 0;
#X connect 11 0 16 0;
#X connect 11 0 19 0;
#X connect 11 0 22 0;
#X connect 11 0 27 0;
#X connect 13 0 14 0;
#X connect 14 0 31 0;
#X connect 16 0 31 3;
#X connect 19 0 21 0;
#X connect 21 0 33 1;
#X connect 22 0 23 0;
#X connect 23 0 33 2;
#X connect 27 0 28 0;
#X connect 28 0 33 3;
#X connect 31 0 0 0;
#X connect 33 0 4 0;
#X connect 34 0 38 0;
#X connect 34 0 39 0;
#X connect 34 0 40 0;
#X connect 34 0 41 0;
#X connect 34 0 42 0;
#X connect 34 0 44 0;
#X connect 34 0 45 0;
#X connect 34 0 46 0;
#X connect 34 0 47 0;
#X connect 34 0 36 0;
#X connect 34 0 35 0;
#X connect 34 0 43 0;
#X connect 34 0 37 0;
#X connect 34 0 48 0;
#X connect 35 0 29 0;
#X connect 36 0 26 0;
#X connect 37 0 10 0;
#X connect 38 0 9 0;
#X connect 39 0 12 0;
#X connect 40 0 15 0;
#X connect 41 0 17 0;
#X connect 42 0 30 0;
#X connect 43 0 32 0;
#X connect 44 0 18 0;
#X connect 45 0 20 0;
#X connect 46 0 24 0;
#X connect 47 0 25 0;
#X connect 48 0 37 0;
#X connect 48 0 38 0;
#X connect 48 0 39 0;
#X connect 48 0 40 0;
#X connect 48 0 41 0;
#X connect 48 0 42 0;
#X connect 48 0 44 0;
#X connect 48 0 46 0;
#X connect 48 0 47 0;
#X connect 48 0 36 0;
#X connect 48 0 35 0;
#X connect 51 0 11 1;
#X connect 51 0 50 0;
#X connect 52 0 13 1;
#X connect 52 0 49 0;
#X connect 53 0 16 1;
#X connect 54 0 19 1;
#X connect 55 0 22 1;
#X connect 56 0 27 1;
#X connect 57 0 28 1;
#X connect 58 0 23 1;
#X connect 59 0 21 1;
#X connect 60 0 14 1;
#X connect 61 0 31 1;
#X connect 62 0 31 2;
#X connect 63 0 11 2;
#X restore 144 390 pd playerdied;
#N canvas 898 0 1493 1030 gunshot 1;
#X obj 1226 312 dac~;
#X obj 568 900 tabwrite~ c;
#N canvas 0 0 450 300 (subpatch) 0;
#X array c 4096 float 3;
#A 0 0 0 0 0 0 0 0 0 0 0 0 0 0 0 0 0 0 0 0 0 0 0 0 0 0 0 0 0 0 0 0 0 0 0 0 0 0 0 0 0 0 0 0 0 0 0 0 0 0 0 0 0 0 0 0 0 0 0 0 0 0 0 0 0 0 0 0 0 0 0 0 0 0 0 0 0 0 0 0 0 0 0 0 0 0 0 0 0 0 0 0 0 0 0 0 0 0 0 0 0 0 0 0 0 0 0 0 0 0 0 0 0 0 0 0 0 0 0 0 0 0 0 0 0 0 0 0 0 0 0 0 0 0 0 0 0 0 0 0 0 0 0 0 0 0 0 0 0 0 0 0 0 0 0 0 0 0 0 0 0 0 0 0 0 0 0 0 0 0 0 0 0 0 0 0 0 0 0 0 0 0 0 0 0 0 0 0 0 0 0 0 0 0 0 0 0 0 0 0 0 0 0 0 0 0 0 0 0 0 0 0 0 0 0 0 0 0 0 0 0 0 0 0 0 0 0 0 0 0 0 0 0 0 0 0 0 0 0 0 0 0 0 0 0 0 0 0 0 0 0 0 0 0 0 0 0 0 0 0 0 0 0 0 0 0 0 0 0 0 0 0 0 0 0 0 0 0 0 0 0 0 0 0 0 0 0 0 0 0 0 0 0 0 0 0 0 0 0 0 0 0 0 0 0 0 0 0 0 0 0 0 0 0 0 0 0 0 0 0 0 0 0 0 0 0 0 0 0 0 0 0 0 0 0 0 0 0 0 0 0 0 0 0 0 0 0 0 0 0 0 0 0 0 0 0 0 0 0 0 0 0 0 0 0 0 0 0 0 0 0 0 0 0 0 0 0 0 0 0 0 0 0 0 0 0 0 0 0 0 0 0 0 0 0 0 0 0 0 0 0 0 0 0 0 0 0 0 0 0 0 0 0 0 0 0 0 0 0 0 0 0 0 0 0 0 0 0 0 0 0 0 0 0 0 0 0 0 0 0 0 0 0 0 0 0 0 0 0 0 0 0 0 0 0 0 0 0 0 0 0 0 0 0 0 0 0 0 0 0 0 0 0 0 0 0 0 0 0 0 0 0 0 0 0 0 0 0 0 0 0 0 0 0 0 0 0 0 0 0 0 0 0 0 0 0 0 0 0 0 0 0 0 0 0 0 0 0 0 0 0 0 0 0 0 0 0 0 0 0 0 0 0 0 0 0 0 0 0 0 0 0 0 0 0 0 0 0 0 0 0 0 0 0 0 0 0 0 0 0 0 0 0 0 0 0 0 0 0 0 0 0 0 0 0 0 0 0 0 0 0 0 0 0 0 0 0 0 0 0 0 0 0 0 0 0 0 0 0 0 0 0 0 0 0 0 0 0 0 0 0 0 0 0 0 0 0 0 0 0 0 0 0 0 0 0 0 0 0 0 0 0 0 0 0 0 0 0 0 0 0 0 0 0 0 0 0 0 0 0 0 0 0 0 0 0 0 0 0 0 0 0 0 0 0 0 0 0 0 0 0 0 0 0 0 0 0 0 0 0 0 0 0 0 0 0 0 0 0 0 0 0 0 0 0 0 0 0 0 0 0 0 0 0 0 0 0 0 0 0 0 0 0 0 0 0 0 0 0 0 0 0 0 0 0 0 0 0 0 0 0 0 0 0 0 0 0 0 0 0 0 0 0 0 0 0 0 0 0 0 0 0 0 0 0 0 0 0 0 0 0 0 0 0 0 0 0 0 0 0 0 0 0 0 0 0 0 0 0 0 0 0 0 0 0 0 0 0 0 0 0 0 0 0 0 0 0 0 0 0 0 0 0 0 0 0 0 0 0 0 0 0 0 0 0 0 0 0 0 0 0 0 0 0 0 0 0 0 0 0 0 0 0 0 0 0 0 0 0 0 0 0 0 0 0 0 0 0 0 0 0 0 0 0 0 0 0 0 0 0 0 0 0 0 0 0 0 0 0 0 0 0 0 0 0 0 0 0 0 0 0 0 0 0 0 0 0 0 0 0 0 0 0 0 0 0 0 0 0 0 0 0 0 0 0 0 0 0 0 0 0 0 0 0 0 0 0 0 0 0 0 0 0 0 0 0 0 0 0 0 0 0 0 0 0 0 0 0 0 0 0 0 0 0 0 0 0 0 0 0 0 0 0 0 0 0 0 0 0 0 0 0 0 0 0 0 0 0 0 0 0 0 0 0 0 0 0 0 0 0 0 0 0 0 0 0 0 0 0 0 0 0 0 0 0 0 0 0 0 0 0;
#A 1000 0 0 0 0 0 0 0 0 0 0 0 0 0 0 0 0 0 0 0 0 0 0 0 0 0 0 0 0 0 0 0 0 0 0 0 0 0 0 0 0 0 0 0 0 0 0 0 0 0 0 0 0 0 0 0 0 0 0 0 0 0 0 0 0 0 0 0 0 0 0 0 0 0 0 0 0 0 0 0 0 0 0 0 0 0 0 0 0 0 0 0 0 0 0 0 0 0 0 0 0 0 0 0 0 0 0 0 0 0 0 0 0 0 0 0 0 0 0 0 0 0 0 0 0 0 0 0 0 0 0 0 0 0 0 0 0 0 0 0 0 0 0 0 0 0 0 0 0 0 0 0 0 0 0 0 0 0 0 0 0 0 0 0 0 0 0 0 0 0 0 0 0 0 0 0 0 0 0 0 0 0 0 0 0 0 0 0 0 0 0 0 0 0 0 0 0 0 0 0 0 0 0 0 0 0 0 0 0 0 0 0 0 0 0 0 0 0 0 0 0 0 0 0 0 0 0 0 0 0 0 0 0 0 0 0 0 0 0 0 0 0 0 0 0 0 0 0 0 0 0 0 0 0 0 0 0 0 0 0 0 0 0 0 0 0 0 0 0 0 0 0 0 0 0 0 0 0 0 0 0 0 0 0 0 0 0 0 0 0 0 0 0 0 0 0 0 0 0 0 0 0 0 0 0 0 0 0 0 0 0 0 0 0 0 0 0 0 0 0 0 0 0 0 0 0 0 0 0 0 0 0 0 0 0 0 0 0 0 0 0 0 0 0 0 0 0 0 0 0 0 0 0 0 0 0 0 0 0 0 0 0 0 0 0 0 0 0 0 0 0 0 0 0 0 0 0 0 0 0 0 0 0 0 0 0 0 0 0 0 0 0 0 0 0 0 0 0 0 0 0 0 0 0 0 0 0 0 0 0 0 0 0 0 0 0 0 0 0 0 0 0 0 0 0 0 0 0 0 0 0 0 0 0 0 0 0 0 0 0 0 0 0 0 0 0 0 0 0 0 0 0 0 0 0 0 0 0 0 0 0 0 0 0 0 0 0 0 0 0 0 0 0 0 0 0 0 0 0 0 0 0 0 0 0 0 0 0 0 0 0 0 0 0 0 0 0 0 0 0 0 0 0 0 0 0 0 0 0 0 0 0 0 0 0 0 0 0 0 0 0 0 0 0 0 0 0 0 0 0 0 0 0 0 0 0 0 0 0 0 0 0 0 0 0 0 0 0 0 0 0 0 0 0 0 0 0 0 0 0 0 0 0 0 0 0 0 0 0 0 0 0 0 0 0 0 0 0 0 0 0 0 0 0 0 0 0 0 0 0 0 0 0 0 0 0 0 0 0 0 0 0 0 0 0 0 0 0 0 0 0 0 0 0 0 0 0 0 0 0 0 0 0 0 0 0 0 0 0 0 0 0 0 0 0 0 0 0 0 0 0 0 0 0 0 0 0 0 0 0 0 0 0 0 0 0 0 0 0 0 0 0 0 0 0 0 0 0 0 0 0 0 0 0 0 0 0 0 0 0 0 0 0 0 0 0 0 0 0 0 0 0 0 0 0 0 0 0 0 0 0 0 0 0 0 0 0 0 0 0 0 0 0 0 0 0 0 0 0 0 0 0 0 0 0 0 0 0 0 0 0 0 0 0 0 0 0 0 0 0 0 0 0 0 0 0 0 0 0 0 0 0 0 0 0 0 0 0 0 0 0 0 0 0 0 0 0 0 0 0 0 0 0 0 0 0 0 0 0 0 0 0 0 0 0 0 0 0 0 0 0 0 0 0 0 0 0 0 0 0 0 0 0 0 0 0 0 0 0 0 0 0 0 0 0 0 0 0 0 0 0 0 0 0 0 0 0 0 0 0 0 0 0 0 0 0 0 0 0 0 0 0 0 0 0 0 0 0 0 0 0 0 0 0 0 0 0 0 0 0 0 0 0 0 0 0 0 0 0 0 0 0 0 0 0 0 0 0 0 0 0 0 0 0 0 0 0 0 0 0 0 0 0 0 0 0 0 0 0 0 0 0 0 0 0 0 0 0 0 0 0 0 0 0 0 0 0 0 0 0 0 0 0 0 0 0 0 0 0 0 0 0 0 0 0 0 0 0 0 0 0 0.0108837 0.0290243 0.0471649 0.0653055 0.0834461 0.101587 0.119727 0.137868 0.156008 0.174149 0.19229 0.21043 0.228571 0.246711 0.264852 0.282993 0.301133 0.319274 0.337414 0.355555 0.373695 0.391836 0.409977 0.428117 0.446258 0.464398 0.482539 0.50068 0.51882 0.536961 0.555101 0.573242 0.591383 0.609523 0.627664 0.645804 0.663945 0.682086 0.700226 0.718367 0.736507 0.754648 0.772788 0.790929 0.79093 0.77279 0.754649 0.736509 0.718368 0.700227 0.682087 0.663946 0.645806 0.627665 0.609524 0.591384 0.573243 0.555103 0.536962 0.518822;
#A 2000 0.500681 0.48254 0.4644 0.446259 0.428119 0.409978 0.391837 0.373697 0.355556 0.337416 0.319275 0.301134 0.282994 0.264853 0.246713 0.228572 0.210432 0.192291 0.17415 0.15601 0.137869 0.119729 0.101588 0.0834474 0.0653068 0.0471662 0.0290256 0.010885 -0.00725556 -0.0253961 -0.0435367 -0.0616773 -0.0798179 -0.0979585 -0.116099 -0.13424 -0.15238 -0.170521 -0.188661 -0.206802 -0.224943 -0.243083 -0.261224 -0.279364 -0.297505 -0.315646 -0.333786 -0.351927 -0.370067 -0.388208 -0.406349 -0.424489 -0.44263 -0.46077 -0.478911 -0.497051 -0.515192 -0.533333 -0.551473 -0.569614 -0.587754 -0.605895 -0.624036 -0.642176 -0.660317 -0.678457 -0.696598 -0.714739 -0.732879 -0.75102 -0.76916 -0.787301 -0.794559 -0.776418 -0.758277 -0.740137 -0.721996 -0.703856 -0.685715 -0.667574 -0.649434 -0.631293 -0.613153 -0.595012 -0.576871 -0.558731 -0.54059 -0.52245 -0.504309 -0.486168 -0.468028 -0.449887 -0.431747 -0.413606 -0.395466 -0.377325 -0.359184 -0.341044 -0.322903 -0.304763 -0.286622 -0.268481 -0.250341 -0.2322 -0.21406 -0.195919 -0.177778 -0.159638 -0.141497 -0.123357 -0.105216 -0.0870755 -0.0689349 -0.0507944 -0.0326538 -0.0145132 0 0 0 0 0 0 0 0 0 0 0 0 0 0 0 0 0 0 0 0 0 0 0 0 0 0 0 0 0 0 0 0 0 0 0 0 0 0 0 0 0 0 0 0 0 0 0 0 0 0 0 0 0 0 0 0 0 0 0 0 0 0 0 0 0 0 0 0 0 0 0 0 0 0 0 0 0 0 0 0 0 0 0 0 0 0 0 0 0 0 0 0 0 0 0 0 0 0 0 0 0 0 0 0 0 0 0 0 0 0 0 0 0 0 0 0 0 0 0 0 0 0 0 0 0 0 0 0 0 0 0 0 0 0 0 0 0 0 0 0 0 0 0 0 0 0 0 0 0 0 0 0 0 0 0 0 0 0 0 0 0 0 0 0 0 0 0 0 0 0 0 0 0 0 0 0 0 0 0 0 0 0 0 0 0 0 0 0 0 0 0 0 0 0 0 0 0 0 0 0 0 0 0 0 0 0 0 0 0 0 0 0 0 0 0 0 0 0 0 0 0 0 0 0 0 0 0 0 0 0 0 0 0 0 0 0 0 0 0 0 0 0 0 0 0 0 0 0 0 0 0 0 0 0 0 0 0 0 0 0 0 0 0 0 0 0 0 0 0 0 0 0 0 0 0 0 0 0 0 0 0 0 0 0 0 0 0 0 0 0 0 0 0 0 0 0 0 0 0 0 0 0 0 0 0 0 0 0 0 0 0 0 0 0 0 0 0 0 0 0 0 0 0 0 0 0 0 0 0 0 0 0 0 0 0 0 0 0 0 0 0 0 0 0 0 0 0 0 0 0 0 0 0 0 0 0 0 0 0 0 0 0 0 0 0 0 0 0 0 0 0 0 0 0 0 0 0 0 0 0 0 0 0 0 0 0 0 0 0 0 0 0 0 0 0 0 0 0 0 0 0 0 0 0 0 0 0 0 0 0 0 0 0 0 0 0 0 0 0 0 0 0 0 0 0 0 0 0 0 0 0 0 0 0 0 0 0 0 0 0 0 0 0 0 0 0 0 0 0 0 0 0 0 0 0 0 0 0 0 0 0 0 0 0 0 0 0 0 0 0 0 0 0 0 0 0 0 0 0 0 0 0 0 0 0 0 0 0 0 0 0 0 0 0 0 0 0 0 0 0 0 0 0 0 0 0 0 0 0 0 0 0 0 0 0 0 0 0 0 0 0 0 0 0 0 0 0 0 0 0 0 0 0 0 0 0 0 0 0 0 0 0 0 0 0 0 0 0 0 0 0 0 0 0 0 0 0 0 0 0 0 0 0 0 0 0 0 0 0 0 0 0 0 0 0 0 0 0 0 0 0 0 0 0 0 0 0 0 0 0 0 0 0 0 0 0 0 0 0 0 0 0 0 0 0 0 0 0 0 0 0 0 0 0 0 0 0 0 0 0 0 0 0 0 0 0 0 0 0 0 0 0 0 0 0 0 0 0 0 0 0 0 0 0 0 0 0 0 0 0 0 0 0 0 0 0 0 0 0 0 0 0 0 0 0 0 0 0 0 0 0 0 0 0 0 0 0 0 0 0 0 0 0 0 0 0 0 0 0 0 0 0 0 0 0 0 0 0 0 0 0 0 0 0 0 0 0 0 0 0 0 0 0 0 0 0 0 0 0 0 0 0 0 0 0 0 0 0 0 0 0 0 0 0 0 0 0 0 0 0 0 0 0 0 0 0 0 0 0 0 0 0 0 0 0 0 0 0 0 0 0 0 0 0 0 0 0 0 0 0 0 0 0 0 0 0 0 0 0 0 0 0 0 0 0 0 0 0 0 0 0 0 0 0 0 0 0 0 0 0 0 0 0 0 0 0 0 0 0 0 0 0 0 0 0 0 0 0 0 0 0 0 0 0 0 0 0 0 0 0 0 0 0 0 0 0 0 0 0 0 0 0 0 0 0 0 0 0 0 0 0 0 0 0 0 0 0 0 0 0 0 0 0 0 0 0 0 0 0 0 0 0 0 0 0 0 0 0 0 0 0 0 0 0;
#A 3000 0 0 0 0 0 0 0 0 0 0 0 0 0 0 0 0 0 0 0 0 0 0 0 0 0 0 0 0 0 0 0 0 0 0 0 0 0 0 0 0 0 0 0 0 0 0 0 0 0 0 0 0 0 0 0 0 0 0 0 0 0 0 0 0 0 0 0 0 0 0 0 0 0 0 0 0 0 0 0 0 0 0 0 0 0 0 0 0 0 0 0 0 0 0 0 0 0 0 0 0 0 0 0 0 0 0 0 0 0 0 0 0 0 0 0 0 0 0 0 0 0 0 0 0 0 0 0 0 0 0 0 0 0 0 0 0 0 0 0 0 0 0 0 0 0 0 0 0 0 0 0 0 0 0 0 0 0 0 0 0 0 0 0 0 0 0 0 0 0 0 0 0 0 0 0 0 0 0 0 0 0 0 0 0 0 0 0 0 0 0 0 0 0 0 0 0 0 0 0 0 0 0 0 0 0 0 0 0 0 0 0 0 0 0 0 0 0 0 0 0 0 0 0 0 0 0 0 0 0 0 0 0 0 0 0 0 0 0 0 0 0 0 0 0 0 0 0 0 0 0 0 0 0 0 0 0 0 0 0 0 0 0 0 0 0 0 0 0 0 0 0 0 0 0 0 0 0 0 0 0 0 0 0 0 0 0 0 0 0 0 0 0 0 0 0 0 0 0 0 0 0 0 0 0 0 0 0 0 0 0 0 0 0 0 0 0 0 0 0 0 0 0 0 0 0 0 0 0 0 0 0 0 0 0 0 0 0 0 0 0 0 0 0 0 0 0 0 0 0 0 0 0 0 0 0 0 0 0 0 0 0 0 0 0 0 0 0 0 0 0 0 0 0 0 0 0 0 0 0 0 0 0 0 0 0 0 0 0 0 0 0 0 0 0 0 0 0 0 0 0 0 0 0 0 0 0 0 0 0 0 0 0 0 0 0 0 0 0 0 0 0 0 0 0 0 0 0 0 0 0 0 0 0 0 0 0 0 0 0 0 0 0 0 0 0 0 0 0 0 0 0 0 0 0 0 0 0 0 0 0 0 0 0 0 0 0 0 0 0 0 0 0 0 0 0 0 0 0 0 0 0 0 0 0 0 0 0 0 0 0 0 0 0 0 0 0 0 0 0 0 0 0 0 0 0 0 0 0 0 0 0 0 0 0 0 0 0 0 0 0 0 0 0 0 0 0 0 0 0 0 0 0 0 0 0 0 0 0 0 0 0 0 0 0 0 0 0 0 0 0 0 0 0 0 0 0 0 0 0 0 0 0 0 0 0 0 0 0 0 0 0 0 0 0 0 0 0 0 0 0 0 0 0 0 0 0 0 0 0 0 0 0 0 0 0 0 0 0 0 0 0 0 0 0 0 0 0 0 0 0 0 0 0 0 0 0 0 0 0 0 0 0 0 0 0 0 0 0 0 0 0 0 0 0 0 0 0 0 0 0 0 0 0 0 0 0 0 0 0 0 0 0 0 0 0 0 0 0 0 0 0 0 0 0 0 0 0 0 0 0 0 0 0 0 0 0 0 0 0 0 0 0 0 0 0 0 0 0 0 0 0 0 0 0 0 0 0 0 0 0 0 0 0 0 0.000155066 0.000566383 0.0012303 0.00214321 0.00330158 0.00470191 0.00634074 0.00821468 0.0103204 0.0126545 0.0152139 0.0179953 0.0209955 0.0242114 0.0276399 0.0312781 0.0351228 0.0391713 0.0434205 0.0478677 0.0525099 0.0573445 0.0623687 0.0675797 0.0729749 0.0785518 0.0843076 0.0902399 0.0963461 0.102624 0.109071 0.115684 0.122461 0.129401 0.1365 0.143756 0.151168 0.158732 0.166447 0.17431 0.18232 0.190475 0.198771 0.207208 0.215525 0.223464 0.231032 0.238234 0.245075 0.25156 0.257694 0.263482 0.268929 0.27404 0.27882 0.283273 0.287405 0.291219 0.29472 0.297913 0.300802 0.303391 0.305685 0.307688 0.309404 0.310837 0.311991 0.31287 0.313478 0.313819 0.313897 0.313715 0.313277 0.312587 0.311649 0.310465 0.30904 0.307376 0.305478 0.303349 0.300991 0.298408 0.295604 0.292582 0.289343 0.285893 0.282233 0.278367 0.274298 0.270028 0.26556 0.260898 0.256044 0.251 0.24577 0.240355 0.23476 0.228986 0.223035 0.216911 0.210616 0.204152 0.197521 0.190727 0.18377 0.176655 0.169382 0.161955 0.154375 0.146645 0.138766 0.130741 0.122572 0.11426 0.105809 0.0972198 0.0884944 0.0796349 0.0706431 0.061521 0.0522704 0.0428931 0.033391 0.0237658 0.0140193 0.00415318 -0.00583082 -0.015931 -0.0261458 -0.0364735 -0.0469125 -0.0574612 -0.0679631 -0.0780569 -0.0877483 -0.0970433 -0.105947 -0.114466 -0.122605 -0.130369 -0.137765 -0.144796 -0.151469 -0.157789 -0.16376 -0.169387 -0.174676 -0.179631 -0.184257 -0.188558 -0.19254 -0.196206 -0.199562 -0.202612 -0.20536 -0.20781 -0.209966 -0.211834 -0.213416 -0.214718 -0.215742 -0.216494 -0.216976 -0.217193 -0.217148 -0.216846 -0.216289 -0.215482 -0.214428 -0.21313 -0.211593 -0.209819 -0.207812 -0.205574 -0.203111 -0.200424 -0.197568 -0.194753 -0.191978 -0.189243 -0.186547 -0.183889 -0.181269 -0.178686 -0.176141 -0.173631 -0.171157 -0.168719 -0.166315 -0.163945 -0.161609 -0.159307 -0.157037 -0.1548 -0.152594 -0.15042 -0.148277 -0.146164 -0.144082 -0.142029 -0.140005 -0.138011 -0.136044 -0.134106 -0.132195 -0.130312 -0.128455 -0.126625 -0.124821 -0.123043 -0.12129 -0.119561 -0.117858 -0.116179 -0.114524 -0.112892 -0.111283 -0.109698 -0.108135 -0.106594 -0.105076 -0.103579 -0.102103 -0.100648 -0.0992141 -0.0978005 -0.0964071 -0.0950335 -0.0936795 -0.0923448 -0.0910291 -0.0897322 -0.0884537 -0.0871935 -0.0859512 -0.0847266 -0.0835194 -0.0823295 -0.0811565 -0.0800002 -0.0788604 -0.0777368 -0.0766293 -0.0755375 -0.0744612 -0.0734004 -0.0723546 -0.0713237 -0.0703075 -0.0693058 -0.0683183 -0.067345 -0.0663855 -0.0654396 -0.0645073 -0.0635882 -0.0626822 -0.0617892 -0.0609088 -0.060041 -0.0591856 -0.0583423 -0.0575111 -0.0566917 -0.055884 -0.0550877 -0.0543029 -0.0535292 -0.0527665 -0.0520147 -0.0512737 -0.0505431 -0.049823 -0.0491131 -0.0484134 -0.0477236 -0.0470437 -0.0463734 -0.0457127 -0.0450614 -0.0444194 -0.0437865 -0.0431627 -0.0425477 -0.0419415 -0.0413439 -0.0407549 -0.0401742 -0.0396018 -0.0390376 -0.0384814 -0.0379332 -0.0373927 -0.0368599 -0.0363348 -0.0358171;
#A 4000 -0.0353068 -0.0348037 -0.0343079 -0.0338191 -0.0333372 -0.0328623 -0.032394 -0.0319325 -0.0314776 -0.0310291 -0.030587 -0.0301512 -0.0297216 -0.0292981 -0.0288807 -0.0284692 -0.0280636 -0.0276638 -0.0272696 -0.0268811 -0.0264981 -0.0261206 -0.0257484 -0.0253816 -0.0250199 -0.0246635 -0.0243121 -0.0239657 -0.0236242 -0.0232876 -0.0229559 -0.0226288 -0.0223064 -0.0219886 -0.0216753 -0.0213665 -0.021062 -0.020762 -0.0204662 -0.0201746 -0.0198871 -0.0196038 -0.0193245 -0.0190491 -0.0187777 -0.0185102 -0.0182465 -0.0179865 -0.0177302 -0.0174776 -0.0172286 -0.0169831 -0.0167412 -0.0165027 -0.0162675 -0.0160358 -0.0158073 -0.0155821 -0.0153601 -0.0151412 -0.0149255 -0.0147128 -0.0145032 -0.0142966 -0.0140929 -0.0138921 -0.0136942 -0.0134991 -0.0133067 -0.0131171 -0.0129303 -0.012746 -0.0125644 -0.0123854 -0.012209 -0.012035 -0.0118635 -0.0116945 -0.0115279 -0.0113637 -0.0112017 -0.0110421 -0.0108848 -0.0107297 -0.0105769 -0.0104262 -0.0102776 -0.0101312 -0.00998685 -0.00984456 -0.0097043 -0.00956604 -0.00942974 -0.00929539 -0.00916296 -0.00903241;
#X coords 0 1 4096 -1 200 140 1;
#X restore 682 664 graph;
#X obj 462 281 bng 15 250 50 0 empty empty oneshot 0 -6 1 8 #fcfcfc #000000 #000000;
#X obj 462 505 +~;
#X obj 584 376 del 12;
#X obj 439 230 tgl 15 0 empty empty auto 0 -6 1 8 #fcfcfc #000000 #000000 0 1;
#X floatatom 621 359 5 0 0 2 noise - - 0;
#X obj 584 416 f 100;
#X floatatom 614 397 5 0 0 0 - - - 0;
#X obj 1282 214 hip~ 100;
#X obj 439 249 metro 80;
#X obj 1282 192 delread~ a 100;
#X obj 523 373 del 12;
#X floatatom 560 356 5 0 0 2 barrel - - 0;
#X floatatom 531 557 5 0 0 0 - - - 0;
#X obj 481 620 *~;
#X floatatom 569 577 5 0 100 0 - - - 0;
#X floatatom 546 396 5 0 0 0 - - - 0;
#X obj 523 418 f 20;
#X floatatom 485 349 5 0 0 2 chirptime - - 0;
#N canvas 0 0 180 260 barrel 0;
#X obj 54 41 vline~;
#X obj -1 179 cos~;
#X obj -1 157 -~ 0.25;
#X obj -1 135 wrap~;
#X obj -1 113 pow~;
#X obj 38 217 *~;
#X obj 23 92 sig~ 2;
#X msg 54 21 0 \, 1 0 0 \, 0 \$1 0;
#X obj -1 72 *~ 2;
#X obj 54 0 inlet;
#X obj 38 240 outlet~;
#X connect 0 0 8 0;
#X connect 0 0 5 1;
#X connect 1 0 5 0;
#X connect 2 0 1 0;
#X connect 3 0 2 0;
#X connect 4 0 3 0;
#X connect 5 0 10 0;
#X connect 6 0 4 1;
#X connect 7 0 0 0;
#X connect 8 0 4 0;
#X connect 9 0 7 0;
#X restore 523 442 pd barrel;
#N canvas 0 0 126 206 shell 0;
#X obj 3 162 cos~;
#X obj 3 40 vline~;
#X obj 3 141 -~ 0.25;
#X obj 3 121 wrap~;
#X obj 3 101 pow~;
#X obj 3 60 *~ 1.05;
#X obj 25 81 sig~ 64;
#X obj 3 -2 inlet;
#X obj 3 185 outlet~;
#X msg 3 19 0 \, 1 0 0 \, 0 \$1;
#X connect 0 0 8 0;
#X connect 1 0 5 0;
#X connect 2 0 0 0;
#X connect 3 0 2 0;
#X connect 4 0 3 0;
#X connect 5 0 4 0;
#X connect 6 0 4 1;
#X connect 7 0 9 0;
#X connect 9 0 1 0;
#X restore 462 478 pd shell;
#N canvas 497 98 272 361 noiseburst 0;
#X obj 104 79 vline~;
#X obj 104 180 *~;
#X obj 104 104 *~;
#X obj 104 129 *~;
#X obj 104 154 *~;
#X obj 104 317 outlet~;
#X obj 104 28 inlet;
#N canvas 518 256 450 300 nwavenoise 0;
#X obj 131 200 max~;
#X obj 131 167 -~ 1;
#X obj 186 166 *~ -1;
#X obj 131 250 +~ 0.5;
#X obj 131 225 *~ 2;
#X obj 128 20 noise~;
#X obj 130 129 phasor~;
#X obj 131 281 outlet~;
#X obj 128 65 hip~ 40;
#X obj 130 108 +~ 100;
#X obj 128 87 *~ 5000;
#X obj 127 43 bp~ 3000 2;
#X connect 0 0 4 0;
#X connect 1 0 0 0;
#X connect 2 0 0 1;
#X connect 3 0 7 0;
#X connect 4 0 3 0;
#X connect 5 0 11 0;
#X connect 6 0 1 0;
#X connect 6 0 2 0;
#X connect 8 0 10 0;
#X connect 9 0 6 0;
#X connect 10 0 9 0;
#X connect 11 0 8 0;
#X restore 131 155 pd nwavenoise;
#X msg 104 56 0 \, 1 0 7 \, 0 \$1 7;
#X connect 0 0 2 0;
#X connect 0 0 2 1;
#X connect 1 0 5 0;
#X connect 2 0 3 0;
#X connect 2 0 3 1;
#X connect 3 0 4 0;
#X connect 3 0 4 1;
#X connect 4 0 1 0;
#X connect 6 0 8 0;
#X connect 7 0 1 1;
#X connect 8 0 0 0;
#X restore 584 466 pd noiseburst;
#X obj 493 229 hsl 128 15 30 700 0 1 empty empty automatic-fire 20 7 1 8 #fcfcfc #000000 #000000 1200 1;
#X obj 463 529 +~;
#X obj 481 858 *~ 0.8;
#X obj 462 366 f 60;
#X floatatom 1282 162 5 20 400 0 - - - 0;
#X obj 481 579 bpar8~ 3;
#X obj 458 901 dac~;
#X obj 504 902 *~ 0.85;
#X obj 504 926 delwrite~ a 400;
#X obj 1225 260 combsweep;
#N canvas 119 38 246 251 nwave 0;
#X obj 0 143 vline~;
#X obj 21 48 t a a;
#X obj 0 100 pack f f;
#X obj 51 75 + 1;
#X msg 0 122 1 1 0 \, -1 \$1 1 \, 0 1 \$2;
#X obj 21 0 inlet;
#X obj 10 168 delwrite~ i 40;
#X obj 116 167 delread~ i 40;
#X obj 0 233 outlet~;
#X obj 116 187 lop~ 100;
#X obj 116 0 inlet weaponheight;
#X msg 21 24 2;
#X connect 0 0 6 0;
#X connect 0 0 8 0;
#X connect 1 0 2 0;
#X connect 1 1 3 0;
#X connect 2 0 4 0;
#X connect 3 0 2 1;
#X connect 4 0 0 0;
#X connect 5 0 11 0;
#X connect 7 0 9 0;
#X connect 9 0 8 0;
#X connect 10 0 7 0;
#X connect 11 0 1 0;
#X restore 574 790 pd nwave;
#X obj 646 325 s trig;
#X obj 462 305 trigger bang bang bang bang;
#X obj 568 872 r trig;
#X obj 1225 214 r trig;
#X text 1268 142 optional environment;
#X obj 1225 284 rev3~ 100 60 5000 10;
#X obj 1225 237 del 100;
#X obj 559 737 r trig;
#X floatatom 611 742 5 0 0 2 shockwave - - 0;
#X obj 506 537 r body formant;
#X floatatom 625 773 5 10 100 2 height - - 0;
#X obj 574 759 del 44;
#X obj 406 530 r~ body;
#N canvas 0 0 450 300 mux 0;
#X obj 243 185 *~;
#X obj 273 185 *~;
#X obj 207 102 inlet~;
#X obj 262 102 inlet~;
#X obj 231 237 outlet~;
#X obj 287 147 == 0;
#X obj 112 119 tgl 15 0 empty empty empty 0 -6 0 8 #fcfcfc #000000 #000000 0 1;
#X connect 0 0 4 0;
#X connect 1 0 4 0;
#X connect 2 0 0 0;
#X connect 3 0 1 0;
#X connect 5 0 0 1;
#X connect 6 0 5 0;
#X connect 6 0 1 1;
#X coords 0 -1 1 1 40 40 1 100 100;
#X restore 461 712 pd mux;
#N canvas 96 399 733 584 tanh 0;
#X obj 241 65 inlet~;
#X obj 240 148 *~;
#X obj 165 265 /~;
#X obj 165 350 /~;
#X obj 165 288 /~;
#X obj 165 321 /~;
#X obj 240 206 +~ 1;
#X obj 165 436 outlet~;
#X obj 287 205 +~ 3;
#X obj 337 206 +~ 5;
#X obj 384 205 +~ 7;
#X obj 433 205 +~ 9;
#X obj 165 372 /~;
#X text 276 114 2/pi;
#X obj 166 399 *~ 2700;
#X obj 241 89 *~ 0.6;
#X connect 0 0 15 0;
#X connect 1 0 6 0;
#X connect 1 0 8 0;
#X connect 1 0 9 0;
#X connect 1 0 10 0;
#X connect 1 0 11 0;
#X connect 2 0 4 0;
#X connect 3 0 12 0;
#X connect 4 0 5 0;
#X connect 5 0 3 0;
#X connect 6 0 2 1;
#X connect 8 0 4 1;
#X connect 9 0 5 1;
#X connect 10 0 3 1;
#X connect 11 0 12 1;
#X connect 12 0 14 0;
#X connect 14 0 7 0;
#X connect 15 0 1 1;
#X connect 15 0 1 0;
#X connect 15 0 2 0;
#X restore 462 656 pd tanh tgrill;
#N canvas 0 0 713 460 tanh 0;
#X obj 241 65 inlet~;
#X text 493 89 __;
#X text 575 89 __;
#X text 527 89 __;
#X text 626 89 __;
#X text 493 106 1 +;
#X text 529 106 3 +;
#X text 577 106 5 +;
#X text 627 106 7 +;
#X text 443 32 As a continued fraction;
#X obj 240 148 *~;
#X obj 165 265 /~;
#X obj 165 350 /~;
#X obj 165 288 /~;
#X obj 165 321 /~;
#X text 427 78 tanh(z) = z z^2 4z^2 9z^2 ...;
#X obj 292 175 *~ 4;
#X obj 291 206 +~ 3;
#X obj 335 174 *~ 9;
#X obj 334 205 +~ 5;
#X obj 375 175 *~ 16;
#X obj 374 205 +~ 7;
#X obj 240 206 +~ 1;
#X obj 165 401 outlet~;
#X obj 165 372 *~ 576;
#X text 276 114 1/pi;
#X obj 241 89 *~ 0.30831;
#X connect 0 0 26 0;
#X connect 10 0 16 0;
#X connect 10 0 18 0;
#X connect 10 0 20 0;
#X connect 10 0 22 0;
#X connect 11 0 13 0;
#X connect 12 0 24 0;
#X connect 13 0 14 0;
#X connect 14 0 12 0;
#X connect 16 0 17 0;
#X connect 17 0 13 1;
#X connect 18 0 19 0;
#X connect 19 0 14 1;
#X connect 20 0 21 0;
#X connect 21 0 12 1;
#X connect 22 0 11 1;
#X connect 24 0 23 0;
#X connect 26 0 10 1;
#X connect 26 0 10 0;
#X connect 26 0 11 0;
#X restore 499 682 pd tanh afarnell;
#X obj 569 596 / 100;
#X obj 391 24 loadbang;
#X msg 1283 44 21;
#X msg 393 68 200;
#X msg 469 93 555;
#X msg 548 96 369;
#X msg 600 95 311;
#X msg 649 97 413;
#X msg 698 97 374;
#X connect 3 0 36 0;
#X connect 4 0 25 0;
#X connect 5 0 8 0;
#X connect 6 0 11 0;
#X connect 7 0 5 1;
#X connect 8 0 23 0;
#X connect 9 0 8 1;
#X connect 10 0 33 1;
#X connect 11 0 36 0;
#X connect 12 0 10 0;
#X connect 13 0 19 0;
#X connect 14 0 13 1;
#X connect 15 0 29 2;
#X connect 16 0 49 0;
#X connect 16 0 50 0;
#X connect 17 0 51 0;
#X connect 18 0 19 1;
#X connect 19 0 21 0;
#X connect 20 0 27 1;
#X connect 21 0 4 1;
#X connect 22 0 4 0;
#X connect 23 0 25 1;
#X connect 24 0 11 1;
#X connect 25 0 29 0;
#X connect 26 0 1 0;
#X connect 26 0 31 0;
#X connect 26 0 30 0;
#X connect 26 0 30 1;
#X connect 27 0 22 0;
#X connect 28 0 12 0;
#X connect 28 0 41 1;
#X connect 29 0 16 0;
#X connect 31 0 32 0;
#X connect 33 0 40 0;
#X connect 34 0 26 0;
#X connect 36 0 27 0;
#X connect 36 1 13 0;
#X connect 36 2 5 0;
#X connect 36 3 35 0;
#X connect 37 0 1 0;
#X connect 38 0 41 0;
#X connect 40 0 0 0;
#X connect 40 1 0 1;
#X connect 41 0 33 0;
#X connect 42 0 46 0;
#X connect 43 0 46 1;
#X connect 44 0 29 1;
#X connect 45 0 34 1;
#X connect 46 0 34 0;
#X connect 47 0 29 0;
#X connect 48 0 26 0;
#X connect 49 0 48 0;
#X connect 50 0 48 1;
#X connect 51 0 16 1;
#X connect 52 0 53 0;
#X connect 52 0 54 0;
#X connect 52 0 55 0;
#X connect 52 0 56 0;
#X connect 52 0 57 0;
#X connect 52 0 58 0;
#X connect 52 0 59 0;
#X connect 53 0 28 0;
#X connect 54 0 20 0;
#X connect 55 0 14 0;
#X connect 56 0 7 0;
#X connect 57 0 18 0;
#X connect 58 0 9 0;
#X connect 59 0 15 0;
#X restore 145 277 pd gunshot;
#N canvas 730 394 904 649 footsteps 0;
#X obj 1 92 splitphase;
#X obj 220 156 * 3;
#X obj 261 157 * 3;
#X obj 302 156 * 3;
#X obj 26 226 dac~;
#N canvas 882 234 470 305 texturesource 0;
#X obj 125 83 inlet~;
#X obj 128 243 outlet~;
#N canvas 0 0 855 637 8demux~ 0;
#X obj 223 17 inlet;
#X obj 223 47 route snow grass dirt gravel wood concrete metal;
#X obj 372 445 *~;
#X obj 398 445 *~;
#X obj 425 445 *~;
#X obj 451 445 *~;
#X obj 478 445 *~;
#X obj 504 445 *~;
#X obj 531 445 *~;
#X obj 557 445 *~;
#X msg 214 101 1;
#X msg 244 101 0;
#X obj 223 72 t b;
#X msg 268 129 1;
#X msg 298 129 0;
#X obj 277 100 t b;
#X msg 322 157 1;
#X msg 352 157 0;
#X obj 331 128 t b;
#X msg 377 186 1;
#X msg 407 186 0;
#X obj 386 157 t b;
#X msg 429 215 1;
#X msg 459 215 0;
#X obj 438 186 t b;
#X msg 481 244 1;
#X msg 511 244 0;
#X obj 490 215 t b;
#X msg 531 273 1;
#X msg 561 273 0;
#X obj 540 244 t b;
#X msg 581 302 1;
#X msg 611 302 0;
#X obj 590 273 t b;
#X text 586 384 why can I never think of a better way to do this?;
#X obj 204 202 inlet~;
#X obj 372 477 outlet~;
#X obj 398 502 outlet~;
#X obj 426 526 outlet~;
#X obj 452 551 outlet~;
#X obj 479 574 outlet~;
#X obj 505 599 outlet~;
#X obj 530 623 outlet~;
#X obj 556 648 outlet~;
#X connect 0 0 1 0;
#X connect 1 0 12 0;
#X connect 1 1 15 0;
#X connect 1 2 18 0;
#X connect 1 3 21 0;
#X connect 1 4 24 0;
#X connect 1 5 27 0;
#X connect 1 6 30 0;
#X connect 1 7 33 0;
#X connect 2 0 36 0;
#X connect 3 0 37 0;
#X connect 4 0 38 0;
#X connect 5 0 39 0;
#X connect 6 0 40 0;
#X connect 7 0 41 0;
#X connect 8 0 42 0;
#X connect 9 0 43 0;
#X connect 10 0 2 1;
#X connect 11 0 3 1;
#X connect 11 0 4 1;
#X connect 11 0 5 1;
#X connect 11 0 6 1;
#X connect 11 0 7 1;
#X connect 11 0 8 1;
#X connect 11 0 9 1;
#X connect 12 0 10 0;
#X connect 12 0 11 0;
#X connect 13 0 3 1;
#X connect 14 0 2 1;
#X connect 14 0 4 1;
#X connect 14 0 5 1;
#X connect 14 0 6 1;
#X connect 14 0 7 1;
#X connect 14 0 8 1;
#X connect 14 0 9 1;
#X connect 15 0 13 0;
#X connect 15 0 14 0;
#X connect 16 0 4 1;
#X connect 17 0 2 1;
#X connect 17 0 3 1;
#X connect 17 0 5 1;
#X connect 17 0 6 1;
#X connect 17 0 7 1;
#X connect 17 0 8 1;
#X connect 17 0 9 1;
#X connect 18 0 16 0;
#X connect 18 0 17 0;
#X connect 19 0 5 1;
#X connect 20 0 2 1;
#X connect 20 0 3 1;
#X connect 20 0 4 1;
#X connect 20 0 6 1;
#X connect 20 0 7 1;
#X connect 20 0 8 1;
#X connect 20 0 9 1;
#X connect 21 0 19 0;
#X connect 21 0 20 0;
#X connect 22 0 6 1;
#X connect 23 0 2 1;
#X connect 23 0 3 1;
#X connect 23 0 4 1;
#X connect 23 0 5 1;
#X connect 23 0 7 1;
#X connect 23 0 8 1;
#X connect 23 0 9 1;
#X connect 24 0 22 0;
#X connect 24 0 23 0;
#X connect 25 0 7 1;
#X connect 26 0 2 1;
#X connect 26 0 3 1;
#X connect 26 0 4 1;
#X connect 26 0 5 1;
#X connect 26 0 6 1;
#X connect 26 0 8 1;
#X connect 26 0 9 1;
#X connect 27 0 25 0;
#X connect 27 0 26 0;
#X connect 28 0 8 1;
#X connect 29 0 2 1;
#X connect 29 0 3 1;
#X connect 29 0 4 1;
#X connect 29 0 5 1;
#X connect 29 0 6 1;
#X connect 29 0 7 1;
#X connect 29 0 9 1;
#X connect 30 0 28 0;
#X connect 30 0 29 0;
#X connect 31 0 9 1;
#X connect 32 0 2 1;
#X connect 32 0 3 1;
#X connect 32 0 4 1;
#X connect 32 0 5 1;
#X connect 32 0 6 1;
#X connect 32 0 7 1;
#X connect 32 0 8 1;
#X connect 33 0 31 0;
#X connect 33 0 32 0;
#X connect 35 0 2 0;
#X connect 35 0 3 0;
#X connect 35 0 4 0;
#X connect 35 0 5 0;
#X connect 35 0 6 0;
#X connect 35 0 7 0;
#X connect 35 0 8 0;
#X connect 35 0 9 0;
#X restore 125 109 pd 8demux~;
#X obj 190 82 inlet;
#N canvas 0 0 726 641 snowtex 0;
#N canvas 0 0 776 658 snow 0;
#X obj 161 453 *~;
#X obj 109 225 noise~;
#X obj 146 412 vcf~ 200 3;
#X obj 241 366 loadbang;
#X obj 102 270 /~;
#X obj 103 343 clip~ -1 1;
#X obj 60 247 lop~ 110;
#X obj 121 246 lop~ 900;
#X obj 166 169 noise~;
#X obj 165 219 /~;
#X obj 123 196 lop~ 50;
#X obj 184 195 lop~ 70;
#X obj 103 290 *~;
#X obj 192 220 lop~ 10;
#X obj 191 241 *~ 17;
#X obj 190 264 *~;
#X obj 103 313 *~;
#X obj 189 286 +~ 0.5;
#X obj 181 142 inlet~;
#X obj 160 507 outlet~;
#X obj 247 154 switch~;
#X obj 247 128 inlet;
#X obj 102 365 hip~ 300;
#X obj 185 389 +~ 700;
#X obj 185 365 *~ 9000;
#X msg 241 386 0.5;
#X obj 162 476 *~ 0.2;
#X connect 0 0 26 0;
#X connect 1 0 6 0;
#X connect 1 0 7 0;
#X connect 2 0 0 0;
#X connect 3 0 25 0;
#X connect 4 0 12 0;
#X connect 5 0 22 0;
#X connect 6 0 4 0;
#X connect 7 0 4 1;
#X connect 8 0 10 0;
#X connect 8 0 11 0;
#X connect 8 0 13 0;
#X connect 9 0 12 1;
#X connect 10 0 9 0;
#X connect 11 0 9 1;
#X connect 12 0 16 0;
#X connect 13 0 14 0;
#X connect 14 0 15 0;
#X connect 14 0 15 1;
#X connect 15 0 17 0;
#X connect 16 0 5 0;
#X connect 17 0 16 1;
#X connect 18 0 0 1;
#X connect 18 0 24 0;
#X connect 21 0 20 0;
#X connect 22 0 2 0;
#X connect 23 0 2 1;
#X connect 24 0 23 0;
#X connect 25 0 2 2;
#X connect 26 0 19 0;
#X restore 158 117 pd snow;
#X obj 202 75 env~;
#X obj 202 96 > 0.5;
#X obj 180 38 inlet~;
#X obj 158 139 outlet~;
#X connect 0 0 4 0;
#X connect 1 0 2 0;
#X connect 2 0 0 1;
#X connect 3 0 1 0;
#X connect 3 0 0 0;
#X restore 8 170 pd snowtex;
#N canvas 0 0 726 641 dirttex 0;
#X obj 202 75 env~;
#X obj 202 96 > 0.5;
#X obj 180 38 inlet~;
#X obj 158 139 outlet~;
#N canvas 0 0 294 514 dirt 0;
#X obj 54 309 *~;
#X obj 72 47 inlet~;
#X obj 76 443 outlet~;
#X obj 138 59 switch~;
#X obj 138 33 inlet;
#X obj 128 221 osc~;
#X obj 127 157 *~;
#X obj 150 82 noise~;
#X obj 150 127 *~ 70;
#X obj 150 104 lop~ 80;
#X obj 100 127 +~ 0.3;
#X obj 128 242 hip~ 200;
#X obj 71 126 *~;
#X obj 70 148 *~;
#X obj 18 250 osc~ 80;
#X obj 18 228 +~ 40;
#X obj 19 202 *~ 500;
#X obj 77 394 +~;
#X obj 127 264 clip~ -1 1;
#X obj 128 179 *~ 70;
#X obj 126 330 *~ 0.04;
#X obj 55 332 *~ 0.5;
#X obj 128 200 +~ 70;
#X connect 0 0 21 0;
#X connect 1 0 10 0;
#X connect 1 0 12 0;
#X connect 1 0 12 1;
#X connect 4 0 3 0;
#X connect 5 0 11 0;
#X connect 6 0 19 0;
#X connect 7 0 9 0;
#X connect 8 0 6 1;
#X connect 9 0 8 0;
#X connect 10 0 6 0;
#X connect 11 0 18 0;
#X connect 12 0 13 0;
#X connect 12 0 13 1;
#X connect 13 0 0 1;
#X connect 13 0 16 0;
#X connect 14 0 0 0;
#X connect 15 0 14 0;
#X connect 16 0 15 0;
#X connect 17 0 2 0;
#X connect 18 0 20 0;
#X connect 19 0 22 0;
#X connect 20 0 17 1;
#X connect 21 0 17 0;
#X connect 22 0 5 0;
#X restore 158 117 pd dirt;
#X connect 0 0 1 0;
#X connect 1 0 4 1;
#X connect 2 0 0 0;
#X connect 2 0 4 0;
#X connect 4 0 3 0;
#X restore 173 169 pd dirttex;
#N canvas 0 0 726 641 grasstex 0;
#X obj 202 75 env~;
#X obj 202 96 > 0.5;
#X obj 180 38 inlet~;
#X obj 158 139 outlet~;
#N canvas 0 0 888 667 grass 0;
#X obj 163 404 *~;
#X obj 181 142 inlet~;
#X obj 401 564 outlet~;
#X obj 238 140 inlet;
#X obj 180 221 *~;
#X obj 179 243 *~;
#X obj 127 345 osc~ 80;
#X obj 401 527 +~;
#X obj 164 427 *~ 0.8;
#X obj 127 323 +~ 30;
#X obj 127 297 *~ 600;
#X obj 127 369 clip~ 0 0.5;
#X obj 238 166 switch~;
#X obj 725 115 noise~;
#X obj 732 286 lop~ 16;
#X obj 627 405 vcf~ 3333 30;
#X obj 627 248 *~;
#X obj 627 272 *~;
#X obj 733 312 *~ 23800;
#X obj 626 176 /~;
#X obj 655 149 lop~ 2000;
#X obj 593 149 lop~ 300;
#X obj 626 315 clip~ -0.9 0.9;
#X obj 733 334 +~ 3400;
#X obj 626 293 *~ 1e-05;
#X obj 626 213 hip~ 2500;
#X obj 611 489 *~;
#X obj 733 359 clip~ 2000 10000;
#X msg 723 386 1;
#X obj 718 405 init 1;
#X obj 627 435 hip~ 900;
#X obj 627 467 *~ 0.3;
#X connect 0 0 8 0;
#X connect 1 0 4 0;
#X connect 1 0 4 1;
#X connect 1 0 26 0;
#X connect 3 0 12 0;
#X connect 4 0 5 0;
#X connect 4 0 5 1;
#X connect 5 0 0 1;
#X connect 5 0 10 0;
#X connect 6 0 11 0;
#X connect 7 0 2 0;
#X connect 8 0 7 0;
#X connect 9 0 6 0;
#X connect 10 0 9 0;
#X connect 11 0 0 0;
#X connect 13 0 14 0;
#X connect 13 0 20 0;
#X connect 13 0 21 0;
#X connect 14 0 18 0;
#X connect 15 0 30 0;
#X connect 16 0 17 0;
#X connect 16 0 17 1;
#X connect 17 0 24 0;
#X connect 18 0 23 0;
#X connect 19 0 25 0;
#X connect 20 0 19 1;
#X connect 21 0 19 0;
#X connect 22 0 15 0;
#X connect 23 0 27 0;
#X connect 24 0 22 0;
#X connect 25 0 16 0;
#X connect 25 0 16 1;
#X connect 26 0 7 1;
#X connect 27 0 15 1;
#X connect 28 0 15 2;
#X connect 29 0 15 2;
#X connect 30 0 31 0;
#X connect 31 0 26 1;
#X restore 158 117 pd grass;
#X connect 0 0 1 0;
#X connect 1 0 4 1;
#X connect 2 0 0 0;
#X connect 2 0 4 0;
#X connect 4 0 3 0;
#X restore 87 170 pd grasstex;
#N canvas 360 185 726 641 gravtex 0;
#X obj 202 75 env~;
#X obj 202 96 > 0.5;
#X obj 180 38 inlet~;
#X obj 158 139 outlet~;
#N canvas 273 118 492 597 gravel 0;
#X obj 123 19 inlet~;
#X obj 123 499 outlet~;
#X obj 293 69 inlet;
#X obj 293 95 switch~;
#X obj 252 14 noise~;
#X obj 136 160 *~;
#X obj 136 107 /~;
#X obj 166 70 lop~ 2000;
#X obj 104 70 lop~ 300;
#X obj 137 241 clip~ -0.9 0.9;
#X obj 122 475 *~;
#X obj 156 380 clip~ 500 10000;
#X obj 154 271 lop~ 50;
#X obj 137 134 hip~ 400;
#X obj 137 219 *~ 0.01;
#X obj 155 297 *~ 50000;
#X obj 138 430 hip~ 200;
#X obj 138 453 *~ 2;
#X obj 156 355 +~;
#X obj 173 330 *~ 1000;
#X obj 138 406 vcf~ 3;
#X connect 0 0 10 0;
#X connect 0 0 19 0;
#X connect 2 0 3 0;
#X connect 4 0 7 0;
#X connect 4 0 8 0;
#X connect 4 0 12 0;
#X connect 5 0 14 0;
#X connect 6 0 13 0;
#X connect 7 0 6 1;
#X connect 8 0 6 0;
#X connect 9 0 20 0;
#X connect 10 0 1 0;
#X connect 11 0 20 1;
#X connect 12 0 15 0;
#X connect 13 0 5 0;
#X connect 13 0 5 1;
#X connect 14 0 9 0;
#X connect 15 0 18 0;
#X connect 16 0 17 0;
#X connect 17 0 10 1;
#X connect 18 0 11 0;
#X connect 19 0 18 1;
#X connect 20 0 16 0;
#X restore 158 117 pd gravel;
#X connect 0 0 1 0;
#X connect 1 0 4 1;
#X connect 2 0 0 0;
#X connect 2 0 4 0;
#X connect 4 0 3 0;
#X restore 250 168 pd gravtex;
#N canvas 0 0 726 641 woodtex 0;
#X obj 202 75 env~;
#X obj 202 96 > 0.5;
#X obj 180 38 inlet~;
#X obj 158 139 outlet~;
#N canvas 0 0 1177 818 wood 0;
#X obj 470 445 *~;
#X obj 181 142 inlet~;
#X obj 401 564 outlet~;
#X obj 238 140 inlet;
#X obj 180 221 *~;
#X obj 401 527 +~;
#X obj 237 163 switch~;
#X obj 466 255 noise~;
#X obj 419 322 *~ 6;
#X obj 801 262 noise~;
#X obj 355 423 *~;
#X obj 737 287 bp~ 123 20;
#X obj 180 251 *~ 2;
#X obj 336 293 bp~ 95 90;
#X obj 411 291 bp~ 134 90;
#X obj 489 290 bp~ 139 90;
#X obj 567 290 bp~ 154 90;
#X obj 815 286 bp~ 156 90;
#X obj 893 286 bp~ 189 90;
#X obj 745 318 *~ 8;
#X obj 662 289 bp~ 201 70;
#X obj 243 258 sqrt~;
#X obj 356 449 *~ 0.5;
#X obj 469 469 *~ 0.6;
#X connect 0 0 23 0;
#X connect 1 0 4 0;
#X connect 1 0 4 1;
#X connect 1 0 21 0;
#X connect 3 0 6 0;
#X connect 4 0 12 0;
#X connect 5 0 2 0;
#X connect 7 0 13 0;
#X connect 7 0 14 0;
#X connect 7 0 15 0;
#X connect 7 0 16 0;
#X connect 8 0 10 1;
#X connect 9 0 11 0;
#X connect 9 0 17 0;
#X connect 9 0 18 0;
#X connect 9 0 20 0;
#X connect 10 0 22 0;
#X connect 11 0 19 0;
#X connect 12 0 0 0;
#X connect 13 0 8 0;
#X connect 14 0 8 0;
#X connect 15 0 8 0;
#X connect 16 0 8 0;
#X connect 17 0 19 0;
#X connect 18 0 19 0;
#X connect 19 0 0 1;
#X connect 20 0 19 0;
#X connect 21 0 10 0;
#X connect 22 0 5 0;
#X connect 23 0 5 0;
#X restore 158 117 pd wood;
#X connect 0 0 1 0;
#X connect 1 0 4 1;
#X connect 2 0 0 0;
#X connect 2 0 4 0;
#X connect 4 0 3 0;
#X restore 332 167 pd woodtex;
#X text 233 81 surface select;
#X text 9 83 control envelope;
#X connect 0 0 2 0;
#X connect 2 0 4 0;
#X connect 2 1 6 0;
#X connect 2 2 5 0;
#X connect 2 3 7 0;
#X connect 2 4 8 0;
#X connect 3 0 2 1;
#X connect 4 0 1 0;
#X connect 5 0 1 0;
#X connect 6 0 1 0;
#X connect 7 0 1 0;
#X connect 8 0 1 0;
#X restore 1 166 pd texturesource;
#X msg 147 118 gravel;
#X obj 222 1 hsl 128 15 0 1 0 1 walkspeed empty walkspeed 38 7 1 8 #fcfcfc #000000 #000000 0 1;
#X obj 346 156 * 1;
#X obj 220 204 s~ n1;
#X obj 261 204 s~ n2;
#X obj 302 204 s~ n3;
#X obj 346 204 s~ a1;
#X obj 222 22 hsl 128 15 0 1 0 1 \$0-heel \$0-heelf heel 38 7 1 8 #fcfcfc #000000 #000000 6350 1;
#X obj 220 134 r \$0-heel;
#X obj 261 113 r \$0-roll;
#X obj 302 134 r \$0-ball;
#X obj 345 112 r \$0-amp;
#X obj 222 42 hsl 128 15 0 1 0 1 \$0-roll empty roll 38 7 1 8 #fcfcfc #000000 #000000 3300 1;
#X obj 222 62 hsl 128 15 0 1 0 1 \$0-ball \$0-ballf ball 38 7 1 8 #fcfcfc #000000 #000000 6350 1;
#X obj 220 178 sig~;
#X obj 261 180 sig~;
#X obj 302 179 sig~;
#X obj 345 180 sig~;
#N canvas 43 30 386 285 foot 0;
#X obj 0 96 clip~ 0 0.33333;
#X obj 265 96 clip~ 0.666666 1;
#X obj 0 144 *~ 3;
#X obj 265 144 *~ 3;
#X obj 265 122 -~ 0.666666;
#X obj 132 96 clip~ 0.125 0.875;
#X obj 132 122 -~ 0.125;
#X obj 132 144 *~ 1.33333;
#N canvas 512 249 114 240 polycurve 0;
#X obj 0 67 *~;
#X obj 0 91 *~;
#X obj 63 42 sig~ 1;
#X obj 37 151 -~;
#X obj 47 177 *~;
#X obj 0 32 *~ 1;
#X obj 47 200 *~ -1.5;
#X obj 63 66 -~;
#X obj 37 127 *~;
#X obj 54 22 inlet~ N;
#X obj 28 67 *~;
#X obj 0 0 inlet~ X;
#X obj 47 222 outlet~ P;
#X connect 0 0 1 0;
#X connect 1 0 8 0;
#X connect 2 0 7 0;
#X connect 3 0 4 0;
#X connect 4 0 6 0;
#X connect 5 0 0 0;
#X connect 5 0 0 1;
#X connect 5 0 1 1;
#X connect 5 0 7 1;
#X connect 5 0 10 0;
#X connect 6 0 12 0;
#X connect 7 0 4 1;
#X connect 8 0 3 0;
#X connect 9 0 10 1;
#X connect 9 0 8 1;
#X connect 10 0 3 1;
#X connect 11 0 5 0;
#X restore 0 195 pd polycurve;
#N canvas 0 0 566 419 polycurve 0;
#X obj 173 193 *~;
#X obj 174 217 *~;
#X obj 237 168 sig~ 1;
#X obj 211 277 -~;
#X obj 220 303 *~;
#X obj 173 158 *~ 1;
#X obj 219 326 *~ -1.5;
#X obj 237 192 -~;
#X obj 210 253 *~;
#X obj 227 148 inlet~ N;
#X obj 201 193 *~;
#X obj 173 126 inlet~ X;
#X obj 218 351 outlet~ P;
#X connect 0 0 1 0;
#X connect 1 0 8 0;
#X connect 2 0 7 0;
#X connect 3 0 4 0;
#X connect 4 0 6 0;
#X connect 5 0 0 0;
#X connect 5 0 0 1;
#X connect 5 0 1 1;
#X connect 5 0 7 1;
#X connect 5 0 10 0;
#X connect 6 0 12 0;
#X connect 7 0 4 1;
#X connect 8 0 3 0;
#X connect 9 0 10 1;
#X connect 9 0 8 1;
#X connect 10 0 3 1;
#X connect 11 0 5 0;
#X restore 132 196 pd polycurve;
#N canvas 0 0 566 419 polycurve 0;
#X obj 173 193 *~;
#X obj 174 217 *~;
#X obj 237 168 sig~ 1;
#X obj 211 277 -~;
#X obj 220 303 *~;
#X obj 173 158 *~ 1;
#X obj 219 326 *~ -1.5;
#X obj 237 192 -~;
#X obj 210 253 *~;
#X obj 227 148 inlet~ N;
#X obj 201 193 *~;
#X obj 173 126 inlet~ X;
#X obj 218 351 outlet~ P;
#X connect 0 0 1 0;
#X connect 1 0 8 0;
#X connect 2 0 7 0;
#X connect 3 0 4 0;
#X connect 4 0 6 0;
#X connect 5 0 0 0;
#X connect 5 0 0 1;
#X connect 5 0 1 1;
#X connect 5 0 7 1;
#X connect 5 0 10 0;
#X connect 6 0 12 0;
#X connect 7 0 4 1;
#X connect 8 0 3 0;
#X connect 9 0 10 1;
#X connect 9 0 8 1;
#X connect 10 0 3 1;
#X connect 11 0 5 0;
#X restore 265 195 pd polycurve;
#X obj 80 170 r~ n1;
#X obj 210 170 r~ n2;
#X obj 344 170 r~ n3;
#X obj 132 0 inlet~;
#X obj 132 267 outlet~;
#X obj 132 26 clip~ 0 0.75;
#X obj 132 54 *~ 1.33333;
#X connect 0 0 2 0;
#X connect 1 0 4 0;
#X connect 2 0 8 0;
#X connect 3 0 10 0;
#X connect 4 0 3 0;
#X connect 5 0 6 0;
#X connect 6 0 7 0;
#X connect 7 0 9 0;
#X connect 8 0 15 0;
#X connect 9 0 15 0;
#X connect 10 0 15 0;
#X connect 11 0 8 1;
#X connect 12 0 9 1;
#X connect 13 0 10 1;
#X connect 14 0 16 0;
#X connect 16 0 17 0;
#X connect 17 0 0 0;
#X connect 17 0 5 0;
#X connect 17 0 1 0;
#X restore 1 120 pd foot;
#N canvas 0 0 470 305 texturesource 0;
#X obj 125 83 inlet~;
#X obj 128 243 outlet~;
#N canvas 0 0 855 637 8demux~ 0;
#X obj 223 17 inlet;
#X obj 223 47 route snow grass dirt gravel wood concrete metal;
#X obj 372 445 *~;
#X obj 398 445 *~;
#X obj 425 445 *~;
#X obj 451 445 *~;
#X obj 478 445 *~;
#X obj 504 445 *~;
#X obj 531 445 *~;
#X obj 557 445 *~;
#X msg 214 101 1;
#X msg 244 101 0;
#X obj 223 72 t b;
#X msg 268 129 1;
#X msg 298 129 0;
#X obj 277 100 t b;
#X msg 322 157 1;
#X msg 352 157 0;
#X obj 331 128 t b;
#X msg 377 186 1;
#X msg 407 186 0;
#X obj 386 157 t b;
#X msg 429 215 1;
#X msg 459 215 0;
#X obj 438 186 t b;
#X msg 481 244 1;
#X msg 511 244 0;
#X obj 490 215 t b;
#X msg 531 273 1;
#X msg 561 273 0;
#X obj 540 244 t b;
#X msg 581 302 1;
#X msg 611 302 0;
#X obj 590 273 t b;
#X text 586 384 why can I never think of a better way to do this?;
#X obj 204 202 inlet~;
#X obj 372 477 outlet~;
#X obj 398 502 outlet~;
#X obj 426 526 outlet~;
#X obj 452 551 outlet~;
#X obj 479 574 outlet~;
#X obj 505 599 outlet~;
#X obj 530 623 outlet~;
#X obj 556 648 outlet~;
#X connect 0 0 1 0;
#X connect 1 0 12 0;
#X connect 1 1 15 0;
#X connect 1 2 18 0;
#X connect 1 3 21 0;
#X connect 1 4 24 0;
#X connect 1 5 27 0;
#X connect 1 6 30 0;
#X connect 1 7 33 0;
#X connect 2 0 36 0;
#X connect 3 0 37 0;
#X connect 4 0 38 0;
#X connect 5 0 39 0;
#X connect 6 0 40 0;
#X connect 7 0 41 0;
#X connect 8 0 42 0;
#X connect 9 0 43 0;
#X connect 10 0 2 1;
#X connect 11 0 3 1;
#X connect 11 0 4 1;
#X connect 11 0 5 1;
#X connect 11 0 6 1;
#X connect 11 0 7 1;
#X connect 11 0 8 1;
#X connect 11 0 9 1;
#X connect 12 0 10 0;
#X connect 12 0 11 0;
#X connect 13 0 3 1;
#X connect 14 0 2 1;
#X connect 14 0 4 1;
#X connect 14 0 5 1;
#X connect 14 0 6 1;
#X connect 14 0 7 1;
#X connect 14 0 8 1;
#X connect 14 0 9 1;
#X connect 15 0 13 0;
#X connect 15 0 14 0;
#X connect 16 0 4 1;
#X connect 17 0 2 1;
#X connect 17 0 3 1;
#X connect 17 0 5 1;
#X connect 17 0 6 1;
#X connect 17 0 7 1;
#X connect 17 0 8 1;
#X connect 17 0 9 1;
#X connect 18 0 16 0;
#X connect 18 0 17 0;
#X connect 19 0 5 1;
#X connect 20 0 2 1;
#X connect 20 0 3 1;
#X connect 20 0 4 1;
#X connect 20 0 6 1;
#X connect 20 0 7 1;
#X connect 20 0 8 1;
#X connect 20 0 9 1;
#X connect 21 0 19 0;
#X connect 21 0 20 0;
#X connect 22 0 6 1;
#X connect 23 0 2 1;
#X connect 23 0 3 1;
#X connect 23 0 4 1;
#X connect 23 0 5 1;
#X connect 23 0 7 1;
#X connect 23 0 8 1;
#X connect 23 0 9 1;
#X connect 24 0 22 0;
#X connect 24 0 23 0;
#X connect 25 0 7 1;
#X connect 26 0 2 1;
#X connect 26 0 3 1;
#X connect 26 0 4 1;
#X connect 26 0 5 1;
#X connect 26 0 6 1;
#X connect 26 0 8 1;
#X connect 26 0 9 1;
#X connect 27 0 25 0;
#X connect 27 0 26 0;
#X connect 28 0 8 1;
#X connect 29 0 2 1;
#X connect 29 0 3 1;
#X connect 29 0 4 1;
#X connect 29 0 5 1;
#X connect 29 0 6 1;
#X connect 29 0 7 1;
#X connect 29 0 9 1;
#X connect 30 0 28 0;
#X connect 30 0 29 0;
#X connect 31 0 9 1;
#X connect 32 0 2 1;
#X connect 32 0 3 1;
#X connect 32 0 4 1;
#X connect 32 0 5 1;
#X connect 32 0 6 1;
#X connect 32 0 7 1;
#X connect 32 0 8 1;
#X connect 33 0 31 0;
#X connect 33 0 32 0;
#X connect 35 0 2 0;
#X connect 35 0 3 0;
#X connect 35 0 4 0;
#X connect 35 0 5 0;
#X connect 35 0 6 0;
#X connect 35 0 7 0;
#X connect 35 0 8 0;
#X connect 35 0 9 0;
#X restore 125 109 pd 8demux~;
#X obj 190 82 inlet;
#N canvas 0 0 726 641 snowtex 0;
#N canvas 0 0 776 658 snow 0;
#X obj 161 453 *~;
#X obj 109 225 noise~;
#X obj 146 412 vcf~ 200 3;
#X obj 241 366 loadbang;
#X obj 102 270 /~;
#X obj 103 343 clip~ -1 1;
#X obj 60 247 lop~ 110;
#X obj 121 246 lop~ 900;
#X obj 166 169 noise~;
#X obj 165 219 /~;
#X obj 123 196 lop~ 50;
#X obj 184 195 lop~ 70;
#X obj 103 290 *~;
#X obj 192 220 lop~ 10;
#X obj 191 241 *~ 17;
#X obj 190 264 *~;
#X obj 103 313 *~;
#X obj 189 286 +~ 0.5;
#X obj 181 142 inlet~;
#X obj 160 507 outlet~;
#X obj 247 154 switch~;
#X obj 247 128 inlet;
#X obj 102 365 hip~ 300;
#X obj 185 389 +~ 700;
#X obj 185 365 *~ 9000;
#X msg 241 386 0.5;
#X obj 162 476 *~ 0.2;
#X connect 0 0 26 0;
#X connect 1 0 6 0;
#X connect 1 0 7 0;
#X connect 2 0 0 0;
#X connect 3 0 25 0;
#X connect 4 0 12 0;
#X connect 5 0 22 0;
#X connect 6 0 4 0;
#X connect 7 0 4 1;
#X connect 8 0 10 0;
#X connect 8 0 11 0;
#X connect 8 0 13 0;
#X connect 9 0 12 1;
#X connect 10 0 9 0;
#X connect 11 0 9 1;
#X connect 12 0 16 0;
#X connect 13 0 14 0;
#X connect 14 0 15 0;
#X connect 14 0 15 1;
#X connect 15 0 17 0;
#X connect 16 0 5 0;
#X connect 17 0 16 1;
#X connect 18 0 0 1;
#X connect 18 0 24 0;
#X connect 21 0 20 0;
#X connect 22 0 2 0;
#X connect 23 0 2 1;
#X connect 24 0 23 0;
#X connect 25 0 2 2;
#X connect 26 0 19 0;
#X restore 158 117 pd snow;
#X obj 202 75 env~;
#X obj 202 96 > 0.5;
#X obj 180 38 inlet~;
#X obj 158 139 outlet~;
#X connect 0 0 4 0;
#X connect 1 0 2 0;
#X connect 2 0 0 1;
#X connect 3 0 1 0;
#X connect 3 0 0 0;
#X restore 8 170 pd snowtex;
#N canvas 0 0 726 641 dirttex 0;
#X obj 202 75 env~;
#X obj 202 96 > 0.5;
#X obj 180 38 inlet~;
#X obj 158 139 outlet~;
#N canvas 0 0 294 514 dirt 0;
#X obj 54 309 *~;
#X obj 72 47 inlet~;
#X obj 76 443 outlet~;
#X obj 138 59 switch~;
#X obj 138 33 inlet;
#X obj 128 221 osc~;
#X obj 127 157 *~;
#X obj 150 82 noise~;
#X obj 150 127 *~ 70;
#X obj 150 104 lop~ 80;
#X obj 100 127 +~ 0.3;
#X obj 128 242 hip~ 200;
#X obj 71 126 *~;
#X obj 70 148 *~;
#X obj 18 250 osc~ 80;
#X obj 18 228 +~ 40;
#X obj 19 202 *~ 500;
#X obj 77 394 +~;
#X obj 127 264 clip~ -1 1;
#X obj 128 179 *~ 70;
#X obj 126 330 *~ 0.04;
#X obj 55 332 *~ 0.5;
#X obj 128 200 +~ 70;
#X connect 0 0 21 0;
#X connect 1 0 10 0;
#X connect 1 0 12 0;
#X connect 1 0 12 1;
#X connect 4 0 3 0;
#X connect 5 0 11 0;
#X connect 6 0 19 0;
#X connect 7 0 9 0;
#X connect 8 0 6 1;
#X connect 9 0 8 0;
#X connect 10 0 6 0;
#X connect 11 0 18 0;
#X connect 12 0 13 0;
#X connect 12 0 13 1;
#X connect 13 0 0 1;
#X connect 13 0 16 0;
#X connect 14 0 0 0;
#X connect 15 0 14 0;
#X connect 16 0 15 0;
#X connect 17 0 2 0;
#X connect 18 0 20 0;
#X connect 19 0 22 0;
#X connect 20 0 17 1;
#X connect 21 0 17 0;
#X connect 22 0 5 0;
#X restore 158 117 pd dirt;
#X connect 0 0 1 0;
#X connect 1 0 4 1;
#X connect 2 0 0 0;
#X connect 2 0 4 0;
#X connect 4 0 3 0;
#X restore 173 169 pd dirttex;
#N canvas 0 0 726 641 grasstex 0;
#X obj 202 75 env~;
#X obj 202 96 > 0.5;
#X obj 180 38 inlet~;
#X obj 158 139 outlet~;
#N canvas 0 0 888 667 grass 0;
#X obj 163 404 *~;
#X obj 181 142 inlet~;
#X obj 401 564 outlet~;
#X obj 238 140 inlet;
#X obj 180 221 *~;
#X obj 179 243 *~;
#X obj 127 345 osc~ 80;
#X obj 401 527 +~;
#X obj 164 427 *~ 0.8;
#X obj 127 323 +~ 30;
#X obj 127 297 *~ 600;
#X obj 127 369 clip~ 0 0.5;
#X obj 238 166 switch~;
#X obj 725 115 noise~;
#X obj 732 286 lop~ 16;
#X obj 627 405 vcf~ 3333 30;
#X obj 627 248 *~;
#X obj 627 272 *~;
#X obj 733 312 *~ 23800;
#X obj 626 176 /~;
#X obj 655 149 lop~ 2000;
#X obj 593 149 lop~ 300;
#X obj 626 315 clip~ -0.9 0.9;
#X obj 733 334 +~ 3400;
#X obj 626 293 *~ 1e-05;
#X obj 626 213 hip~ 2500;
#X obj 611 489 *~;
#X obj 733 359 clip~ 2000 10000;
#X msg 723 386 1;
#X obj 718 405 init 1;
#X obj 627 435 hip~ 900;
#X obj 627 467 *~ 0.3;
#X connect 0 0 8 0;
#X connect 1 0 4 0;
#X connect 1 0 4 1;
#X connect 1 0 26 0;
#X connect 3 0 12 0;
#X connect 4 0 5 0;
#X connect 4 0 5 1;
#X connect 5 0 0 1;
#X connect 5 0 10 0;
#X connect 6 0 11 0;
#X connect 7 0 2 0;
#X connect 8 0 7 0;
#X connect 9 0 6 0;
#X connect 10 0 9 0;
#X connect 11 0 0 0;
#X connect 13 0 14 0;
#X connect 13 0 20 0;
#X connect 13 0 21 0;
#X connect 14 0 18 0;
#X connect 15 0 30 0;
#X connect 16 0 17 0;
#X connect 16 0 17 1;
#X connect 17 0 24 0;
#X connect 18 0 23 0;
#X connect 19 0 25 0;
#X connect 20 0 19 1;
#X connect 21 0 19 0;
#X connect 22 0 15 0;
#X connect 23 0 27 0;
#X connect 24 0 22 0;
#X connect 25 0 16 0;
#X connect 25 0 16 1;
#X connect 26 0 7 1;
#X connect 27 0 15 1;
#X connect 28 0 15 2;
#X connect 29 0 15 2;
#X connect 30 0 31 0;
#X connect 31 0 26 1;
#X restore 158 117 pd grass;
#X connect 0 0 1 0;
#X connect 1 0 4 1;
#X connect 2 0 0 0;
#X connect 2 0 4 0;
#X connect 4 0 3 0;
#X restore 87 170 pd grasstex;
#N canvas 119 44 726 641 gravtex 0;
#X obj 44 26 env~;
#X obj 44 47 > 0.5;
#X obj 20 -2 inlet~;
#X obj 0 90 outlet~;
#N canvas 126 61 245 451 gravel 0;
#X obj 1 151 inlet~;
#X obj 40 431 outlet~;
#X obj 189 0 inlet;
#X obj 189 26 switch~;
#X obj 108 0 noise~;
#X obj 55 128 *~;
#X obj 56 79 /~;
#X obj 86 42 lop~ 2000;
#X obj 24 42 lop~ 300;
#X obj 55 173 clip~ -0.9 0.9;
#X obj 39 407 *~;
#X obj 73 312 clip~ 500 10000;
#X obj 73 195 lop~ 50;
#X obj 56 102 hip~ 400;
#X obj 55 151 *~ 0.01;
#X obj 73 215 *~ 50000;
#X obj 55 362 hip~ 200;
#X obj 55 385 *~ 2;
#X obj 73 287 +~;
#X obj 89 262 *~ 1000;
#X obj 55 338 vcf~ 3;
#X connect 0 0 10 0;
#X connect 0 0 19 0;
#X connect 2 0 3 0;
#X connect 4 0 7 0;
#X connect 4 0 8 0;
#X connect 4 0 12 0;
#X connect 5 0 14 0;
#X connect 6 0 13 0;
#X connect 7 0 6 1;
#X connect 8 0 6 0;
#X connect 9 0 20 0;
#X connect 10 0 1 0;
#X connect 11 0 20 1;
#X connect 12 0 15 0;
#X connect 13 0 5 0;
#X connect 13 0 5 1;
#X connect 14 0 9 0;
#X connect 15 0 18 0;
#X connect 16 0 17 0;
#X connect 17 0 10 1;
#X connect 18 0 11 0;
#X connect 19 0 18 1;
#X connect 20 0 16 0;
#X restore 0 68 pd gravel;
#X connect 0 0 1 0;
#X connect 1 0 4 1;
#X connect 2 0 0 0;
#X connect 2 0 4 0;
#X connect 4 0 3 0;
#X restore 250 168 pd gravtex;
#N canvas 0 0 726 641 woodtex 0;
#X obj 202 75 env~;
#X obj 202 96 > 0.5;
#X obj 180 38 inlet~;
#X obj 158 139 outlet~;
#N canvas 0 0 1177 818 wood 0;
#X obj 470 445 *~;
#X obj 181 142 inlet~;
#X obj 401 564 outlet~;
#X obj 238 140 inlet;
#X obj 180 221 *~;
#X obj 401 527 +~;
#X obj 237 163 switch~;
#X obj 466 255 noise~;
#X obj 419 322 *~ 6;
#X obj 801 262 noise~;
#X obj 355 423 *~;
#X obj 737 287 bp~ 123 20;
#X obj 180 251 *~ 2;
#X obj 336 293 bp~ 95 90;
#X obj 411 291 bp~ 134 90;
#X obj 489 290 bp~ 139 90;
#X obj 567 290 bp~ 154 90;
#X obj 815 286 bp~ 156 90;
#X obj 893 286 bp~ 189 90;
#X obj 745 318 *~ 8;
#X obj 662 289 bp~ 201 70;
#X obj 243 258 sqrt~;
#X obj 356 449 *~ 0.5;
#X obj 469 469 *~ 0.6;
#X connect 0 0 23 0;
#X connect 1 0 4 0;
#X connect 1 0 4 1;
#X connect 1 0 21 0;
#X connect 3 0 6 0;
#X connect 4 0 12 0;
#X connect 5 0 2 0;
#X connect 7 0 13 0;
#X connect 7 0 14 0;
#X connect 7 0 15 0;
#X connect 7 0 16 0;
#X connect 8 0 10 1;
#X connect 9 0 11 0;
#X connect 9 0 17 0;
#X connect 9 0 18 0;
#X connect 9 0 20 0;
#X connect 10 0 22 0;
#X connect 11 0 19 0;
#X connect 12 0 0 0;
#X connect 13 0 8 0;
#X connect 14 0 8 0;
#X connect 15 0 8 0;
#X connect 16 0 8 0;
#X connect 17 0 19 0;
#X connect 18 0 19 0;
#X connect 19 0 0 1;
#X connect 20 0 19 0;
#X connect 21 0 10 0;
#X connect 22 0 5 0;
#X connect 23 0 5 0;
#X restore 158 117 pd wood;
#X connect 0 0 1 0;
#X connect 1 0 4 1;
#X connect 2 0 0 0;
#X connect 2 0 4 0;
#X connect 4 0 3 0;
#X restore 332 167 pd woodtex;
#X text 233 81 surface select;
#X text 9 83 control envelope;
#X connect 0 0 2 0;
#X connect 2 0 4 0;
#X connect 2 1 6 0;
#X connect 2 2 5 0;
#X connect 2 3 7 0;
#X connect 2 4 8 0;
#X connect 3 0 2 1;
#X connect 4 0 1 0;
#X connect 5 0 1 0;
#X connect 6 0 1 0;
#X connect 7 0 1 0;
#X connect 8 0 1 0;
#X restore 66 144 pd texturesource;
#X obj 26 196 +~;
#X obj 1 71 r walkspeed;
#N canvas 43 30 514 361 foot 0;
#X obj 20 130 clip~ 0 0.33333;
#X obj 283 130 clip~ 0.666666 1;
#X obj 20 178 *~ 3;
#X obj 285 178 *~ 3;
#X obj 284 156 -~ 0.666666;
#X obj 154 130 clip~ 0.125 0.875;
#X obj 153 156 -~ 0.125;
#X obj 152 178 *~ 1.33333;
#N canvas 512 249 566 419 polycurve 0;
#X obj 173 193 *~;
#X obj 174 217 *~;
#X obj 237 168 sig~ 1;
#X obj 211 277 -~;
#X obj 220 303 *~;
#X obj 173 158 *~ 1;
#X obj 219 326 *~ -1.5;
#X obj 237 192 -~;
#X obj 210 253 *~;
#X obj 227 148 inlet~ N;
#X obj 201 193 *~;
#X obj 173 126 inlet~ X;
#X obj 218 351 outlet~ P;
#X connect 0 0 1 0;
#X connect 1 0 8 0;
#X connect 2 0 7 0;
#X connect 3 0 4 0;
#X connect 4 0 6 0;
#X connect 5 0 0 0;
#X connect 5 0 0 1;
#X connect 5 0 1 1;
#X connect 5 0 7 1;
#X connect 5 0 10 0;
#X connect 6 0 12 0;
#X connect 7 0 4 1;
#X connect 8 0 3 0;
#X connect 9 0 10 1;
#X connect 9 0 8 1;
#X connect 10 0 3 1;
#X connect 11 0 5 0;
#X restore 21 229 pd polycurve;
#N canvas 0 0 566 419 polycurve 0;
#X obj 173 193 *~;
#X obj 174 217 *~;
#X obj 237 168 sig~ 1;
#X obj 211 277 -~;
#X obj 220 303 *~;
#X obj 173 158 *~ 1;
#X obj 219 326 *~ -1.5;
#X obj 237 192 -~;
#X obj 210 253 *~;
#X obj 227 148 inlet~ N;
#X obj 201 193 *~;
#X obj 173 126 inlet~ X;
#X obj 218 351 outlet~ P;
#X connect 0 0 1 0;
#X connect 1 0 8 0;
#X connect 2 0 7 0;
#X connect 3 0 4 0;
#X connect 4 0 6 0;
#X connect 5 0 0 0;
#X connect 5 0 0 1;
#X connect 5 0 1 1;
#X connect 5 0 7 1;
#X connect 5 0 10 0;
#X connect 6 0 12 0;
#X connect 7 0 4 1;
#X connect 8 0 3 0;
#X connect 9 0 10 1;
#X connect 9 0 8 1;
#X connect 10 0 3 1;
#X connect 11 0 5 0;
#X restore 152 230 pd polycurve;
#N canvas 0 0 566 419 polycurve 0;
#X obj 173 193 *~;
#X obj 174 217 *~;
#X obj 237 168 sig~ 1;
#X obj 211 277 -~;
#X obj 220 303 *~;
#X obj 173 158 *~ 1;
#X obj 219 326 *~ -1.5;
#X obj 237 192 -~;
#X obj 210 253 *~;
#X obj 227 148 inlet~ N;
#X obj 201 193 *~;
#X obj 173 126 inlet~ X;
#X obj 218 351 outlet~ P;
#X connect 0 0 1 0;
#X connect 1 0 8 0;
#X connect 2 0 7 0;
#X connect 3 0 4 0;
#X connect 4 0 6 0;
#X connect 5 0 0 0;
#X connect 5 0 0 1;
#X connect 5 0 1 1;
#X connect 5 0 7 1;
#X connect 5 0 10 0;
#X connect 6 0 12 0;
#X connect 7 0 4 1;
#X connect 8 0 3 0;
#X connect 9 0 10 1;
#X connect 9 0 8 1;
#X connect 10 0 3 1;
#X connect 11 0 5 0;
#X restore 284 229 pd polycurve;
#X obj 101 204 r~ n1;
#X obj 230 204 r~ n2;
#X obj 363 204 r~ n3;
#X obj 154 34 inlet~;
#X obj 152 301 outlet~;
#X obj 153 60 clip~ 0 0.75;
#X obj 154 88 *~ 1.33333;
#X connect 0 0 2 0;
#X connect 1 0 4 0;
#X connect 2 0 8 0;
#X connect 3 0 10 0;
#X connect 4 0 3 0;
#X connect 5 0 6 0;
#X connect 6 0 7 0;
#X connect 7 0 9 0;
#X connect 8 0 15 0;
#X connect 9 0 15 0;
#X connect 10 0 15 0;
#X connect 11 0 8 1;
#X connect 12 0 9 1;
#X connect 13 0 10 1;
#X connect 14 0 16 0;
#X connect 16 0 17 0;
#X connect 17 0 0 0;
#X connect 17 0 5 0;
#X connect 17 0 1 0;
#X restore 66 119 pd foot;
#X obj 542 2 r walkspeed;
#X obj 542 23 sig~;
#X obj 542 77 -~;
#X obj 557 52 lop~ 0.5;
#X obj 518 109 snapshot~;
#X obj 465 80 metro 100;
#X obj 518 149 + 0.5;
#X obj 518 231 s \$0-ballf;
#X obj 518 129 * 1.7;
#X obj 440 231 s \$0-heelf;
#X obj 440 184 swap 1;
#X obj 440 209 -;
#X obj 465 57 loadbang;
#X obj 147 93 loadbang;
#X connect 0 0 24 0;
#X connect 0 1 28 0;
#X connect 1 0 20 0;
#X connect 2 0 21 0;
#X connect 3 0 22 0;
#X connect 5 0 26 0;
#X connect 6 0 5 1;
#X connect 6 0 25 1;
#X connect 8 0 23 0;
#X connect 14 0 1 0;
#X connect 15 0 2 0;
#X connect 16 0 3 0;
#X connect 17 0 8 0;
#X connect 20 0 9 0;
#X connect 21 0 10 0;
#X connect 22 0 11 0;
#X connect 23 0 12 0;
#X connect 24 0 5 0;
#X connect 25 0 26 1;
#X connect 26 0 4 0;
#X connect 26 0 4 1;
#X connect 27 0 0 0;
#X connect 28 0 25 0;
#X connect 29 0 30 0;
#X connect 30 0 31 0;
#X connect 30 0 32 0;
#X connect 31 0 33 0;
#X connect 32 0 31 1;
#X connect 33 0 37 0;
#X connect 34 0 33 0;
#X connect 35 0 36 0;
#X connect 35 0 39 0;
#X connect 37 0 35 0;
#X connect 39 0 40 0;
#X connect 39 1 40 1;
#X connect 40 0 38 0;
#X connect 41 0 34 0;
#X connect 42 0 6 0;
#X restore 144 312 pd footsteps;
#N canvas 851 199 1164 615 collectable 1;
#X obj 261 474 phasor~;
#X floatatom 261 394 5 0 0 0 - - - 0;
#X obj 261 675 *~;
#X obj 251 751 dac~;
#X obj 346 474 phasor~;
#X obj 346 432 * -1;
#X obj 261 613 +~;
#X msg 359 394 0;
#X obj 359 373 bng 15 250 50 0 empty empty empty 17 7 0 10 #fcfcfc #000000 #000000;
#X obj 346 507 *~ 2;
#X obj 261 507 *~ 2;
#X obj 261 536 -~ 1;
#X obj 346 537 -~ 1;
#X obj 261 579 clip~ 0 1;
#X obj 346 579 clip~ 0 1;
#X obj 261 321 mtof;
#X msg 261 219 86;
#X msg 307 251 98;
#X obj 307 173 bng 15 250 50 0 empty empty empty 17 7 0 10 #fcfcfc #000000 #000000;
#X msg 425 236 1 0 \, 0 250 0;
#X obj 425 656 vline~;
#X obj 280 173 bng 15 250 50 0 empty empty empty 17 7 0 10 #fcfcfc #000000 #000000;
#X obj 334 174 bng 15 250 50 0 empty empty empty 17 7 0 10 #fcfcfc #000000 #000000;
#X obj 280 79 r val1;
#X floatatom 280 109 5 0 0 0 - - - 0;
#X obj 280 137 select 0 1 2;
#X obj 359 347 loadbang;
#X text 59 449 Classical Triangle Waveform;
#X obj 307 218 delay 100;
#X obj 262 641 -~ 0.5;
#X obj 260 712 *~;
#X obj 524 533 vsl 19 162 0 1 0 1 empty empty empty 0 -9 0 12 #fcfcfc #000000 #000000 6500 1;
#X text 548 539 Louder;
#X text 549 680 Quieter;
#X connect 0 0 10 0;
#X connect 1 0 0 0;
#X connect 1 0 5 0;
#X connect 2 0 30 0;
#X connect 4 0 9 0;
#X connect 5 0 4 0;
#X connect 6 0 29 0;
#X connect 7 0 0 1;
#X connect 7 0 4 1;
#X connect 8 0 7 0;
#X connect 9 0 12 0;
#X connect 10 0 11 0;
#X connect 11 0 13 0;
#X connect 12 0 14 0;
#X connect 13 0 6 0;
#X connect 14 0 6 1;
#X connect 15 0 1 0;
#X connect 16 0 15 0;
#X connect 17 0 15 0;
#X connect 18 0 19 0;
#X connect 18 0 16 0;
#X connect 18 0 28 0;
#X connect 19 0 20 0;
#X connect 20 0 2 1;
#X connect 21 0 16 0;
#X connect 21 0 19 0;
#X connect 22 0 17 0;
#X connect 22 0 19 0;
#X connect 23 0 24 0;
#X connect 24 0 25 0;
#X connect 25 0 21 0;
#X connect 25 1 18 0;
#X connect 25 2 22 0;
#X connect 26 0 8 0;
#X connect 28 0 17 0;
#X connect 29 0 2 0;
#X connect 30 0 3 0;
#X connect 30 0 3 1;
#X connect 31 0 30 1;
#X restore 145 346 pd collectable;
#X obj 532 218 loadbang;
#X msg 601 351 \; pd-playerdied loadbang;
#X msg 601 396 \; pd-enemydamaged loadbang;
#X msg 601 441 \; pd-enemydied loadbang;
#X connect 0 0 1 0;
#X connect 8 0 9 0;
#X connect 8 0 10 0;
#X connect 8 0 11 0;
