#N canvas 218 424 1034 809 12;
#X text 203 279 creation arguments are OSC address;
#X text 179 238 set message to change OSC address;
#X text 164 48 1 Set IP Address : network address;
#X text 164 68 2 Set Ports (sending and listening);
#X text 164 87 3 Set OSC Addresses (routing osc data;
#X text 155 25 Key Settings;
#X floatatom 28 230 5 0 0 0 - - - 0;
#N canvas 1455 304 1047 976 oscReceive 1;
#X obj 55 184 netreceive -u -b;
#X msg 78 143 listen 0;
#X text 152 143 stop listening;
#X text 64 58 packets from network;
#X text 173 177 UDP packets \, binary output, f 13;
#X obj 45 314 print;
#X obj 45 272 oscparse;
#X text 150 114 listen on port 8000;
#X obj 177 269 oscparse;
#X obj 177 293 list trim;
#X floatatom 147 393 5 0 0 0 - - - 0;
#X text 241 267 Parse the OSC message;
#X obj 177 319 route unity;
#X msg 66 115 listen 8000;
#X obj 66 84 loadbang;
#X floatatom 420 388 5 0 0 0 - - - 0;
#X floatatom 287 391 5 0 0 0 - - - 0;
#X floatatom 42 394 5 0 0 0 - - - 0;
#X obj 41 371 route music;
#X floatatom 556 388 5 0 0 0 - - - 0;
#X obj 42 420 s startOST;
#X obj 147 420 s shootSingle;
#X obj 287 418 s shootAuto;
#X obj 146 370 route shootSingle;
#X obj 286 368 route shootAuto;
#X obj 420 415 s walkspeed;
#X obj 419 365 route walkspeed;
#X obj 555 365 route collectable;
#X obj 556 415 s collectable;
#X floatatom 146 489 5 0 0 0 - - - 0;
#X obj 145 466 route playerDeath;
#X obj 146 516 s playerDeath;
#X floatatom 287 487 5 0 0 0 - - - 0;
#X floatatom 420 488 5 0 0 0 - - - 0;
#X obj 419 465 route enemyDeath;
#X obj 286 464 route enemyDamage;
#X obj 287 514 s enemyDamage;
#X obj 420 515 s enemyDeath;
#X connect 0 0 6 0;
#X connect 0 0 8 0;
#X connect 1 0 0 0;
#X connect 6 0 5 0;
#X connect 8 0 9 0;
#X connect 9 0 12 0;
#X connect 10 0 21 0;
#X connect 12 0 18 0;
#X connect 12 0 23 0;
#X connect 12 0 24 0;
#X connect 12 0 26 0;
#X connect 12 0 27 0;
#X connect 13 0 0 0;
#X connect 14 0 13 0;
#X connect 15 0 25 0;
#X connect 16 0 22 0;
#X connect 17 0 20 0;
#X connect 18 0 17 0;
#X connect 19 0 28 0;
#X connect 23 0 10 0;
#X connect 24 0 16 0;
#X connect 26 0 15 0;
#X connect 27 0 19 0;
#X connect 29 0 31 0;
#X connect 30 0 29 0;
#X connect 32 0 36 0;
#X connect 33 0 37 0;
#X connect 34 0 33 0;
#X connect 35 0 32 0;
#X restore 47 142 pd oscReceive;
#X obj 47 36 tgl 15 0 empty empty empty 17 7 0 10 #fcfcfc #000000 #000000 0 1;
#X msg 47 61 \; pd dsp \$1;
#X obj 44 278 oscformat PD message;
#X msg 76 239 set PD message;
#N canvas 595 373 1077 722 oscSend 0;
#X msg 147 205 disconnect;
#X obj 61 253 netsend -u -b;
#X obj 59 55 list prepend send;
#X obj 59 80 list trim;
#X msg 147 175 connect 127.0.0.1 8001;
#X obj 59 29 r oscOut;
#X text 314 163 send to port 8001;
#X msg 147 148 connect localhost 8001;
#X obj 147 108 loadbang;
#X connect 0 0 1 0;
#X connect 2 0 3 0;
#X connect 3 0 1 0;
#X connect 4 0 1 0;
#X connect 5 0 2 0;
#X connect 7 0 1 0;
#X connect 8 0 7 0;
#X restore 47 118 pd oscSend;
#X obj 44 313 s oscOut;
#X obj 1389 965 *~;
#X obj 1380 1010 dac~;
#X obj 25 199 r log;
#X connect 6 0 10 0;
#X connect 8 0 9 0;
#X connect 10 0 13 0;
#X connect 11 0 10 0;
#X connect 14 0 15 0;
#X connect 14 0 15 1;
#X connect 16 0 6 0;
